<svg xmlns="http://www.w3.org/2000/svg" viewBox="0 0 300 35.01"><defs><style>.cls-1{fill:#afa276;}</style></defs><title>f__logo</title><g id="レイヤー_2" data-name="レイヤー 2"><g id="logo"><path class="cls-1" d="M36.34,24.61a.23.23,0,0,0,.23-.23.23.23,0,0,0-.23-.24.24.24,0,0,0-.24.24A.23.23,0,0,0,36.34,24.61Z"/><path class="cls-1" d="M32.18,27.16c.11.76,1.82,1.31,2.48.59s.11-1.82.62-2.33a.68.68,0,0,1,.58-.21h0c.16,0,.37.14.37.55a1.09,1.09,0,0,1-.34.82l-1,1v.52l1.22,1.22h.52l1.22-1.22v-.52l-1-1a1.09,1.09,0,0,1-.34-.82c0-.41.21-.52.37-.55h0a.68.68,0,0,1,.58.21c.51.51,0,1.61.62,2.33s2.37.17,2.48-.59a1.6,1.6,0,0,1-2.3-1.48c-.17-1.45-1.51-1.41-1.86-.61-.35-.8-1.7-.84-1.86.61A1.61,1.61,0,0,1,32.18,27.16Zm4.35-.59,1.12,1.12v.38l-1.12,1.12h-.38L35,28.07v-.38l1.12-1.12Z"/><polygon class="cls-1" points="35.38 28.03 36.19 28.84 36.49 28.84 37.3 28.03 37.3 27.73 36.49 26.92 36.19 26.92 35.38 27.73 35.38 28.03"/><path class="cls-1" d="M10.1,14a1.57,1.57,0,1,0-1.57-1.56A1.56,1.56,0,0,0,10.1,14Z"/><path class="cls-1" d="M9.75,14.61a4.25,4.25,0,0,1-.65-.08,2.45,2.45,0,0,0,1,1.09,3.49,3.49,0,0,1,1.12,1.05v0A2.58,2.58,0,0,0,10.83,15,1.62,1.62,0,0,0,9.75,14.61Z"/><path class="cls-1" d="M28.54,27.19a.82.82,0,1,0-.82-.82A.82.82,0,0,0,28.54,27.19Z"/><path class="cls-1" d="M28.3,24.81a.29.29,0,1,0,.29-.29A.29.29,0,0,0,28.3,24.81Z"/><path class="cls-1" d="M28.59,24a.82.82,0,1,0-.82-.82A.82.82,0,0,0,28.59,24Z"/><path class="cls-1" d="M28.59,21.94a.29.29,0,1,0-.29-.29A.29.29,0,0,0,28.59,21.94Z"/><path class="cls-1" d="M61.42,16.64v0a3.62,3.62,0,0,1,1.13-1.05,2.38,2.38,0,0,0,1-1.09,4,4,0,0,1-.65.08,1.66,1.66,0,0,0-1.08.36A2.65,2.65,0,0,0,61.42,16.64Z"/><path class="cls-1" d="M62.58,14A1.57,1.57,0,1,0,61,12.46,1.56,1.56,0,0,0,62.58,14Z"/><circle class="cls-1" cx="44.09" cy="21.65" r="0.29"/><path class="cls-1" d="M72.42,26.77a1.88,1.88,0,0,0-.58-.86l-.12-.08-.06,0-.07,0a1.06,1.06,0,0,0-.25-.09,1.61,1.61,0,0,0-.43-.07H70.8a1.76,1.76,0,0,0-1,.45,5,5,0,0,0-.57.61.15.15,0,0,1-.13.07h0a.16.16,0,0,1-.12-.15A2.58,2.58,0,0,0,67.6,24.4a.14.14,0,0,1-.09-.11.18.18,0,0,1,0-.14l.14-.18a5.17,5.17,0,0,0,.55-.92,3.4,3.4,0,0,0,.31-1.39,2,2,0,0,0,0-.34v-.08a1,1,0,0,0,0-.15V21c0-.06,0-.13-.07-.21l0-.08a1.39,1.39,0,0,0-.06-.13c0-.08-.09-.16-.14-.24l-.07-.09-.07-.1,0,0h0L67.9,20a2.66,2.66,0,0,0-.76-.57,2.36,2.36,0,0,0-1-.24H66a2.94,2.94,0,0,0-.89.16,2.62,2.62,0,0,0-.39.15l-.09,0,0,0a2.93,2.93,0,0,0-.39.21l-.06,0c-.12.08-.24.15-.35.24l-.22.16-.3.26-.06.05-.17.16-.35.32-.84.77c-.53.49-1,1-1.56,1.44l0,0a.4.4,0,0,1-.26.11.41.41,0,0,1-.36-.23.5.5,0,0,1,.06-.52A9.66,9.66,0,0,0,61,20.25a7.38,7.38,0,0,0,.46-1.85,1.91,1.91,0,0,1,.25-.76,1.74,1.74,0,0,0,.17-.38.16.16,0,0,1,.14-.11h0A2.22,2.22,0,0,0,64.16,16a6.43,6.43,0,0,1-.72.09c-.76.08-1.37.14-1.81,1.06a.18.18,0,0,1-.16.1h0a.17.17,0,0,1-.15-.12l0-.15a.2.2,0,0,1,0-.13l.07-.11,0,0h-.06a.15.15,0,0,1-.13-.05l-.07-.08a.17.17,0,0,1,0-.13,4.79,4.79,0,0,0-.35-2.41,3.75,3.75,0,0,1-.29-1.06c0,.09-.09.19-.14.28a.15.15,0,0,1-.15.1h0a12,12,0,0,1-3-2l-.12-.11a9.55,9.55,0,0,0-6.53-2.48c-.3,0-.62,0-.93,0a11,11,0,0,0-6.67,2.88,2.57,2.57,0,0,0-1.21-1.23,8.91,8.91,0,0,1,2.82-1.1,5.57,5.57,0,0,0-3.79.3.94.94,0,0,1-.21-1.08h.07a1,1,0,0,0,0-1.9,1.09,1.09,0,0,0-.26,0A1.32,1.32,0,0,0,39,6.09c-1.08.15-.67,1.33-.9,1.9A1,1,0,0,1,37,8.45c0-.46-.2-.8-.49-.88A.56.56,0,0,0,36.9,7a.62.62,0,0,0-.09-.3l.95-.8a2.94,2.94,0,0,0,1.48-.21.86.86,0,0,0,.1-1.21.84.84,0,0,0-1.2-.1,2.89,2.89,0,0,0-.47,1.41l-1,.81a.6.6,0,0,0-.31-.15V5.23c.2-.22.78-.87.78-1.26a.85.85,0,0,0-.47-.77,1.63,1.63,0,1,0-.76,0,.85.85,0,0,0-.47.77c0,.39.58,1,.78,1.26V6.48a.57.57,0,0,0-.31.15l-1-.81a2.77,2.77,0,0,0-.46-1.41.84.84,0,0,0-1.2.1.86.86,0,0,0,.1,1.21,2.92,2.92,0,0,0,1.47.21l1,.8a.62.62,0,0,0-.09.3.56.56,0,0,0,.4.54c-.29.08-.46.42-.48.88A1,1,0,0,1,34.59,8c-.23-.57.18-1.75-.9-1.9a1.31,1.31,0,0,0-1.22.68,1.09,1.09,0,0,0-.26,0,.95.95,0,1,0,0,1.9h.07a.94.94,0,0,1-.21,1.08,5.57,5.57,0,0,0-3.79-.3,8.91,8.91,0,0,1,2.82,1.1,2.53,2.53,0,0,0-1.21,1.23,11,11,0,0,0-6.67-2.88c-.31,0-.63,0-.93,0a9.55,9.55,0,0,0-6.53,2.48l-.13.11a11.8,11.8,0,0,1-3,2h-.05a.18.18,0,0,1-.16-.1c0-.09-.08-.19-.13-.28A3.75,3.75,0,0,1,12,14.13a4.79,4.79,0,0,0-.35,2.41.21.21,0,0,1,0,.13l-.07.08a.17.17,0,0,1-.13.05h-.06l0,0,.07.11a.2.2,0,0,1,0,.13l0,.15a.17.17,0,0,1-.15.12h0a.18.18,0,0,1-.15-.1c-.44-.92-1.05-1-1.81-1.06A6.43,6.43,0,0,1,8.52,16a2.21,2.21,0,0,0,2.06,1.11h0a.16.16,0,0,1,.15.11,1.74,1.74,0,0,0,.17.38,2.31,2.31,0,0,1,.25.76,7.38,7.38,0,0,0,.46,1.85,9.66,9.66,0,0,0,1.29,2.37.5.5,0,0,1,.06.52.41.41,0,0,1-.36.23.38.38,0,0,1-.26-.11l0,0c-.51-.46-1-.95-1.56-1.44L10,21l-.35-.32-.17-.16-.06-.05-.3-.26-.22-.16c-.11-.09-.23-.16-.35-.24l-.06,0a3,3,0,0,0-.4-.21l0,0-.09,0a2.62,2.62,0,0,0-.39-.15,2.94,2.94,0,0,0-.89-.16H6.52a2.36,2.36,0,0,0-1,.24,2.53,2.53,0,0,0-.76.57l-.09.09h0l0,0-.08.1-.06.09c0,.08-.1.16-.14.24a1.39,1.39,0,0,0-.06.13l0,.08c0,.08,0,.15-.07.21v.06a1.13,1.13,0,0,0,0,.15v.08a2,2,0,0,0,0,.34,3.4,3.4,0,0,0,.31,1.39A4.64,4.64,0,0,0,5,24l.14.18a.18.18,0,0,1,0,.14.14.14,0,0,1-.09.11,2.58,2.58,0,0,0-1.34,2.19.17.17,0,0,1-.12.15H3.57a.17.17,0,0,1-.14-.07,4.21,4.21,0,0,0-.56-.61,1.76,1.76,0,0,0-1-.45H1.77a1.75,1.75,0,0,0-.44.07,1.17,1.17,0,0,0-.24.09L1,25.8l-.06,0-.12.08a1.88,1.88,0,0,0-.58.86A5,5,0,0,0,0,28.72a6.67,6.67,0,0,0,.31,1.81,5.22,5.22,0,0,0,.33.8A3.74,3.74,0,0,0,1.1,32a3.2,3.2,0,0,0,.73.67,1.35,1.35,0,0,1,.57.64l-.13.09,0,0,0,0,0,0v.19l.88,1.25a.21.21,0,0,0,.16.08.21.21,0,0,0,.12,0C5.9,33.22,18.19,31.34,36,31.34h.66c17.82,0,30.11,1.88,32.63,3.64a.2.2,0,0,0,.11,0,.21.21,0,0,0,.17-.08l.87-1.25,0,0,0,0v-.12l0,0,0,0,0,0-.12-.08a1.35,1.35,0,0,1,.57-.64,3.2,3.2,0,0,0,.73-.67,3.74,3.74,0,0,0,.45-.67,6.47,6.47,0,0,0,.33-.8,7.08,7.08,0,0,0,.31-1.81A5,5,0,0,0,72.42,26.77ZM68,25.36a1.55,1.55,0,0,1,.16,1.54,1.09,1.09,0,0,1-.94.62h0a.18.18,0,0,1-.16-.1.17.17,0,0,1,0-.19.48.48,0,1,0-.82-.34.89.89,0,0,0,0,.15v0a1.23,1.23,0,0,0,1.28.89,1.75,1.75,0,0,0,.62-.11h.06a.22.22,0,0,1,.13.06.19.19,0,0,1,0,.19c-.09.16-.17.32-.25.48a14,14,0,0,1-.87,1.51,6.26,6.26,0,0,1-1,1.12,4.1,4.1,0,0,1-.72.48l-1.44-.3a7.24,7.24,0,0,1-.41-4.17,2.89,2.89,0,0,1,2.63-2.62h.25A2,2,0,0,1,68,25.36Zm-6.84,5.52a.74.74,0,0,1,.77-.56,1.78,1.78,0,0,1,.72.18,2.4,2.4,0,0,1,.82.75C62.7,31.12,61.93,31,61.12,30.88Zm3.79,1.05-.17.06h0a.19.19,0,0,1-.1,0l-.13-.12Zm-4.36-7.82c.59-.54,1.22-1.14,1.83-1.71l0,0,0,0a3.42,3.42,0,0,1,1.72-.49,2.48,2.48,0,0,1,1,.19A.85.85,0,0,0,65,21.7a1.36,1.36,0,0,0-1-.39.16.16,0,0,1-.15-.11.17.17,0,0,1,0-.19l.24-.2.17-.13.28-.2.07,0a2.69,2.69,0,0,1,.29-.16l.07,0,.1,0,.29-.11a2.17,2.17,0,0,1,.68-.12h.07a1.75,1.75,0,0,1,1.26.58l0,.06,0,0,.07.09.08.11,0,0,0,.08,0,.1s0,0,0,0a1.72,1.72,0,0,1,.07.21s0,.05,0,.08a0,0,0,0,1,0,0s0,.05,0,.08a.77.77,0,0,1,0,.22,2.71,2.71,0,0,1-.24,1.09,3.82,3.82,0,0,1-.46.78l-.21.28c-.06.06-.12.13-.18.18l0,0a.18.18,0,0,1-.12.05h0l-.26,0a3.44,3.44,0,0,0-3.13,3.05,9.94,9.94,0,0,0-.06,2.77.18.18,0,0,1-.14.19l-.23,0A1.06,1.06,0,0,1,61.69,29a4.82,4.82,0,0,1,.1-.83,2.25,2.25,0,0,0-.08-1.48.57.57,0,0,0-.48-.35.34.34,0,0,0-.28.13.44.44,0,0,0-.06.4l0,.11a.16.16,0,0,1-.1.19l-.06,0a.19.19,0,0,1-.15-.08c-.24-.36-.5-.58-.69-.58h0a.27.27,0,0,0-.18.15,1.21,1.21,0,0,0,0,.86,3.23,3.23,0,0,0,.41.66.15.15,0,0,1,0,.17.15.15,0,0,1-.14.1,1.32,1.32,0,0,0-.9.39.78.78,0,0,0-.2.57.68.68,0,0,0,0,.14v0a.49.49,0,0,0,.48.42.48.48,0,0,0,.48-.48.47.47,0,0,0-.28-.43.18.18,0,0,1-.09-.19.16.16,0,0,1,.15-.13h0a.8.8,0,0,1,.67.47,1.4,1.4,0,0,0,.73.57.15.15,0,0,1,.11.12.17.17,0,0,1-.06.16,1.3,1.3,0,0,0-.4.73c-1.53-.22-3.2-.41-5-.58l-.23,0h-.12l-2-.17a4.5,4.5,0,0,0,1.21-.58.19.19,0,0,1,.1,0,.18.18,0,0,1,.12,0,2.19,2.19,0,0,0,1.53.65.86.86,0,0,0,.86-.46,1,1,0,0,1-.62-.57,2.36,2.36,0,0,1,.55-2l0,0c.36-.28.66-.52.95-.77s.73-.62,1.16-1ZM45,20.09a1.67,1.67,0,0,0-1.25-.52,1.23,1.23,0,0,0-.27,0,4,4,0,0,0-2.21,1.62l0-.15c0-.13.06-.27.1-.4s.09-.28.14-.43.12-.29.18-.44a7.07,7.07,0,0,1,.44-.73.65.65,0,0,0,.19,0,.53.53,0,0,0,.53-.53.55.55,0,0,0-.07-.25l.22-.19a4.87,4.87,0,0,1,.83-.57.82.82,0,0,0,1.52-.43.69.69,0,0,0,0-.2c.25-.07.51-.13.76-.18l.49-.07a.83.83,0,0,0,.8.64.82.82,0,0,0,.8-.67l.3,0,.38.05.59.14.21.07a1.51,1.51,0,0,1-.15.28c-.15.23-.33.47-.52.73A9.79,9.79,0,0,0,47,22a4.55,4.55,0,0,0,.71,3.91v0a4.42,4.42,0,0,0,.67.89.17.17,0,0,1,0,.19.18.18,0,0,1-.16.1h-.11a3.52,3.52,0,0,0-1.74.64,3.59,3.59,0,0,1-1.75.64,1.94,1.94,0,0,1-1.08-.34l0,0a10.75,10.75,0,0,1-1.76-1.87l0-.08a6,6,0,0,1,1-4.52,2.07,2.07,0,0,1,1.59-.74,2.74,2.74,0,0,1,1,.19A1.39,1.39,0,0,0,45,20.09Zm-.89-6.72a4.72,4.72,0,0,0-1.22.17h0a.21.21,0,0,1-.12-.05l.26-.12.33-.13.44-.15L44,13l.27-.06.15,0,.15,0,.3,0c.11,0,.22,0,.32,0h.33c.22,0,.45,0,.67.05l.34.05.32.06.32.08.31.09.29.1.28.11.49.23a3.6,3.6,0,0,1,.4.22,3.22,3.22,0,0,1,.29.17,3.39,3.39,0,0,1,.55,1.2,3,3,0,0,1,0,1.55l-.22-.08a4.68,4.68,0,0,0-.61-.17l-.39-.07-.32,0a.82.82,0,0,0-.81-.73.81.81,0,0,0-.81.72,4.81,4.81,0,0,0-.53.07,6.3,6.3,0,0,0-.84.18.83.83,0,0,0-.66-.34.82.82,0,0,0-.82.82.31.31,0,0,0,0,.1c-.16.08-.31.18-.46.27s-.33.23-.48.36a1.94,1.94,0,0,0-.26.23.45.45,0,0,0-.2,0,.52.52,0,0,0-.52.52.55.55,0,0,0,.07.25,5.37,5.37,0,0,0-.5.81c-.08.16-.15.32-.21.47s-.11.31-.15.45l-.11.43-.06.39c0,.21,0,.4-.07.57a6.08,6.08,0,0,0-.31.68.18.18,0,0,1-.16.1h0a.17.17,0,0,1-.16-.13,9.88,9.88,0,0,1-.24-2.17,0,0,0,0,0,0,0c.56-2.65,1.18-3.67,2.87-4.73a5.23,5.23,0,0,1,2.79-.84,3.79,3.79,0,0,1,1.14.16A2.54,2.54,0,0,0,44.11,13.37Zm1.94,16.22-.17-.07a.17.17,0,0,1,0-.3,4.07,4.07,0,0,0,.44-.32,2.51,2.51,0,0,1,1.58-.7,2.28,2.28,0,0,1,.44.05,3.37,3.37,0,0,1,1.5.92,6.89,6.89,0,0,0,.85.66Q48.44,29.7,46.05,29.59Zm5.93-.2a2.4,2.4,0,0,1-1.82-1.08.15.15,0,0,1,0-.2.16.16,0,0,1,.14-.08h.05a6.06,6.06,0,0,0,1.86.27A10.65,10.65,0,0,0,54.46,28h0a.18.18,0,0,1,.13.28,3.05,3.05,0,0,1-.75.65,4.22,4.22,0,0,1-1.83.43Zm6.34-14.92a.57.57,0,0,1,.31-.32h0a2.82,2.82,0,0,1,.68-.08,3.11,3.11,0,0,1,.43,0,.14.14,0,0,1,.12.06.16.16,0,0,1,0,.13,2.08,2.08,0,0,0,.05,1v0a4.1,4.1,0,0,0,.6,1.4A2.46,2.46,0,0,1,61,18v0a6.51,6.51,0,0,1-.93,3,.17.17,0,0,1-.14.08h-.06a.16.16,0,0,1-.11-.18A9.17,9.17,0,0,0,58.38,15a.05.05,0,0,1,0,0A.59.59,0,0,1,58.32,14.47ZM57,14.2a4.61,4.61,0,0,1,.59,1.8,1.63,1.63,0,0,0,.17-.2.17.17,0,0,1,.14-.07h0a.18.18,0,0,1,.13.09,8.25,8.25,0,0,1-.67,9.11.17.17,0,0,1-.13.07h0a.16.16,0,0,1-.13-.06,2.55,2.55,0,0,0-1.88-1,1.27,1.27,0,0,0-.81.26,1.11,1.11,0,0,1,.48.4,3.41,3.41,0,0,1,.4,2.6.22.22,0,0,1-.12.11,11.61,11.61,0,0,1-3,.47,5,5,0,0,1-2.57-.63,3.83,3.83,0,0,1-1.87-4,1.78,1.78,0,0,1,1.48-1.42h0a1.37,1.37,0,0,1,1.33,1.11A1.56,1.56,0,0,1,50.34,24a1.59,1.59,0,0,1-.63.55,1.37,1.37,0,0,0,.61.15,1.69,1.69,0,0,0,1.4-1,.19.19,0,0,1,.16-.09h0a.18.18,0,0,1,.15.13,1,1,0,0,0,.89.72.68.68,0,0,0,.35-.09A1.41,1.41,0,0,1,53,22.92v-.05a2.07,2.07,0,0,0,0-1.39,2.7,2.7,0,0,0-2-1.64.17.17,0,0,1-.13-.17.16.16,0,0,1,.14-.16,2.76,2.76,0,0,1,.57-.06c1.36,0,2.14,1.06,2.77,1.92.43.58.79,1.09,1.21,1.09l.13,0a.82.82,0,0,0,.52-.63A1.84,1.84,0,0,0,55.46,20a.17.17,0,0,1,0-.22.79.79,0,0,0,.07-.69,1.6,1.6,0,0,0-1.08-.92,5.69,5.69,0,0,0-2-.34,6.14,6.14,0,0,0-1.29.13h-.06l.33-.17c.18-.09.37-.18.57-.3l.31-.17a2.48,2.48,0,0,0,.31-.18q.33-.18.66-.39c.22-.14.45-.27.66-.42l.45-.29a1,1,0,0,0,.83.44,1,1,0,0,0,.8-1.6l.29-.21.46-.31Zm-13.28-2h0a7.39,7.39,0,0,1,4.46-1.6,6.85,6.85,0,0,1,3.42.95,1.43,1.43,0,0,0-.18-1.39.17.17,0,0,1,0-.19.19.19,0,0,1,.14-.07h0L52,10a2.64,2.64,0,0,1,1.8,2,.44.44,0,0,0,.16-.4.22.22,0,0,1,.06-.15.21.21,0,0,1,.11,0h0a2.56,2.56,0,0,1,1.54,1.89.44.44,0,0,0,.09-.38.2.2,0,0,1,.09-.19l.08,0a.14.14,0,0,1,.12.06,5.91,5.91,0,0,1,.65.85.59.59,0,0,0,0,.08l-.23.35a5.25,5.25,0,0,1-.34.42c-.07.09-.16.18-.24.27a1,1,0,0,0-1.67.74,1.06,1.06,0,0,0,.13.5l-.45.29c-.22.14-.45.26-.68.38s-.46.23-.68.34a6.92,6.92,0,0,1-.65.27,5.37,5.37,0,0,1-.59.22l-.11,0h0a3.15,3.15,0,0,0,1.41-2.43,1.13,1.13,0,0,0-.26-.72,1.67,1.67,0,0,1-1.25,1.1h0a.16.16,0,0,1-.16-.15,1.91,1.91,0,0,0-1.73-1.85l-.47-.18a5.46,5.46,0,0,0-.53-.18L47.87,13,47.56,13l-.33-.08a2.79,2.79,0,0,0-.33-.06l-.34-.05-.34,0c-.23,0-.46,0-.69,0l-.66,0-.32,0-.15,0-.14,0-.29.06a2.44,2.44,0,0,0-.26.06l-.45.14-.33.13-.25.1a.16.16,0,0,1,0-.07A10.11,10.11,0,0,1,43.76,12.24ZM39.08,7.1a.84.84,0,0,1,.57.1,1,1,0,0,0-.13.48,1,1,0,0,0,.21.6,2.15,2.15,0,0,0,.74,1.52,2.9,2.9,0,0,0-1.29,2.52,1.69,1.69,0,0,1-.83-1.21,2.94,2.94,0,0,0,0,2.18A2.42,2.42,0,0,1,37.45,12a2,2,0,0,0,.07,1.87c-.27.29-.51.23-.66-.14a9.69,9.69,0,0,1-.29-1.07,16.47,16.47,0,0,0,2.16-2.93h.12a.78.78,0,0,0,0-1.56.75.75,0,0,0-.53.22C38.52,7.84,38.59,7.19,39.08,7.1Zm-2.29,8.77a1.54,1.54,0,0,0,.17-.4c.16-.58.53-.75.67-1.34C37.86,14.76,37.82,15.78,36.79,15.87ZM36.9,9a.77.77,0,0,0,.76.19.83.83,0,0,0,.42-.31s0,.06,0,.08a.8.8,0,0,0,.5.73,8.24,8.24,0,0,1-1.35,1.67.32.32,0,0,1-.43-.12.95.95,0,0,0-.24-1.76A.88.88,0,0,0,36.9,9ZM34.6,9V8.89A.79.79,0,0,0,35,9.2.77.77,0,0,0,35.78,9a.79.79,0,0,0,.35.48,1,1,0,0,0-.74.92.94.94,0,0,0,.5.84.32.32,0,0,1-.43.12A8.24,8.24,0,0,1,34.11,9.7.79.79,0,0,0,34.6,9Zm-1.66-.69a.9.9,0,0,0,.22-.6A1,1,0,0,0,33,7.2a.82.82,0,0,1,.56-.1c.5.09.57.74.77,1.31a.76.76,0,0,0-.54-.22.78.78,0,0,0,0,1.56H34a16.94,16.94,0,0,0,2.15,2.93,7.75,7.75,0,0,1-.28,1.07c-.16.37-.39.43-.66.14A2,2,0,0,0,35.23,12a2.42,2.42,0,0,1-.86,1.28,2.94,2.94,0,0,0,0-2.18,1.72,1.72,0,0,1-.83,1.21A2.9,2.9,0,0,0,32.21,9.8,2.09,2.09,0,0,0,32.94,8.28Zm2.94,7.59c-1-.09-1.06-1.11-.83-1.74.14.59.5.76.67,1.34A1.57,1.57,0,0,0,35.88,15.87Zm-4.46-5.14,0,0c1.28,1,.86,2.56,1.9,4.15.89,1.36,1.9,1.41,2.63,1.11a1.33,1.33,0,0,1,.27.62,1.46,1.46,0,0,0,.07,2.91l-.4.55.38.52a1.16,1.16,0,0,0,0,2.32l-.38.52.41.55.41-.55-.39-.52a1.16,1.16,0,0,0,0-2.32l.39-.52-.4-.55a1.46,1.46,0,0,0,.07-2.91,1.33,1.33,0,0,1,.27-.62c.73.3,1.74.25,2.63-1.11,1-1.59.62-3.15,1.9-4.15l0,0A1.48,1.48,0,0,1,41.61,13h0a12.34,12.34,0,0,0-2.72,7.27,11.05,11.05,0,0,0,4.93,9.27L41,29.45c-1.43,0-2.9,0-4.35,0H36c-1.45,0-2.92,0-4.35,0h0l-2.8.07a11.05,11.05,0,0,0,4.93-9.27A12.34,12.34,0,0,0,31.05,13h0A1.48,1.48,0,0,1,31.42,10.73ZM20.63,29.39A4.22,4.22,0,0,1,18.8,29a3.05,3.05,0,0,1-.75-.65.17.17,0,0,1,0-.19.18.18,0,0,1,.15-.09h0a10.64,10.64,0,0,0,2.25.27A6.12,6.12,0,0,0,22.34,28h.05a.16.16,0,0,1,.14.08.17.17,0,0,1,0,.2,2.4,2.4,0,0,1-1.82,1.08Zm2.23-.22a3.37,3.37,0,0,1,1.5-.92,2.28,2.28,0,0,1,.44-.05,2.54,2.54,0,0,1,1.58.7,4.07,4.07,0,0,0,.44.32.17.17,0,0,1,.07.16.17.17,0,0,1-.09.14l-.18.08q-2.37.09-4.62.24A7.29,7.29,0,0,0,22.86,29.17ZM25.67,22a9.91,9.91,0,0,0-2-4.07c-.19-.26-.38-.5-.52-.73a1.51,1.51,0,0,1-.15-.28l.21-.07.59-.14.38-.05.3,0a.82.82,0,0,0,.8.67.83.83,0,0,0,.8-.64l.49.07c.25.05.51.11.76.18a.69.69,0,0,0,0,.2.82.82,0,0,0,.82.82.83.83,0,0,0,.7-.39,5.3,5.3,0,0,1,.83.57l.22.19a.55.55,0,0,0-.07.25.52.52,0,0,0,.52.53.65.65,0,0,0,.2,0,7.07,7.07,0,0,1,.44.73c.06.15.13.3.18.44s.1.29.14.43l.1.4,0,.15a4.06,4.06,0,0,0-2.21-1.62,1.23,1.23,0,0,0-.27,0,1.67,1.67,0,0,0-1.25.52,1.39,1.39,0,0,0-.34.94,2.74,2.74,0,0,1,1-.19,2.07,2.07,0,0,1,1.59.74,6,6,0,0,1,1,4.52.2.2,0,0,1,0,.08,10.33,10.33,0,0,1-1.75,1.87l0,0a2,2,0,0,1-1.09.34,3.59,3.59,0,0,1-1.74-.64,3.55,3.55,0,0,0-1.74-.64H24.4a.18.18,0,0,1-.16-.1.17.17,0,0,1,0-.19A4.42,4.42,0,0,0,25,26v0A4.55,4.55,0,0,0,25.67,22Zm1.42-7.2a5.23,5.23,0,0,1,2.79.84c1.69,1.06,2.31,2.08,2.87,4.73v0a9.31,9.31,0,0,1-.23,2.17.17.17,0,0,1-.16.13h0a.18.18,0,0,1-.16-.1,6.08,6.08,0,0,0-.31-.68c0-.17,0-.36-.07-.57L31.74,21l-.1-.43q-.08-.21-.15-.45l-.21-.47a5.37,5.37,0,0,0-.5-.81.55.55,0,0,0,.07-.25.52.52,0,0,0-.53-.52.43.43,0,0,0-.19,0l-.26-.23c-.15-.13-.32-.24-.48-.36s-.3-.19-.46-.27c0,0,0-.06,0-.1a.82.82,0,0,0-.82-.82.83.83,0,0,0-.66.34,6.3,6.3,0,0,0-.84-.18,4.81,4.81,0,0,0-.53-.07.82.82,0,0,0-1.62,0l-.33,0-.38.07a4.68,4.68,0,0,0-.61.17l-.22.08a3,3,0,0,1,0-1.55,3.22,3.22,0,0,1,.55-1.2l.28-.17c.12-.08.26-.14.41-.22l.49-.23.28-.11.29-.1.31-.09.31-.08.33-.06.34-.05c.22,0,.44,0,.66-.05h.33c.11,0,.22,0,.32,0l.31,0,.15,0,.15,0,.27.06.26.06.44.15.32.13.26.12a.16.16,0,0,1-.11.05h-.05a4.72,4.72,0,0,0-1.22-.17A2.53,2.53,0,0,0,26,15,3.79,3.79,0,0,1,27.09,14.82Zm-10.48-2a.18.18,0,0,1,.13-.06l.07,0a.17.17,0,0,1,.09.19.46.46,0,0,0,.1.38,2.57,2.57,0,0,1,1.53-1.89h0a.21.21,0,0,1,.11,0,.22.22,0,0,1,.06.15.44.44,0,0,0,.16.4,2.64,2.64,0,0,1,1.79-2L21,9.93h0a.19.19,0,0,1,.14.07.21.21,0,0,1,0,.19A1.4,1.4,0,0,0,21,11.58a6.83,6.83,0,0,1,3.42-.95,7.39,7.39,0,0,1,4.46,1.6h0a10.11,10.11,0,0,1,1,1,.16.16,0,0,1,0,.07l-.25-.1-.34-.13L29,13a1.67,1.67,0,0,0-.26-.06l-.28-.06-.14,0-.16,0-.31,0-.67,0c-.22,0-.45,0-.68,0l-.35,0-.33.05a3.43,3.43,0,0,0-.34.06l-.32.08-.31.08-.29.09a5.46,5.46,0,0,0-.53.18l-.47.18a1.91,1.91,0,0,0-1.73,1.85.16.16,0,0,1-.17.15h0a1.67,1.67,0,0,1-1.25-1.1,1.13,1.13,0,0,0-.26.72,3.15,3.15,0,0,0,1.41,2.43h0l-.11,0c-.19-.06-.39-.13-.6-.22s-.43-.16-.65-.27-.45-.21-.67-.34-.46-.24-.68-.38L18.36,16a1.06,1.06,0,0,0,.13-.5,1,1,0,0,0-1.67-.74l-.25-.27c-.12-.15-.24-.29-.33-.42L16,13.74a.59.59,0,0,1,0-.08A7.43,7.43,0,0,1,16.61,12.81Zm-1.88,2.92h0a.17.17,0,0,1,.14.07,1.63,1.63,0,0,0,.17.2,4.61,4.61,0,0,1,.59-1.8l.3.2.46.31.29.21a.94.94,0,0,0-.2.6,1,1,0,0,0,1.83.56l.45.29c.21.15.44.28.66.42l.65.39.32.18.31.17c.2.12.39.21.57.3l.33.17h-.06a6.16,6.16,0,0,0-1.3-.13,5.63,5.63,0,0,0-2,.34,1.6,1.6,0,0,0-1.08.92.79.79,0,0,0,.07.69.18.18,0,0,1,0,.22,1.8,1.8,0,0,0-.72,1.77.8.8,0,0,0,.52.63l.13,0c.41,0,.78-.51,1.21-1.09.63-.86,1.41-1.92,2.77-1.92a2.83,2.83,0,0,1,.57.06.16.16,0,0,1,.14.16.17.17,0,0,1-.13.17,2.68,2.68,0,0,0-2,1.64,2.07,2.07,0,0,0,0,1.39v.05a1.36,1.36,0,0,1-.27,1.45.73.73,0,0,0,.35.09,1,1,0,0,0,.9-.72.17.17,0,0,1,.14-.13h0a.17.17,0,0,1,.15.09,1.72,1.72,0,0,0,1.41,1,1.4,1.4,0,0,0,.61-.15,1.68,1.68,0,0,1-.64-.55,1.59,1.59,0,0,1-.24-1.21,1.36,1.36,0,0,1,1.33-1.11h0a1.79,1.79,0,0,1,1.48,1.42,3.83,3.83,0,0,1-1.87,4,5,5,0,0,1-2.58.63,11.54,11.54,0,0,1-3-.47.19.19,0,0,1-.12-.11,3.37,3.37,0,0,1,.4-2.6,1.06,1.06,0,0,1,.48-.4,1.3,1.3,0,0,0-.82-.26,2.53,2.53,0,0,0-1.87,1,.16.16,0,0,1-.13.06h0a.17.17,0,0,1-.13-.07,8.26,8.26,0,0,1-.68-9.11A.19.19,0,0,1,14.73,15.73Zm-1.82,5.15a.17.17,0,0,1-.11.18h-.06A.17.17,0,0,1,12.6,21a6.51,6.51,0,0,1-.93-3v0a2.46,2.46,0,0,1,.45-1.24,4.53,4.53,0,0,0,.6-1.4v0a2,2,0,0,0,0-1,.22.22,0,0,1,0-.13.13.13,0,0,1,.11-.06l.44,0a2.82,2.82,0,0,1,.68.08h0a.57.57,0,0,1,.31.32.63.63,0,0,1,0,.49.05.05,0,0,1,0,0A9.17,9.17,0,0,0,12.91,20.88ZM5.08,22.77a2.55,2.55,0,0,1-.24-1.09.77.77,0,0,1,0-.22s0-.06,0-.08v0a.24.24,0,0,0,0-.08A.86.86,0,0,1,5,21.06s0,0,0,0a.47.47,0,0,1,0-.1.3.3,0,0,0,0-.08s0,0,0,0l.09-.11.06-.09,0,0,0-.06A1.75,1.75,0,0,1,6.54,20h.08a2.06,2.06,0,0,1,.67.12,2.65,2.65,0,0,1,.3.11l.09,0,.08,0,.29.16.07,0,.28.2.17.13.23.2a.16.16,0,0,1,0,.19.16.16,0,0,1-.15.11,1.36,1.36,0,0,0-1,.39.75.75,0,0,0-.17.36,2.48,2.48,0,0,1,1-.19,3.45,3.45,0,0,1,1.72.49l0,0,0,0c.61.57,1.23,1.17,1.83,1.71l1.27,1.14c.43.38.81.71,1.16,1s.59.49.94.77l0,0a2.35,2.35,0,0,1,.54,2,.91.91,0,0,1-.62.57.87.87,0,0,0,.86.46,2.19,2.19,0,0,0,1.53-.65.21.21,0,0,1,.13,0,.19.19,0,0,1,.1,0,4.59,4.59,0,0,0,1.2.58l-2,.17h-.11l-.24,0c-1.78.17-3.45.36-5,.58a1.26,1.26,0,0,0-.41-.73.18.18,0,0,1,0-.16.15.15,0,0,1,.11-.12,1.4,1.4,0,0,0,.73-.57.79.79,0,0,1,.67-.47h0a.17.17,0,0,1,.16.13.19.19,0,0,1-.1.19.46.46,0,0,0-.27.43.48.48,0,0,0,.95.06v0a.68.68,0,0,0,0-.14.75.75,0,0,0-.21-.57,1.27,1.27,0,0,0-.89-.39.15.15,0,0,1-.14-.1.17.17,0,0,1,0-.17,2.81,2.81,0,0,0,.41-.66,1.22,1.22,0,0,0,0-.86.27.27,0,0,0-.18-.15h-.05c-.19,0-.46.22-.7.58a.16.16,0,0,1-.14.08l-.06,0a.16.16,0,0,1-.1-.19l0-.11a.44.44,0,0,0-.06-.4.37.37,0,0,0-.28-.13.59.59,0,0,0-.49.35,2.32,2.32,0,0,0-.07,1.48A4.79,4.79,0,0,1,11,29,1,1,0,0,1,9.91,30.1l-.23,0a.18.18,0,0,1-.14-.19,9.94,9.94,0,0,0-.06-2.77,3.44,3.44,0,0,0-3.13-3.05l-.26,0h0A.17.17,0,0,1,6,24l0,0-.17-.18c-.07-.08-.13-.17-.21-.28A3.41,3.41,0,0,1,5.08,22.77Zm4.17,8.48a2.38,2.38,0,0,1,.81-.75,1.82,1.82,0,0,1,.73-.18.74.74,0,0,1,.77.56C10.74,31,10,31.12,9.25,31.25ZM4.33,27.89a.22.22,0,0,1,.13-.06h.06a1.74,1.74,0,0,0,.61.11,1.23,1.23,0,0,0,1.29-.89v0a.44.44,0,0,0,0-.15.48.48,0,1,0-.82.34.19.19,0,0,1,0,.19.18.18,0,0,1-.16.1h0a1.12,1.12,0,0,1-1-.62,1.53,1.53,0,0,1,.17-1.54,2,2,0,0,1,1.38-.77h.25A2.89,2.89,0,0,1,9,27.2a7.24,7.24,0,0,1-.41,4.17l-1.44.3a4.1,4.1,0,0,1-.72-.48,6.26,6.26,0,0,1-1-1.12,12.51,12.51,0,0,1-.87-1.51c-.08-.16-.16-.32-.25-.48A.19.19,0,0,1,4.33,27.89Zm3.89,3.95L8.09,32A.19.19,0,0,1,8,32h0l-.17-.06Zm-4.28-.73A.55.55,0,0,0,3.6,31a.65.65,0,0,0-.47.19v0a.44.44,0,0,1,.26.17.74.74,0,0,1,.07.63.17.17,0,0,0,0,.05.73.73,0,0,1-.21.27.86.86,0,0,1-.49.15,1,1,0,0,1-.3,0,2.28,2.28,0,0,1-1-.68,4,4,0,0,1-.46-.58,3.82,3.82,0,0,1-.36-.73A5.7,5.7,0,0,1,.2,28.71a5.05,5.05,0,0,1,0-.94,3.87,3.87,0,0,1,.21-.93A1.7,1.7,0,0,1,1,26.1L1.09,26l0,0,0,0h0l.2-.06.28,0,.17,0a1.29,1.29,0,0,1,.76.43,3.33,3.33,0,0,1,.55.77,15,15,0,0,1,.77,1.72,10.22,10.22,0,0,0,.77,1.7,5.68,5.68,0,0,0,1.06,1.37.1.1,0,0,0,0,0H5.75a1.39,1.39,0,0,0-.28.12c-.65.19-1.22.38-1.72.57A1.29,1.29,0,0,0,4,32.29l0-.07,0-.08a.92.92,0,0,0,0-.25v-.06h0A.82.82,0,0,0,3.94,31.11Zm-.1,3.15-.48.25h0a.05.05,0,0,1,0,0l-.48-.69a0,0,0,0,1,0-.06.05.05,0,0,1,0,0h0a2.8,2.8,0,0,1,.4.19,3.76,3.76,0,0,0,.57.26s0,0,0,0A.05.05,0,0,1,3.84,34.26Zm1.24-1.33c0,.41-.1.66-.5.82a1,1,0,0,1-.36.07,1.59,1.59,0,0,1-.77-.27l-.25-.13a.05.05,0,0,1,0-.05s0,0,0,0a11.22,11.22,0,0,1,1.86-.71h0l0,0a0,0,0,0,1,0,0A2.17,2.17,0,0,0,5.08,32.93Zm.28.78,0,0a.06.06,0,0,1,0-.06A2.16,2.16,0,0,0,5.49,33c0-.27.06-.44.19-.54h0l.52-.14a3.27,3.27,0,0,0,.82.44,3.42,3.42,0,0,0,.62.17,2.61,2.61,0,0,0,.53.06h.27c-1.19.24-2.23.48-3.08.74Zm4.65-1-1,.18,0-.68H9a.21.21,0,0,1-.14-.1.17.17,0,0,1,0-.17l0,0a1.56,1.56,0,0,1,.58.34,2.76,2.76,0,0,0,.58.38,0,0,0,0,1,0,.05A0,0,0,0,1,10,32.67Zm.88-.37h-.23a1.49,1.49,0,0,1-1-.43l-.25-.18a.11.11,0,0,1,0-.06.08.08,0,0,1,0,0l1.27-.2a.3.3,0,0,0,.16.22h0a.56.56,0,0,0,.33.12.54.54,0,0,0,.35-.13l.1-.09,0,.08A.92.92,0,0,1,10.89,32.3Zm3.21-.22c-.81.1-1.6.21-2.33.32h0a.05.05,0,0,1,0,0,.07.07,0,0,1,0-.06,2.14,2.14,0,0,0,.32-.53c.14-.32.24-.55.67-.61h.15a1,1,0,0,1,.73.4,2.12,2.12,0,0,0,.53.43.05.05,0,0,1,0,.09Zm.89-.35h-.2a1.16,1.16,0,0,1-.91-.46l-.22-.21a0,0,0,0,1,0-.05s0,0,0,0c.75-.1,1.55-.19,2.37-.27h0s0,0,0,0a0,0,0,0,1,0,.05L16,31A1.21,1.21,0,0,1,15,31.73Zm3.64-.11-2.72.26h0a.05.05,0,0,1-.05,0,.06.06,0,0,1,0-.06,2,2,0,0,0,.44-.56,1,1,0,0,1,.81-.61h.15a1,1,0,0,1,.85.46,2.17,2.17,0,0,0,.53.45.09.09,0,0,1,0,.06A.07.07,0,0,1,18.63,31.62Zm1-.31h-.17a1.22,1.22,0,0,1-1-.52c-.06-.06-.12-.13-.19-.19a0,0,0,0,1,0-.05.08.08,0,0,1,0,0c.78-.06,1.6-.13,2.42-.18h0s0,0,0,0a.06.06,0,0,1,0,.06,2.2,2.2,0,0,0-.18.28A1,1,0,0,1,19.6,31.31Zm1,.16a.07.07,0,0,1,0,0,0,0,0,0,1,0-.05,1.81,1.81,0,0,0,.37-.49.93.93,0,0,1,.8-.58,5.76,5.76,0,0,0,1.94,1c-1.05.06-2.07.12-3.07.2Zm7.57-.4-2.61.1v-.1a11.27,11.27,0,0,0,1.94-.74l.14.14a2.49,2.49,0,0,0,.56.5.07.07,0,0,1,0,.06A.07.07,0,0,1,28.13,31.07Zm-.23-.87-.06-.07.33-.18,2.29-.07h0a.05.05,0,0,1,.05,0,.07.07,0,0,1,0,.06l-.21.21a1.51,1.51,0,0,1-1.21.64A1.47,1.47,0,0,1,27.9,30.2Zm5.27.75c-1,0-2.06,0-3.05.06h0a.05.05,0,0,1-.05,0,0,0,0,0,1,0,0,3.63,3.63,0,0,0,.49-.46,1.44,1.44,0,0,1,1.08-.6h0a1.29,1.29,0,0,1,1,.54,2.69,2.69,0,0,0,.52.46s0,0,0,.06A.05.05,0,0,1,33.17,31Zm.94-.24A1.43,1.43,0,0,1,33,30.12c-.06-.06-.12-.13-.19-.19a0,0,0,0,1,0-.06s0,0,0,0l2.6,0h0a.05.05,0,0,1,.05,0,0,0,0,0,1,0,0l-.1.13a1.36,1.36,0,0,1-1.17.68Zm3.43.23h-2.4a.07.07,0,0,1,0,0,0,0,0,0,1,0,0,2.14,2.14,0,0,0,.56-.57c.23-.29.37-.46.67-.46s.44.17.66.46a2.36,2.36,0,0,0,.57.57,0,0,0,0,1,0,0A.07.07,0,0,1,37.54,30.94Zm1-.23A1.36,1.36,0,0,1,37.33,30a1.13,1.13,0,0,1-.1-.13s0,0,0,0a.05.05,0,0,1,.05,0h0l2.59,0a.05.05,0,0,1,0,0,.07.07,0,0,1,0,.06c-.07.06-.13.13-.19.19a1.46,1.46,0,0,1-1.14.59Zm4.12.26a.07.07,0,0,1,0,0h0L39.51,31a.05.05,0,0,1,0,0s0-.05,0-.06a2.73,2.73,0,0,0,.53-.47,1.24,1.24,0,0,1,1-.53h0a1.44,1.44,0,0,1,1.08.6,3.63,3.63,0,0,0,.49.46S42.61,31,42.61,31Zm-.22-.79L42.18,30a.07.07,0,0,1,0-.06.05.05,0,0,1,0,0h0l2.29.07.33.18-.06.07a1.47,1.47,0,0,1-1.18.62A1.51,1.51,0,0,1,42.39,30.18ZM44.5,31a.11.11,0,0,1,0-.06,3.06,3.06,0,0,0,.56-.5l.14-.14a11.27,11.27,0,0,0,1.94.74v.1l-2.61-.11A.05.05,0,0,1,44.5,31Zm7.66.4s0,0,0,0h0c-1-.07-2-.14-3-.19a6,6,0,0,0,1.93-1,.93.93,0,0,1,.8.58,1.72,1.72,0,0,0,.36.48A0,0,0,0,1,52.16,31.43Zm.92-.12a1,1,0,0,1-.94-.62,2.2,2.2,0,0,0-.18-.28.07.07,0,0,1,0-.06l0,0h0c.81.05,1.62.12,2.42.18a.08.08,0,0,1,0,0,0,0,0,0,1,0,.05l-.19.19a1.23,1.23,0,0,1-1,.52Zm3.73.53a.05.05,0,0,1-.05,0h0c-.87-.09-1.78-.18-2.7-.25,0,0-.05,0-.05,0s0,0,0-.06a2.2,2.2,0,0,0,.53-.45,1,1,0,0,1,.85-.46h.15a1,1,0,0,1,.81.61,2,2,0,0,0,.43.55A.07.07,0,0,1,56.81,31.84Zm.88-.11a1.21,1.21,0,0,1-1-.71l-.14-.22a0,0,0,0,1,0-.05s0,0,0,0h0q1.23.12,2.37.27s0,0,0,0a0,0,0,0,1,0,.05l-.21.21a1.16,1.16,0,0,1-.91.46Zm3.27.63a.05.05,0,0,1-.05,0h0c-.68-.1-1.38-.2-2.09-.28l-.22,0a.07.07,0,0,1-.05,0,.07.07,0,0,1,0-.06,1.84,1.84,0,0,0,.52-.42,1,1,0,0,1,.73-.4H60c.43.06.53.29.67.61a1.88,1.88,0,0,0,.31.52A.07.07,0,0,1,61,32.36Zm.83-.06a.92.92,0,0,1-.78-.69l0-.08.1.09a.54.54,0,0,0,.34.13.56.56,0,0,0,.34-.12h0a.3.3,0,0,0,.16-.22l1.26.2s0,0,0,0a0,0,0,0,1,0,.06l-.25.18a1.45,1.45,0,0,1-1,.43Zm.85.32a.05.05,0,0,1,0,0,3.09,3.09,0,0,0,.55-.37,1.84,1.84,0,0,1,.59-.34l0,0a.17.17,0,0,1,0,.17.21.21,0,0,1-.14.1h0l0,.67-1-.17S62.64,32.65,62.64,32.62Zm4.71,1.05s0,0,0,0h0c-.84-.25-1.85-.5-3-.73h.2A2.62,2.62,0,0,0,65,32.9a3.13,3.13,0,0,0,.61-.17,3.51,3.51,0,0,0,.83-.44l.52.14h0c.13.1.16.27.19.54a2,2,0,0,0,.17.64A0,0,0,0,1,67.35,33.67Zm.75.08c-.4-.16-.45-.41-.5-.82,0-.08,0-.17,0-.25a0,0,0,0,1,0,0l0,0h0a11.22,11.22,0,0,1,1.86.71s0,0,0,0a.05.05,0,0,1,0,.05l-.26.13a1.55,1.55,0,0,1-.76.27A1,1,0,0,1,68.1,33.75Zm1.77,0-.48.69a.05.05,0,0,1,0,0h0c-.14-.08-.3-.17-.47-.25a.05.05,0,0,1,0,0s0,0,0,0a3.76,3.76,0,0,0,.57-.26,3.38,3.38,0,0,1,.39-.19h0l0,0A.06.06,0,0,1,69.87,33.8Zm2.61-5.09a5.7,5.7,0,0,1-.38,1.73,3.82,3.82,0,0,1-.36.73,4.87,4.87,0,0,1-.46.58,2.28,2.28,0,0,1-1,.68,1.11,1.11,0,0,1-.3,0,.86.86,0,0,1-.49-.15.73.73,0,0,1-.21-.27.17.17,0,0,0,0-.05.7.7,0,0,1,.07-.63.39.39,0,0,1,.26-.17v0a.67.67,0,0,0-.47-.19.55.55,0,0,0-.34.11.82.82,0,0,0-.2.71h0v.06a1.76,1.76,0,0,0,.06.25l0,.08,0,.07a1.29,1.29,0,0,0,.27.36,16.19,16.19,0,0,0-1.74-.57,1.23,1.23,0,0,0-.26-.12h-.06l0,0A5.68,5.68,0,0,0,68,30.54a10.22,10.22,0,0,0,.77-1.7,12.18,12.18,0,0,1,.77-1.72,3.65,3.65,0,0,1,.54-.77,1.32,1.32,0,0,1,.77-.43l.17,0,.28,0,.2.06h0l0,0,0,0,.11.06a1.6,1.6,0,0,1,.53.74,3.43,3.43,0,0,1,.22.93A5.05,5.05,0,0,1,72.48,28.71Z"/><path class="cls-1" d="M43.27,23.19a.82.82,0,1,0,.82-.82A.82.82,0,0,0,43.27,23.19Z"/><path class="cls-1" d="M44.38,24.81a.29.29,0,1,0-.29.29A.29.29,0,0,0,44.38,24.81Z"/><path class="cls-1" d="M44.13,25.55a.82.82,0,1,0,.82.82A.82.82,0,0,0,44.13,25.55Z"/><path class="cls-1" d="M94.45,22c-1.13.05-2,.07-3,.07-1.64,0-2.82,0-3.82-.07a.12.12,0,0,0-.14.11.52.52,0,0,0,0,.25.14.14,0,0,0,.11.1l.79.13c1.64.27,1.85.38,1.85,2.38v.91A3.3,3.3,0,0,1,90,27.59c-.35.43-1.12.64-2.37.64a6.7,6.7,0,0,1-5-2.21,9.21,9.21,0,0,1-1.86-5.93c0-4.81,2.53-7.68,6.77-7.68a4.68,4.68,0,0,1,5,3.71.12.12,0,0,0,.09.1.43.43,0,0,0,.15,0,.63.63,0,0,0,.21,0,.15.15,0,0,0,.09-.14c-.07-1-.14-1.81-.21-2.48,0-.44-.08-.85-.1-1.18a.13.13,0,0,0-.13-.13,12.83,12.83,0,0,1-1.39-.22,18.5,18.5,0,0,0-3.35-.38c-3.4,0-6.16,1-8,3a8.36,8.36,0,0,0-2.3,5.87,8.21,8.21,0,0,0,2.2,5.71C82,28.48,85.19,29,87.5,29a25.61,25.61,0,0,0,4.89-.68,5.68,5.68,0,0,1,1-.19.17.17,0,0,0,.12-.1.14.14,0,0,0,0-.15,2.35,2.35,0,0,1-.5-1.79V24.58c0-1.6.18-1.9,1.21-2l.36-.06a.15.15,0,0,0,.11-.08.58.58,0,0,0,0-.19l0-.11A.14.14,0,0,0,94.45,22Z"/><path class="cls-1" d="M116.4,28.36a3.43,3.43,0,0,1-1.68-.8c-1.2-1-2.42-3-4.44-6.46L110.2,21a.52.52,0,0,1-.11-.44.32.32,0,0,1,.17-.21,4.26,4.26,0,0,0,3-3.87,3.85,3.85,0,0,0-2.16-3.58A10.43,10.43,0,0,0,106.3,12c-2.12,0-4.2.08-5.71.22a.13.13,0,0,0-.12.1.53.53,0,0,0,0,.25.17.17,0,0,0,.12.1l.53.06c1.34.14,1.34.64,1.34,3V25c0,2.77-.27,2.9-1.54,3.06l-.44.06a.14.14,0,0,0-.12.1s0,0,0,.08a.57.57,0,0,0,0,.18.14.14,0,0,0,.14.1q3.38-.14,6.55,0a.15.15,0,0,0,.15-.11,1,1,0,0,0,0-.24.14.14,0,0,0-.12-.11l-.42-.06c-1.28-.16-1.55-.29-1.55-3.06V21.79c0-.65.14-.7.93-.7a1.56,1.56,0,0,1,1.7.93c.26.43.54.94.85,1.49s.77,1.36,1.15,2c1.61,2.45,2.92,3.28,5.18,3.28a7.44,7.44,0,0,0,1.48-.11.14.14,0,0,0,0-.28Zm-6.15-11.72c0,2.5-1.26,3.77-3.77,3.77-1.26,0-1.36-.07-1.36-1V14.13c0-1.29.11-1.39,1.49-1.39A3.66,3.66,0,0,1,110.25,16.64Z"/><path class="cls-1" d="M136,28.15l-.28,0c-1.37-.24-1.52-.48-2.12-2.2L130,15.27c-.21-.59-.4-1.2-.58-1.76s-.35-1.12-.54-1.67a.1.1,0,0,0,0-.05.31.31,0,0,0-.14-.09.12.12,0,0,0-.14,0l0,0A4.47,4.47,0,0,1,127,12.84a.13.13,0,0,0-.1.13,5.44,5.44,0,0,1-.5,1.69l-3.48,9-.22.56c-.43,1.1-.77,2-1,2.54-.39.87-.72,1.14-1.5,1.25l-.63.1a.16.16,0,0,0-.11.1.71.71,0,0,0,0,.25.14.14,0,0,0,.15.12c.86-.05,1.59-.07,2.37-.07l.87,0c.59,0,1.14,0,1.68.05a.14.14,0,0,0,.15-.11,1,1,0,0,0,0-.25.15.15,0,0,0-.12-.11l-.6-.1c-.39-.05-.73-.1-.88-.34s-.06-.69.23-1.55L124.31,23c.22-.66.29-.71,1-.71h3.37c.78,0,.91.05,1.18.78L131,26.57c.17.54.27.95.1,1.2s-.48.29-.87.33l-.41.06a.12.12,0,0,0-.12.12.63.63,0,0,0,0,.24.13.13,0,0,0,.13.1h0l.59,0c.73,0,1.56-.05,2.37-.05,1.19,0,2.09,0,3.14.07a.13.13,0,0,0,.14-.13.49.49,0,0,0,0-.26A.16.16,0,0,0,136,28.15Zm-6.89-6.85c-.12.17-.37.18-.78.18h-2.64c-.38,0-.55,0-.65-.15s-.05-.35.11-.78l1.07-3c.2-.52.35-.94.47-1.25a6.88,6.88,0,0,1,.3-.78.15.15,0,0,1,.12-.07h.06a.13.13,0,0,1,.11.06,9.52,9.52,0,0,1,.69,1.91l1.11,3.18C129.18,20.94,129.22,21.15,129.11,21.3Z"/><path class="cls-1" d="M156.24,24.36s-.05,0-.07.06c-1.1,2.53-2.92,3.81-5.4,3.81-3.27,0-6.79-2.56-6.79-8.19,0-5.27,3.32-7.63,6.61-7.63a4.79,4.79,0,0,1,5,3.71.15.15,0,0,0,.1.09.77.77,0,0,0,.34,0,.15.15,0,0,0,.1-.16c-.18-1.35-.25-2.51-.29-3.21l0-.36a.13.13,0,0,0-.11-.13h0l-.48-.1a19.25,19.25,0,0,0-4.35-.56A11.68,11.68,0,0,0,144,13.81a8.15,8.15,0,0,0-3.14,6.61,7.89,7.89,0,0,0,3.54,6.86A11.4,11.4,0,0,0,150.77,29a15,15,0,0,0,3.92-.61l.23-.06c.18-.05.36-.11.55-.15a.13.13,0,0,0,.1-.06,10.26,10.26,0,0,0,1.11-3.56.15.15,0,0,0-.07-.14A.38.38,0,0,0,156.24,24.36Z"/><path class="cls-1" d="M176.05,25.06a.59.59,0,0,0-.41-.06.18.18,0,0,0-.09.08c-.86,2-1.47,2.74-4.46,2.74h-.3c-2.1,0-2.61-.19-3-.61s-.47-1.27-.47-2.73V21.26c0-.68.06-.83.75-.83h1.22c2.06,0,2.75,0,3,1.23l.15.88a.16.16,0,0,0,.1.11.75.75,0,0,0,.33,0,.14.14,0,0,0,.12-.14c0-.19,0-.38,0-.58,0-.61-.05-1.24-.05-1.93s0-1.4.05-2l0-.37a.15.15,0,0,0-.11-.14.6.6,0,0,0-.35,0,.12.12,0,0,0-.09.1l-.15.74c-.2,1.23-.79,1.23-3,1.23H168.1c-.69,0-.75-.13-.75-.82V14.46c0-1.5,0-1.64,1.23-1.64h1.7a7.2,7.2,0,0,1,2.07.23c.92.23,1.29,1,1.66,2.28a.15.15,0,0,0,.12.1.7.7,0,0,0,.32,0,.15.15,0,0,0,.11-.16c-.06-.49-.12-1.1-.18-1.7s-.11-1.07-.16-1.4a.14.14,0,0,0-.15-.13c-.54,0-1.73.06-3.18.06h-4.84c-1.1,0-2.25,0-3.15-.07a.14.14,0,0,0-.14.11.49.49,0,0,0,0,.24.14.14,0,0,0,.12.11l.27,0c1.35.2,1.54.41,1.54,3.09V25c0,2.67-.21,2.89-1.55,3l-.79.09a.16.16,0,0,0-.13.11.89.89,0,0,0,0,.23.16.16,0,0,0,.15.12h0c1.17-.05,2.69-.07,3.69-.07h2.89c2.83,0,4.94,0,6.08.07a.14.14,0,0,0,.14-.09,17.66,17.66,0,0,0,1-3.33A.15.15,0,0,0,176.05,25.06Z"/><path class="cls-1" d="M281.54,22.36a.69.69,0,1,0-.71-.69A.66.66,0,0,0,281.54,22.36Z"/><path class="cls-1" d="M292.86,22.36a.69.69,0,1,0-.7-.69A.67.67,0,0,0,292.86,22.36Z"/><path class="cls-1" d="M187.87,24.47c-.05,0-.1,0-.1-.09a.11.11,0,0,1,.08-.1,1.57,1.57,0,0,0,1.28-1.42,1.53,1.53,0,0,0-.79-1.46,4.5,4.5,0,0,0-2.23-.39c-.91,0-1.78,0-2.57.09h0a.13.13,0,0,0-.05.11.2.2,0,0,0,0,.15l0,0,.27,0c.57.06.57.25.57,1.31v4.18c0,1.22-.11,1.27-.66,1.34l-.23,0,0,0a.31.31,0,0,0,0,.17.11.11,0,0,0,0,.08l0,0c.48,0,1,0,1.52,0l.63,0h0l.76,0a3.86,3.86,0,0,0,2.58-.64,1.85,1.85,0,0,0,.69-1.5A2,2,0,0,0,187.87,24.47Zm-1.09,3.69c-1,0-1.14-.45-1.14-1.49V25c0-.26.06-.32.55-.32a1.86,1.86,0,0,1,2.1,1.9A1.45,1.45,0,0,1,186.78,28.16Zm-.62-3.84c-.46,0-.52,0-.52-.33V21.92c0-.49.06-.5.63-.5a1.37,1.37,0,0,1,1.48,1.43C187.75,23.87,187.26,24.32,186.16,24.32Z"/><path class="cls-1" d="M195.34,27.3l0,0a1.2,1.2,0,0,1-1.1.56A1.78,1.78,0,0,1,192.45,26c0-.16.05-.17.27-.17h2c.3,0,.69,0,.76-.14a.49.49,0,0,0,.06-.25,1.59,1.59,0,0,0-1.69-1.52,2.41,2.41,0,0,0-2.39,2.51,2.13,2.13,0,0,0,2.18,2.26,2,2,0,0,0,1.9-1.22v0A.21.21,0,0,0,195.34,27.3Zm-1.65-3a.73.73,0,0,1,.78.76.32.32,0,0,1-.13.27,1.39,1.39,0,0,1-.57.08h-1c-.13,0-.19,0-.19-.11A1.19,1.19,0,0,1,193.69,24.31Z"/><path class="cls-1" d="M202,28h0l0,0h0a.69.69,0,0,1-.34.1.48.48,0,0,1-.37-.15,1.16,1.16,0,0,1-.2-.88l.08-1.79a1.33,1.33,0,0,0-.31-1,1.44,1.44,0,0,0-1.08-.37,3.1,3.1,0,0,0-1.74.72c-.36.34-.44.57-.44.71s.07.16.19.16a1.53,1.53,0,0,0,.72-.21c.09-.05.18-.14.2-.39a.59.59,0,0,1,.64-.52.65.65,0,0,1,.48.18,1.28,1.28,0,0,1,.24.93v.29c0,.12,0,.24-.28.33s-.81.3-1.26.45c-.82.29-.93.67-.93,1a1,1,0,0,0,1.14,1.08,1.85,1.85,0,0,0,1-.29l.09,0a.48.48,0,0,1,.23-.11c.06,0,.1,0,.17.11l0,0a1.09,1.09,0,0,0,.8.31,1.6,1.6,0,0,0,1.12-.47h0a.27.27,0,0,0,0-.16S202,28,202,28Zm-2.07-1.3,0,.82a.54.54,0,0,1-.57.58.67.67,0,0,1-.67-.69.76.76,0,0,1,.63-.79,1.94,1.94,0,0,1,.52-.14C199.89,26.5,199.93,26.58,199.93,26.72Z"/><path class="cls-1" d="M208.71,28.05a2.15,2.15,0,0,1-.46.07c-.31,0-.31-.63-.31-1.24V25c0-.43,0-.76,0-.95h0a.09.09,0,0,0-.06-.08h0a6.42,6.42,0,0,1-1.75.19h0s0,.05,0,.11a.16.16,0,0,0,0,.1h0a.05.05,0,0,0,0,.05l.18.05c.43.13.52.18.52.94v1.73c0,.41,0,.53-.14.66a1.19,1.19,0,0,1-.78.29c-.85,0-1-.71-1-1.33V25a5.73,5.73,0,0,1,0-.95h0a.11.11,0,0,0-.08-.08h0a5.86,5.86,0,0,1-1.56.19h0s-.05.07-.05.09a.28.28,0,0,0,0,.09h0a.05.05,0,0,0,0,.05l.16,0c.3.1.35.18.35,1V27.2c0,1.05.4,1.49,1.34,1.49a3.14,3.14,0,0,0,1.54-.54h0c.06,0,.12,0,.14.15a1.6,1.6,0,0,1,0,.41s0,0,0,0a.11.11,0,0,0,.05.09h0a7.22,7.22,0,0,1,1.83-.42h0a.21.21,0,0,0,.1-.19.28.28,0,0,0,0-.13A0,0,0,0,0,208.71,28.05Z"/><path class="cls-1" d="M213.36,27.89h0a.88.88,0,0,1-.54.19c-.45,0-.86-.16-.86-1.38V25c0-.37,0-.42.24-.42h1.09a.36.36,0,0,0,.12-.27.4.4,0,0,0,0-.18s0,0,0,0h-1.13c-.23,0-.24-.05-.24-.24v-.67a0,0,0,0,0,0,0,.28.28,0,0,0-.16-.06h-.06a.05.05,0,0,0,0,0,2,2,0,0,1-.64.71,3.35,3.35,0,0,1-.9.48.15.15,0,0,0-.06.13.66.66,0,0,0,0,.11.05.05,0,0,0,0,0h.4c.2,0,.23,0,.23.44v2.32c0,.73.15,1.4,1.25,1.4a1.79,1.79,0,0,0,1.42-.59,0,0,0,0,0,0,0,.19.19,0,0,0,0-.15A.13.13,0,0,0,213.36,27.89Z"/><path class="cls-1" d="M220.53,24.12v0a0,0,0,0,0,0,0,.05.05,0,0,0,0,0c-.3,0-.61,0-.92,0s-.61,0-1.06,0l0,0a.19.19,0,0,0,0,.09.2.2,0,0,0,0,.15l0,0,.36.08c.14,0,.24.08.24.22a7.22,7.22,0,0,1-.42,1.12l-.34.76c-.29.65-.35.72-.38.73h0s-.11-.1-.4-.89L217,25c-.12-.3-.17-.45-.12-.53s.11-.09.22-.11l.31-.07s0,0,0,0a.21.21,0,0,0,0-.16.2.2,0,0,0,0-.08l0,0c-.38,0-.79,0-1.19,0s-.93,0-1.24,0h0a.12.12,0,0,0-.08.09.23.23,0,0,0,0,.18h0l.2,0c.45.1.53.27.81,1l.92,2.4a2.12,2.12,0,0,1,.2.86,2.91,2.91,0,0,1-.56,1.44.63.63,0,0,1-.5.24h-.26c-.36,0-.55.17-.55.49a.55.55,0,0,0,.6.58.88.88,0,0,0,.84-.6c.47-1,1.47-3.05,1.89-3.87l.58-1.16a4.85,4.85,0,0,1,.7-1.16,1.28,1.28,0,0,1,.59-.24l0,0h0a.31.31,0,0,0,0-.19Z"/><path class="cls-1" d="M233.67,28.28l-.22,0c-.56-.07-.67-.12-.67-1.34V22.66c0-1.21.11-1.26.66-1.33l.18,0h0a.23.23,0,0,0,0-.26s0,0,0,0c-.45,0-1,0-1.45,0l-1.52,0h0l0,0a.16.16,0,0,0,0,.11.16.16,0,0,0,0,.07h0v0s0,.05,0,.05l.25,0c.55.08.66.13.66,1.34v1.39c0,.35-.07.36-.64.36h-2.68c-.57,0-.64,0-.64-.36V22.66c0-1.21.11-1.26.66-1.33l.17,0h0a.19.19,0,0,0,.05-.16.28.28,0,0,0,0-.11l0,0c-.42,0-.93,0-1.43,0s-1,0-1.52,0a.05.05,0,0,0,0,0,.23.23,0,0,0,0,.11v.07h0v0s0,.05,0,.05l.26,0c.55.08.66.13.66,1.34v4.25c0,1.22-.11,1.27-.66,1.35l-.14,0,0,0a.32.32,0,0,0,0,.17.19.19,0,0,0,0,.08.05.05,0,0,0,0,0h0c.41,0,.92,0,1.43,0s1,0,1.57,0h0a.12.12,0,0,0,.05-.1.32.32,0,0,0,0-.17l0,0-.32,0c-.55-.06-.66-.11-.66-1.33V25.23c0-.34.07-.35.64-.35h2.68c.57,0,.64,0,.64.35v1.68c0,1.22-.11,1.27-.66,1.34l-.23,0,0,0a.31.31,0,0,0,0,.17,0,0,0,0,0,0,0h0s0,0,0,0,0,0,.05,0h0c1-.05,2-.05,3,0l0,0a.12.12,0,0,0,0-.09.29.29,0,0,0,0-.16Z"/><path class="cls-1" d="M239,27.3l0,0a1.22,1.22,0,0,1-1.1.56A1.78,1.78,0,0,1,236.08,26c0-.16,0-.17.26-.17h2c.31,0,.69,0,.76-.14a.41.41,0,0,0,.06-.25,1.59,1.59,0,0,0-1.69-1.52,2.4,2.4,0,0,0-2.38,2.51,2.12,2.12,0,0,0,2.18,2.26,2,2,0,0,0,1.89-1.22,0,0,0,0,0,0,0A.22.22,0,0,0,239,27.3Zm-1.66-3a.73.73,0,0,1,.78.76.34.34,0,0,1-.12.27,1.41,1.41,0,0,1-.58.08h-1c-.13,0-.18,0-.18-.11A1.18,1.18,0,0,1,237.31,24.31Z"/><path class="cls-1" d="M245.51,28h0l-.05,0a.81.81,0,0,1-.34.1.48.48,0,0,1-.37-.15,1.16,1.16,0,0,1-.2-.88l.08-1.79a1.33,1.33,0,0,0-.31-1,1.44,1.44,0,0,0-1.08-.37,3.1,3.1,0,0,0-1.74.72c-.36.34-.44.57-.44.71s.07.16.19.16a1.53,1.53,0,0,0,.72-.21c.09-.05.18-.14.2-.39a.59.59,0,0,1,.64-.52.65.65,0,0,1,.48.18,1.28,1.28,0,0,1,.24.93v.29c0,.12,0,.24-.28.33s-.81.3-1.26.45c-.82.29-.93.67-.93,1a1,1,0,0,0,1.14,1.08,1.85,1.85,0,0,0,1-.29l.09,0a.48.48,0,0,1,.23-.11c.06,0,.1,0,.17.11l0,0a1.09,1.09,0,0,0,.8.31,1.6,1.6,0,0,0,1.12-.47h0a.27.27,0,0,0,0-.16S245.52,28,245.51,28Zm-2.07-1.3,0,.82a.54.54,0,0,1-.57.58.67.67,0,0,1-.67-.69.78.78,0,0,1,.63-.79,1.94,1.94,0,0,1,.52-.14C243.4,26.5,243.44,26.58,243.44,26.72Z"/><path class="cls-1" d="M249.42,28.28l-.22,0c-.4-.06-.46-.18-.46-1.05V22.14c0-.51,0-1.21,0-1.63v0a.18.18,0,0,0-.11-.08h0l-.07,0c-.45.18-1,.4-1.42.52h0a.11.11,0,0,0,0,.09.15.15,0,0,0,0,.12l.12.08c.3.18.31.27.31,1v4.9c0,.87-.05,1-.45,1.05l-.22,0,0,0a.32.32,0,0,0,0,.17.19.19,0,0,0,0,.08l0,0c.47,0,.84,0,1.21,0s.78,0,1.26,0h0l0,0a.2.2,0,0,0,0-.08.24.24,0,0,0,0-.17S249.43,28.29,249.42,28.28Z"/><path class="cls-1" d="M254.39,27.89h0a.88.88,0,0,1-.54.19c-.45,0-.86-.16-.86-1.38V25c0-.37,0-.42.24-.42h1.09a.36.36,0,0,0,.12-.27.4.4,0,0,0,0-.18s0,0,0,0h-1.13c-.23,0-.24-.05-.24-.24v-.67a0,0,0,0,0,0,0,.28.28,0,0,0-.16-.06h-.06a.05.05,0,0,0,0,0,2,2,0,0,1-.64.71,3.35,3.35,0,0,1-.9.48.15.15,0,0,0-.06.13.66.66,0,0,0,0,.11l0,0h.4c.2,0,.23,0,.23.44v2.32c0,.73.15,1.4,1.25,1.4a1.79,1.79,0,0,0,1.42-.59,0,0,0,0,0,0,0,.19.19,0,0,0,0-.15A.13.13,0,0,0,254.39,27.89Z"/><path class="cls-1" d="M261.64,28.29l-.24,0c-.4-.06-.45-.18-.45-1.05V25.5c0-1-.51-1.58-1.44-1.58a2.4,2.4,0,0,0-1.45.55h0c-.11,0-.13-.08-.13-.22V22.14c0-.5,0-1.2,0-1.63,0,0,0,0,0,0a.14.14,0,0,0-.1-.08h0l-.25.1a11.89,11.89,0,0,1-1.24.45h0s0,.05,0,.09a.15.15,0,0,0,0,.12l.15.1c.27.16.28.25.28,1v4.9c0,.87,0,1-.46,1.05l-.22,0s0,0,0,0a.27.27,0,0,0,0,.16.11.11,0,0,0,0,.08l0,0c.49,0,.86,0,1.22,0s.79,0,1.18,0l0,0a.11.11,0,0,0,0-.08.27.27,0,0,0,0-.16s0,0,0,0l-.15,0c-.4-.07-.45-.2-.45-1.06V25.67c0-.45,0-.63.14-.77a1.07,1.07,0,0,1,.8-.34c.6,0,.94.37.94,1V27.2c0,.86-.06,1-.46,1.06l-.14,0s0,0,0,0a.21.21,0,0,0,0,.16.2.2,0,0,0,0,.08l0,0c.39,0,.78,0,1.14,0s.79,0,1.28,0h0a.17.17,0,0,0,.06-.1.22.22,0,0,0,0-.16Z"/><path class="cls-1" d="M273.87,26.55l-.1,0s0,0,0,0a2.48,2.48,0,0,1-2.41,1.72c-1.46,0-3-1.14-3-3.65,0-2.34,1.48-3.39,2.94-3.39a2.12,2.12,0,0,1,2.23,1.66l0,0a.31.31,0,0,0,.28,0,0,0,0,0,0,0,0c-.08-.63-.12-1.17-.14-1.49,0-.08,0-.15,0-.21a0,0,0,0,0,0,0h-.06l-.22-.05a9,9,0,0,0-2-.25,5.22,5.22,0,0,0-3.13,1,3.7,3.7,0,0,0-1.43,3A3.57,3.57,0,0,0,268.43,28a5.11,5.11,0,0,0,2.91.77,6.75,6.75,0,0,0,1.77-.28l.11,0,.27-.07h0a4.68,4.68,0,0,0,.52-1.68,0,0,0,0,0,0,0A.22.22,0,0,0,273.87,26.55Z"/><path class="cls-1" d="M278.42,28.28l-.23,0c-.4-.06-.45-.18-.45-1.05V22.14c0-.51,0-1.21,0-1.63,0,0,0,0,0,0a.14.14,0,0,0-.1-.08h0l-.08,0c-.45.17-1,.39-1.41.51h0a.11.11,0,0,0,0,.1.15.15,0,0,0,.05.12l.12.08c.3.18.31.27.31,1v4.9c0,.87-.06,1-.46,1.05l-.21,0,0,0a.32.32,0,0,0,0,.17.11.11,0,0,0,0,.08l0,0c.46,0,.84,0,1.21,0s.78,0,1.25,0h0l0,0a.11.11,0,0,0,0-.08.31.31,0,0,0,0-.17Z"/><path class="cls-1" d="M282.75,28.28l-.18,0c-.4-.06-.46-.18-.46-1.05v-2c0-.49,0-1,0-1.37,0,0,0,0,0,0l-.1-.05h0a6.81,6.81,0,0,1-1.45.6l0,0a.42.42,0,0,0,0,.13h0s0,0,0,.05l.14.09c.3.17.3.33.3.84V27.2c0,.87-.06,1-.46,1.05l-.18,0,0,0a.31.31,0,0,0,0,.17.19.19,0,0,0,0,.08l0,0h0c.42,0,.81,0,1.17,0s.8,0,1.21,0l0,0a.11.11,0,0,0,0-.08.31.31,0,0,0,0-.17Z"/><path class="cls-1" d="M290.1,28.28l-.24,0c-.4-.06-.45-.18-.45-1.05V25.43c0-1-.49-1.51-1.34-1.51a2.28,2.28,0,0,0-1.29.42h0l-.24.14h0a.12.12,0,0,1-.12-.14c0-.08,0-.29,0-.5a0,0,0,0,0,0,0,.11.11,0,0,0-.09-.05h0a7,7,0,0,1-1.44.6s0,0,0,0a.3.3,0,0,0,0,.13v0s0,0,0,0l.14.09c.3.17.3.33.3.84V27.2c0,.87-.06,1-.46,1.05l-.22,0,0,0a.31.31,0,0,0,0,.17.2.2,0,0,0,0,.08l0,0h0c.48,0,.86,0,1.22,0s.79,0,1.18,0l0,0a.19.19,0,0,0,0-.09.29.29,0,0,0,0-.16l0,0-.15,0c-.4-.07-.45-.2-.45-1.06V25.67c0-.43,0-.54.16-.75a1,1,0,0,1,.78-.36c.61,0,.94.37.94,1.06V27.2c0,.86-.06,1-.46,1.06l-.14,0s0,0,0,0a.25.25,0,0,0,0,.17.2.2,0,0,0,0,.08l0,0c.39,0,.77,0,1.14,0s.78,0,1.27,0l0,0a.19.19,0,0,0,0-.09.25.25,0,0,0,0-.15S290.11,28.29,290.1,28.28Z"/><path class="cls-1" d="M294.08,28.28l-.18,0c-.4-.06-.46-.18-.46-1.05v-2c0-.49,0-1,0-1.37a0,0,0,0,0,0,0,.19.19,0,0,0-.1-.05h0a6.71,6.71,0,0,1-1.44.6l0,0a.44.44,0,0,0,0,.13v0s0,0,0,0l.14.09c.29.17.29.33.29.84V27.2c0,.87-.05,1-.45,1.05l-.18,0s0,0,0,0a.24.24,0,0,0,0,.17.2.2,0,0,0,0,.08l0,0h0c.43,0,.81,0,1.18,0s.79,0,1.21,0l0,0a.19.19,0,0,0,0-.08.31.31,0,0,0,0-.17Z"/><path class="cls-1" d="M299.83,27.3s0,0,0,0a1.29,1.29,0,0,1-1.24.59,1.7,1.7,0,0,1-1.66-1.83,1.56,1.56,0,0,1,1.35-1.74,1.44,1.44,0,0,1,1.06.71.24.24,0,0,0,.2.11c.07,0,.26-.15.26-.51a.74.74,0,0,0-.2-.55h0a3.05,3.05,0,0,0-1-.16,2.55,2.55,0,0,0-2.78,2.54A2.17,2.17,0,0,0,298,28.69a2.14,2.14,0,0,0,2-1.19v0A.19.19,0,0,0,299.83,27.3Z"/><path class="cls-1" d="M184.38,14.48c0,.71-.32,1.18-.71,1.18a.22.22,0,0,1-.25-.22c0-.07,0-.13.22-.32a2.39,2.39,0,0,0,.57-1.15c0-.08,0-.12,0-.12S184.38,14.25,184.38,14.48Zm1.41-1.66c0,.06-.16.2-.17.24s-.06,2.68-.06,2.93c0,.57,0,.72.63.72,1,0,1.09-.15,1.34-.85a.82.82,0,0,1,.1-.25,2.48,2.48,0,0,1,0,.27,1.07,1.07,0,0,0,.12.51,1,1,0,0,1,.14.22c0,.27-.5.54-1.58.54s-1.21-.35-1.21-.95c0-.21,0-1.16,0-1.36V13.47c0-.15,0-.49,0-.64s0-.09,0-.16a.22.22,0,0,1,0-.08S185.79,12.72,185.79,12.82Zm-.1-1.1c.49,0,1.47.61,1.47,1a.31.31,0,0,1-.22.33c-.07,0-.13-.05-.27-.27a5.14,5.14,0,0,0-1-1s-.06,0,0-.06Zm3.2,3.46c0,.29-.18.53-.37.53s-.2-.17-.2-.25a2.24,2.24,0,0,0-.14-1.06,4.79,4.79,0,0,0-.3-.68.17.17,0,0,1,0-.09A2.17,2.17,0,0,1,188.89,15.18Z"/><path class="cls-1" d="M193.77,12.67s-.08,0-.08,0,0,0,.07.08.14.12.14.17a.09.09,0,0,1,0,0l-.14.05a3.9,3.9,0,0,0-.4.31c-.12.09-.14.1-.14.14s0,.06.07.08a6.17,6.17,0,0,0,1.86.41l.33,0s0,0-.13.08a.92.92,0,0,0-.28.24c-.09.13-.1.14-.15.14a9.24,9.24,0,0,1-1.44-.44,3.73,3.73,0,0,0-.68-.28.48.48,0,0,0-.17.05l-.38.16a7.44,7.44,0,0,1-2.43.38c-.15,0-.17,0-.17,0s0,0,.07,0a5.34,5.34,0,0,0,2.64-.81s0-.05-.12-.13a3.8,3.8,0,0,1-.47-.49c-.14-.17-.15-.19-.35-.19h-.26c-.15,0-.58,0-.8,0l-.13,0s0,0-.06,0l-.12-.15,0,0h0l.28,0,.87,0h1.05c.18,0,.2-.06.2-.19a1.38,1.38,0,0,0,0-.46s0-.12,0-.14,0,0,.06,0a2.06,2.06,0,0,1,.32.07c.27.08.3.08.3.15a.91.91,0,0,1-.07.14.41.41,0,0,0-.07.27c0,.18.09.19.2.19h1.08a1.16,1.16,0,0,0,.31,0c.06,0,.26-.35.34-.35a2.27,2.27,0,0,1,.57.45c0,.08-.14.08-.34.08Zm-.71,2.79c-.05,0-.17,0-.18.1s0,.71,0,.85c0,.44,0,.58-.13.72a.49.49,0,0,1-.37.19s-.1,0-.1-.08,0-.24-.19-.33c0,0-.15-.05-.15-.08s0,0,.11,0c.28,0,.36,0,.4-.11s0-.23,0-.51c0-.73,0-.73-.17-.73h-.89c-.14,0-.16,0-.17.15a2.23,2.23,0,0,1-.3.93,1.59,1.59,0,0,1-.91.7,2.32,2.32,0,0,1,.22-.21,2.6,2.6,0,0,0,.62-2.08,1.9,1.9,0,0,0,0-.38,1.8,1.8,0,0,1-.05-.19c0-.05,0-.07.06-.07l.4.09a.09.09,0,0,1,.08.09v.09c0,.05,0,.05.08.05H194s.1,0,.1-.06,0-.11,0-.12,0,0,0,0,.54.18.54.26,0,0,0,.1a.21.21,0,0,0,0,.13c0,.34,0,.91,0,1.26,0,.09,0,.86,0,.9s0,.15-.06.18a.56.56,0,0,1-.26.09c-.13,0-.13-.05-.13-.51,0-.25,0-1,0-1.23s-.1-.14-.17-.14Zm-1.9,1.33a2.93,2.93,0,0,0,.48-1c0-.19,0-.22.06-.22s.48.22.48.32,0,0-.14.1a3.63,3.63,0,0,0-.27.34,2.58,2.58,0,0,1-.68.53S191.14,16.82,191.16,16.79Zm2.82-1.5c.11,0,.17,0,.17-.15,0-.33-.05-.34-.18-.34h-2.54c-.17,0-.17.06-.17.33s.1.16.17.16Zm-2.1-2.62s-.08,0-.08.05a2.19,2.19,0,0,0,.86.57c.13,0,.64-.42.64-.55s-.07-.07-.11-.07Zm1.62,3.25c.47.27.48.43.48.59s0,.31-.21.31-.19-.05-.34-.51a2.21,2.21,0,0,0-.25-.48s0-.05,0-.05S193.46,15.9,193.5,15.92Z"/><path class="cls-1" d="M200.72,12.88c.28,0,.34,0,.41-.11s.15-.22.21-.22.09,0,.43.29c.1.08.11.08.11.11s-.12.09-.33.09h-1s0,0,0,0a2.61,2.61,0,0,0,1.23.87c.14,0,.24.07.24.1s-.05,0-.06,0a.72.72,0,0,0-.32.13s-.11.11-.13.11-.5-.39-.55-.39a.23.23,0,0,0-.17.15s0,.32,0,.53-.13.21-.29.21-.11,0-.16-.14-.05,0-.16,0h-.63a.15.15,0,0,0-.15.07.32.32,0,0,1-.27.15.15.15,0,0,1-.15-.17c0-.11,0-.66,0-.78s0,0,0,0,0,0-.06,0a2.59,2.59,0,0,1-.46.37c-.06,0-.2.12-.21.17s-.07.2-.18.2-.16-.11-.21-.35a.74.74,0,0,0-.3-.47c-.06,0-.06.06-.06.1s0,.16,0,.19v.8c0,.3,0,1.73,0,2.06,0,.12,0,.17-.07.23a.39.39,0,0,1-.27.11c-.07,0-.14,0-.14-.1s0-.34,0-.41.07-2.06.07-2.18,0-.05,0-.05,0,0-.06.11a3.62,3.62,0,0,1-.79,1.22s0,0,0,0,.34-.77.39-.91a8.17,8.17,0,0,0,.45-1.62c0-.17-.11-.17-.18-.17a3.6,3.6,0,0,0-.41,0h-.13s0,0-.05,0l-.12-.14a.09.09,0,0,1,0,0h0l.79,0c.18,0,.18-.12.18-.22s0-.47,0-.68c0-.06,0-.34,0-.4s0,0,0,0,.57.09.57.18a1.18,1.18,0,0,1-.13.18s0,0,0,.18,0,.57,0,.64,0,.15.08.15.07,0,.1-.09.11-.2.14-.2a1.78,1.78,0,0,1,.46.37c0,.09-.12.09-.33.09h-.33c-.14,0-.14,0-.14.34,0,.12,0,.13.14.2a1.36,1.36,0,0,1,.52.41s.06.1.09.1.33-.29.42-.4a2.62,2.62,0,0,0,.45-.71c0-.08-.08-.08-.2-.08l-.44,0s0,0-.06,0l-.12-.14s0,0,0-.05h0l.22,0,.59,0c.09,0,.12,0,.15,0a1,1,0,0,0,.11-.33c0-.08,0-.08-.24-.08h-.33c-.27,0-.3,0-.3,0s.19-.06.25-.07a6.71,6.71,0,0,0,1.81-.51.55.55,0,0,1,.14-.09s.49.32.49.41,0,0-.16,0-1,.16-1.09.17-.22.42-.22.43.1.1.15.1Zm-1.8,2.47a.19.19,0,0,0-.19.09s0,.59,0,.68,0,.89,0,.92c0,.24-.28.3-.34.3s-.12,0-.12-.1a2.24,2.24,0,0,1,0-.24c0-.26,0-1.29,0-1.64,0,0,0-.29,0-.35s0-.08,0-.08a4.36,4.36,0,0,1,.42.23.85.85,0,0,0,.2,0h1.93c.1,0,.14,0,.17,0s.15-.17.19-.17a1.38,1.38,0,0,1,.43.32.14.14,0,0,1-.08.1.63.63,0,0,0-.09.14c0,.06,0,1,0,1.2s0,.31-.08.39a.7.7,0,0,1-.41.19l-.06,0a2.85,2.85,0,0,0-.18-.28s-.17-.11-.17-.15h0l.27,0c.11,0,.19,0,.2-.13s0-1,0-1.12,0-.27-.19-.27Zm.77,1.26a.15.15,0,0,0-.15.08c0,.12-.06.21-.27.21s-.15-.08-.14-.17v-.8s0-.2,0-.23,0-.07,0-.07l.34.14a.45.45,0,0,0,.27.06H200c.17,0,.18,0,.25-.08s.11-.1.14-.1.43.23.43.3-.13.14-.15.18,0,.1,0,.43a.27.27,0,0,1-.27.29c-.07,0-.1,0-.12-.11s0-.13-.14-.13Zm.41-2.91c.17,0,.22,0,.28,0l.09-.07c.05,0,.24.11.27.11h0l-.32-.53c-.05-.1-.06-.12-.17-.12h-.6c-.1,0-.11,0-.2.17s-.27.39-.27.4.1.09.29.09Zm-.56.17c-.19,0-.19.1-.19.24,0,.29,0,.36.19.36h.67c.19,0,.19-.09.19-.38,0-.11,0-.22-.18-.22Zm.1,2.12c-.16,0-.16,0-.16.3s.1.15.16.15h.48c.16,0,.17-.07.17-.24s0-.21-.16-.21Z"/><path class="cls-1" d="M204.84,12.55c0-.06.09-.06.14-.06a.59.59,0,0,1,.59.35c0,.07-.07.15-.19.31s0,.07,0,.1.07.05.1.05a3.57,3.57,0,0,0,.95-.25,1.32,1.32,0,0,1,.3-.1s.09,0,.34.17l.24.13a.21.21,0,0,1,.12.15c0,.09,0,.12-.26.24-.06,0-.09.08-.31.42a7.5,7.5,0,0,1-2.25,2.36,4.16,4.16,0,0,1-1.25.61.06.06,0,0,1-.06-.06s0,0,.22-.14a7.89,7.89,0,0,0,3.11-3.4s-.05-.06-.07-.06-.88.19-1,.19l-.25,0c-.12,0-.13,0-.39.32a4.72,4.72,0,0,1-.86.81,1.74,1.74,0,0,1-.6.33s0,0,0,0a4.5,4.5,0,0,1,.49-.47c.51-.51,1.11-1.38,1.06-1.76A1.8,1.8,0,0,1,204.84,12.55Zm3,.21c0,.11-.07.25-.18.25s-.14,0-.33-.27a1.87,1.87,0,0,0-.45-.37s-.09-.07-.09-.09.05-.06.1-.06C207.66,12.22,207.8,12.69,207.8,12.76Zm.15-.95c.26.15.26.3.26.36a.16.16,0,0,1-.16.18c-.13,0-.19-.06-.33-.2a1.33,1.33,0,0,0-.58-.31c-.06,0-.08-.05-.08-.07s.16-.09.23-.09A1.16,1.16,0,0,1,208,11.81Z"/><path class="cls-1" d="M210.16,13.77a7.08,7.08,0,0,0,0,1.18c0,.19,0,.34.21.34a8.24,8.24,0,0,0,3-1.64c.09-.08.1-.09.15-.09a.05.05,0,0,1,.05,0A7.9,7.9,0,0,1,211,15.49c-.73.38-.78.42-.91.58s-.05.05-.07.05-.43-.3-.43-.47a2,2,0,0,1,.06-.3,5,5,0,0,0,0-.81c0-.83,0-1-.16-1.29a1,1,0,0,1-.14-.25s0,0,.06,0,.79.13.79.38A4.19,4.19,0,0,1,210.16,13.77Z"/><path class="cls-1" d="M218.34,14.24h.13c.34,0,.39.23.39.27s-.23.2-.47.2h-.81c-.78,0-2.07.08-2.21.11s-.37.11-.44.11c-.24,0-.5-.39-.5-.6,0,0,0-.08,0-.08a1.54,1.54,0,0,1,.19.08,2.83,2.83,0,0,0,.69.06C215.54,14.38,217.52,14.29,218.34,14.24Z"/><path class="cls-1" d="M222.81,13.28l-1.39.32s-.24.12-.29.12a1.2,1.2,0,0,1-.42-.23,1.11,1.11,0,0,1-.15-.36s0-.05,0-.05l.17,0a1,1,0,0,0,.33.06,8.78,8.78,0,0,0,1.72-.23,3,3,0,0,1,.35-.19c.15,0,.53.32.53.47s-.23.23-.27.27-.62.89-.72,1a.21.21,0,0,0,0,.13c0,.06,0,.07.28.21s1.4.8,1.4,1.37a.27.27,0,0,1-.25.28c-.15,0-.17-.05-.39-.43a2.92,2.92,0,0,0-1.13-1.24c-.06,0-.08,0-.22.17a6.16,6.16,0,0,1-1.68,1.35,1.55,1.55,0,0,1-.39.14,0,0,0,0,1,0,0,2.67,2.67,0,0,1,.29-.23,6.81,6.81,0,0,0,2.37-2.91A.08.08,0,0,0,222.81,13.28Z"/><path class="cls-1" d="M226.78,12.73a.25.25,0,0,1,.11.16c0,.06-.1.31-.11.36,0,.22,0,.78,0,1a.1.1,0,0,0,.11.12c.13,0,1.5-.67,1.5-1,0,0,0-.21,0-.23s0,0,.08,0a.65.65,0,0,1,.65.52c0,.15-.09.17-.27.2s-.71.32-.83.37l-1.14.43c-.08.05-.08.08-.08.32,0,.82.12,1,1,1a4.42,4.42,0,0,0,.91-.11,3.39,3.39,0,0,1,.44-.08.24.24,0,0,1,.25.22c0,.47-1.21.47-1.6.47-1.3,0-1.33-.56-1.33-1.45,0-.23,0-1.21,0-1.42a1.93,1.93,0,0,0-.16-.88c-.1-.18-.11-.19-.11-.21s.09,0,.14,0S226.51,12.51,226.78,12.73Zm3.18.37c0,.08-.07.24-.19.24s-.15-.06-.32-.3a2,2,0,0,0-.42-.4s-.09-.07-.09-.1.06,0,.12,0C229.54,12.49,230,12.84,230,13.1Zm.52-.63c0,.08,0,.19-.15.19s-.21-.09-.34-.23a1.41,1.41,0,0,0-.56-.33c-.06,0-.08,0-.08-.07s.16-.08.24-.08C230.36,12,230.48,12.35,230.48,12.47Z"/><path class="cls-1" d="M232.37,14.46a7.61,7.61,0,0,0,1.29-.26,1.76,1.76,0,0,1,.2-.09c.18,0,.49.25.49.34s-.14.19-.16.22a4.78,4.78,0,0,0-.22,1.21s0,.09.1.09.61-.12.71-.12c.26,0,.66.19.66.42,0,.07,0,.16-.14.16l-.35-.07a2.52,2.52,0,0,0-.64-.07,12.58,12.58,0,0,0-2.37.26,2.76,2.76,0,0,1-.27.08c-.06,0-.52-.22-.52-.56,0,0,0,0,0,0l.16,0a1.69,1.69,0,0,0,.45.08c.16,0,1.59-.11,1.66-.14s.09-.1.1-.24.16-1.11.16-1.12-.06-.1-.09-.1a10.05,10.05,0,0,0-1,.27,2,2,0,0,1-.22.08c-.15,0-.37-.29-.37-.41s0,0,.05,0Z"/><path class="cls-1" d="M240.4,14.24h.13c.34,0,.39.23.39.27s-.23.2-.47.2h-.81c-.78,0-2.07.08-2.21.11s-.37.11-.44.11c-.25,0-.51-.39-.51-.6,0,0,0-.08.05-.08a1.54,1.54,0,0,1,.19.08,2.83,2.83,0,0,0,.69.06C237.6,14.38,239.58,14.29,240.4,14.24Z"/><path class="cls-1" d="M244.79,14.54s-.15.16-.17.19-.26.61-.31.71a3.1,3.1,0,0,1-1.67,1.62,0,0,0,0,1,0,0s.28-.27.33-.32a4.21,4.21,0,0,0,1.23-2.36c0-.08,0-.19-.15-.19a6.86,6.86,0,0,0-1,.19c-.07,0-.38.11-.45.11a.55.55,0,0,1-.5-.48s0-.06.05-.06l.09,0a2.46,2.46,0,0,0,.4,0c.4,0,2-.17,2.46-.24.08,0,.41-.11.48-.11s.79.14.79.4a.16.16,0,0,1-.18.15l-.44-.06-.45,0a5.28,5.28,0,0,0-.64,0,.07.07,0,0,0,0,.09A1.7,1.7,0,0,1,244.79,14.54Zm-1.39-1.85a4.24,4.24,0,0,0,.89-.15,2.36,2.36,0,0,1,.5-.08c.13,0,.36,0,.36.21s-.11.19-.48.23-.74.12-.83.14l-.3.06c-.31,0-.5-.44-.47-.46Z"/><path class="cls-1" d="M249.37,14.51c.1.07.24.13.24.21s-.06.18-.07.22a8,8,0,0,0,0,.9c0,.16,0,.36,0,.6,0,.07,0,.39,0,.46s0,.23-.14.23-.31-.24-.31-.37a1.42,1.42,0,0,1,0-.22,8.64,8.64,0,0,0,.07-1.08c0-.16,0-.69-.13-.69s0,0-.13.1a4.69,4.69,0,0,1-1.41.94,0,0,0,0,1,0,0,1.26,1.26,0,0,1,.26-.24,5.16,5.16,0,0,0,1.73-2.15.31.31,0,0,0,0-.15l-.05-.1a.07.07,0,0,1,.06-.07c.07,0,.61.22.61.44a.16.16,0,0,1-.05.11.94.94,0,0,0-.2.2,7.1,7.1,0,0,1-.49.65A.09.09,0,0,0,249.37,14.51Z"/><path class="cls-1" d="M255.76,14.24h.13c.34,0,.4.23.4.27s-.24.2-.47.2H255c-.78,0-2.08.08-2.22.11s-.37.11-.44.11c-.24,0-.5-.39-.5-.6,0,0,0-.08,0-.08a1.67,1.67,0,0,1,.2.08,2.7,2.7,0,0,0,.69.06C253,14.38,254.94,14.29,255.76,14.24Z"/><path class="cls-1" d="M260.57,13.62a10,10,0,0,0,1.81,1.65c.08.06.42.26.48.3s.19.16.19.28,0,.18-.25.18-.51,0-1.52-1.07c-.19-.2-.68-.75-.85-1-.33-.43-.41-.47-.5-.47s-.17.07-.76.61a3.16,3.16,0,0,0-.52.54.4.4,0,0,1-.32.19c-.1,0-.21,0-.52-.36a.22.22,0,0,1-.08-.2s0-.07,0-.07l.19,0a2.31,2.31,0,0,0,1.21-.6c.34-.3.56-.48.76-.48S260.41,13.42,260.57,13.62Z"/><path class="cls-1" d="M265.23,14.85a2.16,2.16,0,0,1-1.16,1.2s0,0,0,0a2.08,2.08,0,0,1,.25-.34,3.33,3.33,0,0,0,.76-1.84,1.43,1.43,0,0,0-.11-.54.52.52,0,0,1,0-.11s0,0,0,0,.71.21.71.53C265.66,13.71,265.34,14.62,265.23,14.85Zm1,.59a1.85,1.85,0,0,1,0-.23c0-.12,0-.61,0-.77a3.63,3.63,0,0,0-.12-1.18,2.09,2.09,0,0,1-.08-.23s0,0,0,0,.69.11.69.44c0,.08-.09.4-.1.47s-.05.93-.05,1.14,0,.21.12.21a3.74,3.74,0,0,0,1.37-1c.11-.1.64-.67.66-.67a0,0,0,0,1,0,0,5.27,5.27,0,0,1-1.46,1.79,5.14,5.14,0,0,0-.44.4c-.1.12-.16.17-.2.17S266.25,15.61,266.25,15.44Z"/><path class="cls-1" d="M272.4,13.28s-1.37.31-1.4.32-.24.12-.28.12a1.36,1.36,0,0,1-.43-.23,1.38,1.38,0,0,1-.15-.36s0-.05,0-.05l.16,0a1,1,0,0,0,.34.06A8.88,8.88,0,0,0,272.4,13a2.9,2.9,0,0,1,.34-.19c.15,0,.54.32.54.47s-.23.23-.27.27-.62.89-.72,1a.22.22,0,0,0-.06.13c0,.06,0,.07.28.21s1.41.8,1.41,1.37a.27.27,0,0,1-.26.28c-.14,0-.17-.05-.39-.43a2.87,2.87,0,0,0-1.12-1.24c-.07,0-.08,0-.22.17a6.16,6.16,0,0,1-1.68,1.35,1.55,1.55,0,0,1-.39.14,0,0,0,0,1,0,0s.25-.2.28-.23a6.81,6.81,0,0,0,2.37-2.91A.07.07,0,0,0,272.4,13.28Z"/><path class="cls-1" d="M276.71,12.47c0-.06.09-.06.14-.06a.58.58,0,0,1,.58.35c0,.08-.06.16-.19.32a.19.19,0,0,0-.05.1c0,.05.08.05.1.05a3.6,3.6,0,0,0,1-.25.91.91,0,0,1,.29-.1c.06,0,.09,0,.35.16l.23.13a.22.22,0,0,1,.12.16c0,.09,0,.11-.25.24s-.09.08-.31.42a7.72,7.72,0,0,1-2.25,2.36,4.27,4.27,0,0,1-1.25.6.06.06,0,0,1-.06-.05s0,0,.21-.15a7.82,7.82,0,0,0,3.11-3.39.07.07,0,0,0-.07-.07s-.87.19-1,.19h-.24c-.12,0-.13,0-.4.31a4.82,4.82,0,0,1-.85.82,2.2,2.2,0,0,1-.6.33,0,0,0,0,1-.05,0,6.07,6.07,0,0,1,.5-.47c.51-.51,1.1-1.38,1.05-1.75C276.75,12.64,276.71,12.5,276.71,12.47Z"/><path class="cls-1" d="M281.1,12.46c.15,0,.5.22.5.33s0,.17,0,.2c0,.73,0,1.3,0,1.45s0,.39,0,.45-.14.32-.23.32-.29-.33-.29-.49,0-.27,0-.32c0-.28,0-.53,0-.64,0-.7,0-.85-.23-1.07-.05-.06-.08-.1-.08-.15S281,12.46,281.1,12.46Zm1.73-.18-.08-.12s0,0,.18,0c.38,0,.69.16.69.32s-.05.18-.06.25,0,1.12-.05,1.33a4,4,0,0,1-1.57,2.92,2.59,2.59,0,0,1-.57.37,0,0,0,0,1,0,0,6.76,6.76,0,0,1,.48-.51,4.56,4.56,0,0,0,1.26-3.64A1.24,1.24,0,0,0,282.83,12.28Z"/><path class="cls-1" d="M286.15,15.44a11.82,11.82,0,0,0,1.78-.14c.17,0,.89-.16,1-.16s.95.13.95.43c0,.14-.25.18-.36.18l-.34-.05a4.93,4.93,0,0,0-.71,0c-.53,0-1.85.15-2.2.2l-.55.12a1.1,1.1,0,0,1-.44-.23,1,1,0,0,1-.19-.41c0-.05,0-.06.06-.06h.06A2.17,2.17,0,0,0,286.15,15.44Zm.37-2c.2,0,1.1-.12,1.35-.17.09,0,.48-.09.55-.09.29,0,.56.15.56.32s-.23.17-.92.2c-.24,0-1.45.18-1.51.18a.47.47,0,0,1-.33-.2,1.7,1.7,0,0,1-.17-.23s.05,0,.08,0Z"/><path class="cls-1" d="M291.94,15.07a.23.23,0,0,1-.22.24c-.14,0-.18-.14-.22-.28a2.23,2.23,0,0,0-.37-.63c0-.05,0-.07,0-.09s0-.05.08-.05S291.94,14.57,291.94,15.07Zm1.94-1.29s0,0,0-.06,0,0,.05,0a1.12,1.12,0,0,1,.28.16c.1.05.35.2.35.38s0,.06-.13.12a5.14,5.14,0,0,0-.32.54,5.55,5.55,0,0,1-2.56,2.22s0,0,0,0a3.1,3.1,0,0,1,.35-.27,4.87,4.87,0,0,0,2.07-2.74A.67.67,0,0,0,293.88,13.78Zm-1,.61c0,.18-.1.32-.22.32s-.17-.16-.19-.26a1.78,1.78,0,0,0-.23-.6s-.07-.11-.07-.14,0,0,.07,0A.8.8,0,0,1,292.9,14.39Z"/><path class="cls-1" d="M297.47,12.47c0-.06.09-.06.14-.06a.58.58,0,0,1,.58.35c0,.08-.06.16-.19.32a.19.19,0,0,0-.05.1c0,.05.08.05.1.05a3.6,3.6,0,0,0,1-.25.84.84,0,0,1,.29-.1c.06,0,.09,0,.35.16l.23.13a.22.22,0,0,1,.12.16c0,.09,0,.11-.25.24s-.1.08-.32.42a7.66,7.66,0,0,1-2.24,2.36,4.53,4.53,0,0,1-1.25.6s-.06,0-.06-.05,0,0,.21-.15a7.82,7.82,0,0,0,3.11-3.39.07.07,0,0,0-.07-.07s-.88.19-1,.19h-.24c-.12,0-.13,0-.4.31a4.82,4.82,0,0,1-.85.82,2.07,2.07,0,0,1-.61.33,0,0,0,0,1,0,0,6.07,6.07,0,0,1,.5-.47c.51-.51,1.1-1.38,1.05-1.75C297.51,12.64,297.47,12.5,297.47,12.47Z"/></g></g></svg>