<svg xmlns="http://www.w3.org/2000/svg" viewBox="0 0 170 148.78"><defs><style>.cls-1{fill:#afa276;}</style></defs><title>h__logo</title><g id="レイヤー_2" data-name="レイヤー 2"><g id="logo"><path class="cls-1" d="M84.45,57a.55.55,0,1,1,.55.55A.55.55,0,0,1,84.45,57Zm-3.81,3c.4-3.38,3.53-3.3,4.36-1.42.83-1.88,4-2,4.36,1.42s3.11,4.46,5.37,3.47c-.26,1.78-4.25,3.07-5.8,1.38s-.26-4.26-1.45-5.45A1.61,1.61,0,0,0,86.12,59h0c-.38.07-.87.33-.87,1.28a2.57,2.57,0,0,0,.8,1.92l2.43,2.43v1.22l-2.86,2.86H84.39l-2.86-2.86V64.6L84,62.17a2.57,2.57,0,0,0,.8-1.92c0-1-.49-1.21-.87-1.28h0a1.61,1.61,0,0,0-1.36.49c-1.19,1.19.1,3.77-1.45,5.45s-5.54.4-5.8-1.38C77.53,64.52,80.23,63.53,80.64,60.06Zm3.92,2.08-2.63,2.63v.88l2.63,2.63h.88l2.63-2.63v-.88l-2.63-2.63Zm-1.8,3.43,1.88,1.88h.72l1.88-1.88v-.72L85.36,63h-.72l-1.88,1.88ZM23.63,32.8A3.67,3.67,0,1,0,20,29.14,3.66,3.66,0,0,0,23.63,32.8Zm-.82,1.38a13.57,13.57,0,0,1-1.52-.2,5.62,5.62,0,0,0,2.42,2.55A8.4,8.4,0,0,1,26.35,39s0,0,0-.06c-.07-2-.43-3.4-1-3.91A3.81,3.81,0,0,0,22.81,34.18Zm44,29.41a1.92,1.92,0,1,0-1.92-1.91A1.92,1.92,0,0,0,66.77,63.59ZM66.19,58a.68.68,0,1,0,.68-.67A.67.67,0,0,0,66.19,58Zm.68-1.86A1.92,1.92,0,1,0,65,54.24,1.92,1.92,0,0,0,66.87,56.16Zm0-4.84a.68.68,0,1,0-.68-.68A.67.67,0,0,0,66.87,51.32Zm76.79-12.39s0,0,0,.06a8.4,8.4,0,0,1,2.64-2.46A5.62,5.62,0,0,0,148.71,34a13.57,13.57,0,0,1-1.52.2,3.81,3.81,0,0,0-2.53.84C144.09,35.53,143.73,36.92,143.66,38.93Zm2.71-6.13a3.67,3.67,0,1,0-3.66-3.66A3.67,3.67,0,0,0,146.37,32.8ZM103.13,50a.68.68,0,1,0,.68.67A.67.67,0,0,0,103.13,50ZM170,67.18a16.34,16.34,0,0,1-.74,4.23,12,12,0,0,1-.78,1.87,8.38,8.38,0,0,1-1,1.57,8.16,8.16,0,0,1-1.71,1.57,3.2,3.2,0,0,0-1.33,1.5l.29.19.08.07.05.07,0,.09,0,.08v.19a.94.94,0,0,0,0,.09l0,.07-2.05,2.93a.49.49,0,0,1-.39.2.46.46,0,0,1-.27-.09c-5.89-4.12-34.64-8.49-76.32-8.49H84.23c-41.68,0-70.43,4.37-76.32,8.49a.46.46,0,0,1-.27.09.49.49,0,0,1-.39-.2l-2-2.93,0,0a.39.39,0,0,1,0-.06l0,0v-.19l0-.08,0-.09,0-.07.07-.06.3-.2a3.2,3.2,0,0,0-1.33-1.5,8.16,8.16,0,0,1-1.71-1.57,8.38,8.38,0,0,1-1-1.57,12,12,0,0,1-.78-1.87A16.34,16.34,0,0,1,0,67.18,12,12,0,0,1,.6,62.63,4.37,4.37,0,0,1,2,60.6l.27-.18.15-.08.15-.07c.19-.08.39-.15.58-.21a3.6,3.6,0,0,1,1-.15h.25A4.18,4.18,0,0,1,6.72,61,9.63,9.63,0,0,1,8,62.41a.4.4,0,0,0,.32.16l.11,0a.4.4,0,0,0,.28-.36,6,6,0,0,1,3.15-5.11.4.4,0,0,0,.19-.27.36.36,0,0,0-.08-.33q-.16-.19-.33-.42a10.85,10.85,0,0,1-1.28-2.15,7.92,7.92,0,0,1-.73-3.25,5.59,5.59,0,0,1,.06-.8l0-.19.08-.33,0-.16a2.61,2.61,0,0,1,.16-.47l.07-.19a2.88,2.88,0,0,1,.13-.31l.33-.56.16-.21.17-.23L11,47.1l0,0,.19-.21A6.22,6.22,0,0,1,13,45.55,5.66,5.66,0,0,1,15.25,45h.28a7,7,0,0,1,2.08.35,8,8,0,0,1,.92.36l.2.08.08.05a10,10,0,0,1,.92.51l.14.09a9.53,9.53,0,0,1,.84.57l.49.37.72.61.13.11.4.37.82.75,2,1.81,3.65,3.36.07,0a.87.87,0,0,0,.61.26,1,1,0,0,0,.84-.53,1.15,1.15,0,0,0-.15-1.21,22.6,22.6,0,0,1-3-5.56A16.88,16.88,0,0,1,26.18,43a4.67,4.67,0,0,0-.6-1.78,5.1,5.1,0,0,1-.39-.88.39.39,0,0,0-.34-.27h-.09c-1.66-.14-3.52-.3-4.82-2.61a16.71,16.71,0,0,0,1.67.23c1.79.18,3.2.32,4.24,2.48a.42.42,0,0,0,.36.22h0a.41.41,0,0,0,.35-.28l.1-.35a.38.38,0,0,0,0-.31l-.14-.25.09.05a.35.35,0,0,0,.14,0,.39.39,0,0,0,.29-.13l.18-.2a.38.38,0,0,0,.1-.29A11.26,11.26,0,0,1,28.14,33a8.51,8.51,0,0,0,.67-2.47c.11.22.22.44.32.66a.41.41,0,0,0,.36.23l.12,0c1.84-.58,4.44-2.7,7-4.75l.3-.25a22.23,22.23,0,0,1,15.27-5.81c.71,0,1.44,0,2.17.09a25.62,25.62,0,0,1,15.61,6.75,5.9,5.9,0,0,1,2.83-2.9A20.76,20.76,0,0,0,66.14,22s5.35-1.48,8.88.7a2.27,2.27,0,0,0,.49-2.54h-.17a2.22,2.22,0,1,1,0-4.43,2.16,2.16,0,0,1,.62.09,3.08,3.08,0,0,1,2.83-1.6c2.54.37,1.57,3.11,2.11,4.45a2.28,2.28,0,0,0,2.61,1.07c0-1.06.45-1.86,1.13-2.06a1.3,1.3,0,0,1-.94-1.25,1.26,1.26,0,0,1,.21-.71l-2.24-1.87c-.69,0-2.75.09-3.45-.5a2,2,0,0,1,2.57-3.06c.7.59,1,2.62,1.09,3.31l2.24,1.88a1.31,1.31,0,0,1,.72-.34V12.24c-.47-.51-1.84-2.05-1.84-3a2,2,0,0,1,1.12-1.79,3.8,3.8,0,1,1,1.76,0A2,2,0,0,1,87,9.28c0,.91-1.37,2.45-1.84,3v2.92a1.31,1.31,0,0,1,.72.34l2.24-1.88c.09-.69.39-2.72,1.09-3.31a2,2,0,0,1,2.57,3.06c-.7.59-2.76.53-3.45.5l-2.24,1.87a1.26,1.26,0,0,1,.21.71,1.3,1.3,0,0,1-.94,1.25c.68.2,1.09,1,1.13,2.06a2.27,2.27,0,0,0,2.61-1.07c.54-1.34-.43-4.08,2.11-4.45A3.08,3.08,0,0,1,94,15.84a2.16,2.16,0,0,1,.62-.09,2.22,2.22,0,1,1,0,4.43h-.17A2.27,2.27,0,0,0,95,22.71c3.53-2.18,8.88-.7,8.88-.7a20.76,20.76,0,0,0-6.61,2.56,5.9,5.9,0,0,1,2.83,2.9,25.62,25.62,0,0,1,15.61-6.75c.73-.06,1.46-.09,2.17-.09a22.23,22.23,0,0,1,15.27,5.81l.3.25c2.52,2,5.12,4.17,7,4.75l.12,0a.41.41,0,0,0,.36-.23c.1-.22.21-.44.32-.66a8.51,8.51,0,0,0,.67,2.47,11.26,11.26,0,0,1,.83,5.65.38.38,0,0,0,.1.29l.18.2a.39.39,0,0,0,.29.13.35.35,0,0,0,.14,0l.09-.05-.14.25a.38.38,0,0,0,0,.31l.1.35a.41.41,0,0,0,.35.28h0a.42.42,0,0,0,.36-.22c1-2.16,2.45-2.3,4.24-2.48a16.71,16.71,0,0,0,1.67-.23c-1.3,2.31-3.16,2.47-4.82,2.61h-.09a.39.39,0,0,0-.34.27,5.1,5.1,0,0,1-.39.88,4.67,4.67,0,0,0-.6,1.78,16.88,16.88,0,0,1-1.07,4.32,22.6,22.6,0,0,1-3,5.56,1.15,1.15,0,0,0-.15,1.21,1,1,0,0,0,.84.53.87.87,0,0,0,.61-.26l.07,0L144.76,51l2-1.81.82-.75.4-.37.13-.11.72-.61.49-.37a9.53,9.53,0,0,1,.84-.57l.14-.09a10,10,0,0,1,.92-.51l.08-.05.2-.08a8,8,0,0,1,.92-.36,7,7,0,0,1,2.08-.35h.28a5.7,5.7,0,0,1,2.29.58,6.22,6.22,0,0,1,1.79,1.32l.19.21,0,0,.09.11.17.23.16.21.33.56a2.88,2.88,0,0,1,.13.31l.07.19a2.61,2.61,0,0,1,.16.47l0,.16.08.33,0,.19a5.59,5.59,0,0,1,.06.8,7.92,7.92,0,0,1-.73,3.25,10.85,10.85,0,0,1-1.28,2.15q-.17.22-.33.42a.36.36,0,0,0-.08.33.4.4,0,0,0,.19.27,6,6,0,0,1,3.15,5.11.4.4,0,0,0,.28.36l.11,0a.4.4,0,0,0,.32-.16A9.63,9.63,0,0,1,163.28,61a4.18,4.18,0,0,1,2.33-1.06h.25a3.6,3.6,0,0,1,1,.15c.19.06.39.13.58.21l.15.07.15.08.27.18a4.37,4.37,0,0,1,1.37,2A12,12,0,0,1,170,67.18Zm-14.26-9.65a3.64,3.64,0,0,0-.57,0c-3,0-5.56,2.58-6.15,6.13-.52,3.11-.41,7.33.94,9.77,1.18.22,2.3.45,3.37.69A9.58,9.58,0,0,0,155,73a13.85,13.85,0,0,0,2.28-2.61,29.84,29.84,0,0,0,2-3.53l.59-1.12a.41.41,0,0,0,0-.44.41.41,0,0,0-.3-.14.34.34,0,0,0-.14,0,4.48,4.48,0,0,1-1.44.24c-.61,0-2.61-.15-3-2.08a.09.09,0,0,0,0,0,1.16,1.16,0,0,1-.06-.34,1.13,1.13,0,1,1,2.25,0,1.11,1.11,0,0,1-.33.79.4.4,0,0,0-.08.45.39.39,0,0,0,.36.23h0a2.56,2.56,0,0,0,2.22-1.45,3.61,3.61,0,0,0-.39-3.61A4.68,4.68,0,0,0,155.73,57.53Zm-7.36,15.56a6.12,6.12,0,0,0-1.91-1.75,4,4,0,0,0-1.69-.42,1.73,1.73,0,0,0-1.8,1.3Q145.82,72.64,148.37,73.09Zm2.41,1.39c.1.09.2.19.3.27a.43.43,0,0,0,.24.08h.11l.4-.12ZM138.66,59.07c-1,.89-1.89,1.65-2.71,2.34s-1.39,1.14-2.22,1.8l0,.06c-1,1.24-1.8,3.36-1.28,4.77a2.18,2.18,0,0,0,1.45,1.33,2,2,0,0,1-2,1.09,5.21,5.21,0,0,1-3.58-1.52.4.4,0,0,0-.52-.06,10.64,10.64,0,0,1-2.82,1.36c1.59.13,3.16.26,4.69.41h.28a4.51,4.51,0,0,1,.53.07c4.18.4,8.08.86,11.66,1.37a3.08,3.08,0,0,1,.94-1.71.39.39,0,0,0-.13-.66,3.14,3.14,0,0,1-1.7-1.33,1.88,1.88,0,0,0-1.57-1.09h-.11a.38.38,0,0,0-.36.32.4.4,0,0,0,.22.43,1.12,1.12,0,0,1-.48,2.14,1.13,1.13,0,0,1-1.11-1,.13.13,0,0,0,0-.06,1.4,1.4,0,0,1-.05-.34,1.78,1.78,0,0,1,.48-1.34,3.08,3.08,0,0,1,2.09-.9.38.38,0,0,0,.34-.22.4.4,0,0,0,0-.41,7,7,0,0,1-1-1.55,2.93,2.93,0,0,1,0-2A.69.69,0,0,1,140,62h.13c.44,0,1.06.52,1.62,1.36a.4.4,0,0,0,.33.18l.15,0a.4.4,0,0,0,.23-.45l-.05-.27a1.09,1.09,0,0,1,.15-.94.79.79,0,0,1,.64-.29,1.38,1.38,0,0,1,1.15.81,5.3,5.3,0,0,1,.16,3.47,12.78,12.78,0,0,0-.21,1.94,2.45,2.45,0,0,0,2.51,2.61,3.48,3.48,0,0,0,.55,0,.4.4,0,0,0,.32-.45,23.18,23.18,0,0,1,.14-6.48c.68-4.06,3.83-7.12,7.32-7.12a6.08,6.08,0,0,1,.61,0h0a.39.39,0,0,0,.28-.11l.06-.06a5.84,5.84,0,0,0,.4-.44,8.07,8.07,0,0,0,.51-.63,9.43,9.43,0,0,0,1.07-1.84,6.38,6.38,0,0,0,.57-2.56,2.74,2.74,0,0,0,0-.51l0-.19a.2.2,0,0,0,0-.07,1.16,1.16,0,0,1,0-.18,2.54,2.54,0,0,0-.16-.49l0-.08a1.19,1.19,0,0,0-.12-.26.89.89,0,0,1-.08-.17.1.1,0,0,0,0,0l-.18-.26-.17-.21-.05-.06-.13-.13a4.18,4.18,0,0,0-2.93-1.36h-.17a5.17,5.17,0,0,0-1.58.28,4.59,4.59,0,0,0-.68.27l-.24.1-.17.1c-.22.11-.45.24-.68.38l-.15.1a6.5,6.5,0,0,0-.66.47l-.41.3-.54.47a.4.4,0,0,0-.12.43.41.41,0,0,0,.37.27,3.11,3.11,0,0,1,2.29.91,1.7,1.7,0,0,1,.38.84,5.54,5.54,0,0,0-2.27-.44,8,8,0,0,0-4,1.15l-.07,0,0,0c-1.42,1.34-2.89,2.72-4.28,4C140.73,57.22,139.67,58.18,138.66,59.07ZM106,49.2a6.22,6.22,0,0,0-2.28-.46A4.92,4.92,0,0,0,100,50.48c-1.94,2.18-2.79,6.14-2.27,10.57a.4.4,0,0,0,.07.19,25,25,0,0,0,4.1,4.38l0,0a4.65,4.65,0,0,0,2.55.81A8.44,8.44,0,0,0,108.59,65a8.47,8.47,0,0,1,4.07-1.5h.27a.4.4,0,0,0,.37-.24.42.42,0,0,0-.08-.44,10.12,10.12,0,0,1-1.57-2.09l0,0c-1.33-1.83-2.57-4.34-1.66-9.14A22.76,22.76,0,0,1,114.64,42c.45-.61.87-1.18,1.21-1.71a4,4,0,0,0,.35-.68l-.48-.15c-.38-.1-.85-.22-1.4-.32l-.87-.13-.7-.07A1.92,1.92,0,0,1,109,39c-.38,0-.76.1-1.15.17a16.15,16.15,0,0,0-1.77.41,1.84,1.84,0,0,1,.06.47,1.91,1.91,0,0,1-3.55,1,11.94,11.94,0,0,0-1.94,1.34,5.47,5.47,0,0,0-.51.45,1.15,1.15,0,0,1,.16.58,1.23,1.23,0,0,1-1.23,1.23,1.34,1.34,0,0,1-.45-.09,14.75,14.75,0,0,0-1,1.72c-.15.35-.3.69-.43,1s-.24.67-.33,1l-.23.93-.06.36a9.43,9.43,0,0,1,5.17-3.79,3.18,3.18,0,0,1,.62,0A4,4,0,0,1,105.26,47,3.24,3.24,0,0,1,106,49.2ZM109.3,35a9.47,9.47,0,0,0-2.67-.37,12.27,12.27,0,0,0-6.51,2c-4,2.48-5.41,4.86-6.72,11.07a.17.17,0,0,0,0,.07,21.37,21.37,0,0,0,.55,5.08.41.41,0,0,0,.36.3h0a.4.4,0,0,0,.37-.25,13.54,13.54,0,0,1,.74-1.58c0-.39.07-.84.15-1.34,0-.29.1-.59.16-.91s.16-.65.25-1,.23-.7.35-1.06.31-.72.48-1.1A13.35,13.35,0,0,1,98,44a1.14,1.14,0,0,1-.15-.58,1.22,1.22,0,0,1,1.22-1.22,1.13,1.13,0,0,1,.45.09,6.09,6.09,0,0,1,.61-.53,13.89,13.89,0,0,1,1.13-.85c.35-.21.7-.43,1.07-.62a1.94,1.94,0,0,1,0-.24,1.91,1.91,0,0,1,3.45-1.13,17.77,17.77,0,0,1,2-.42c.42-.07.83-.12,1.24-.16a1.91,1.91,0,0,1,3.79,0l.77.09c.31.06.61.1.89.17a13.6,13.6,0,0,1,1.43.38l.51.19a6.74,6.74,0,0,0,.09-3.61,7.71,7.71,0,0,0-1.27-2.82c-.19-.12-.41-.26-.67-.4s-.6-.33-1-.51-.73-.36-1.15-.53l-.64-.26-.69-.23a5.46,5.46,0,0,0-.72-.21,6.17,6.17,0,0,0-.74-.19l-.77-.16-.78-.1c-.52-.08-1-.07-1.56-.11l-.77,0a6.06,6.06,0,0,0-.75,0l-.73.09-.35.05-.33.07-.65.14a4.61,4.61,0,0,0-.59.15l-1,.33-.77.33-.61.27a.43.43,0,0,0,.28.11h.11a10.14,10.14,0,0,1,2.86-.41C106.27,31.27,108.64,32.75,109.3,35Zm9.23,34.76a14.57,14.57,0,0,1-2-1.56A8,8,0,0,0,113,66.08a4.82,4.82,0,0,0-1-.12,5.84,5.84,0,0,0-3.69,1.64c-.35.27-.68.53-1,.76a.38.38,0,0,0-.18.36.4.4,0,0,0,.23.33l.4.17C111.43,69.37,115,69.56,118.53,69.79Zm3.22-1a9.85,9.85,0,0,0,4.27-1,6.62,6.62,0,0,0,1.76-1.52.41.41,0,0,0,0-.46.42.42,0,0,0-.34-.19h-.09a25.07,25.07,0,0,1-5.28.64,14.21,14.21,0,0,1-4.36-.64h-.12a.42.42,0,0,0-.34.17.41.41,0,0,0,0,.48c1,1.17,2.14,2.49,4.26,2.52ZM136.5,35a.47.47,0,0,0,.05.1,21.29,21.29,0,0,1,3.25,13.73.4.4,0,0,0,.26.42.31.31,0,0,0,.13,0,.4.4,0,0,0,.34-.19,15.17,15.17,0,0,0,2.18-7,.22.22,0,0,0,0-.08,5.76,5.76,0,0,0-1-2.9,9.6,9.6,0,0,1-1.4-3.27s0-.07,0-.09a4.93,4.93,0,0,1-.1-2.34.36.36,0,0,0-.07-.3.4.4,0,0,0-.28-.16c-.35,0-.69,0-1,0a7,7,0,0,0-1.6.17l0,0a1.2,1.2,0,0,0-.72.74A1.46,1.46,0,0,0,136.5,35Zm-3.79-1.33-1.06.73-.7.49a2.26,2.26,0,0,1,.49,1.42,2.34,2.34,0,0,1-4.29,1.29l-1.05.7c-.5.35-1,.65-1.55,1s-1,.62-1.53.92c-.25.15-.5.28-.74.41l-.72.4c-.46.27-.92.48-1.33.69l-.78.4h.14a15.19,15.19,0,0,1,3-.3,13.11,13.11,0,0,1,4.65.79,3.81,3.81,0,0,1,2.52,2.15,1.93,1.93,0,0,1-.15,1.63.4.4,0,0,0,.08.51A4.24,4.24,0,0,1,131.41,51a1.9,1.9,0,0,1-1.22,1.49,1.65,1.65,0,0,1-.31,0c-1,0-1.83-1.18-2.83-2.55-1.46-2-3.29-4.49-6.47-4.49a7,7,0,0,0-1.34.14.41.41,0,0,0-.32.38.39.39,0,0,0,.29.39A6.3,6.3,0,0,1,124,50.24a4.78,4.78,0,0,1,.06,3.25s0,0,0,0l0,.09c-.22,1-.49,2.29.63,3.39a1.73,1.73,0,0,1-.81.2,2.23,2.23,0,0,1-2.1-1.68.39.39,0,0,0-.33-.3h0a.39.39,0,0,0-.35.21,4,4,0,0,1-3.29,2.4,3.31,3.31,0,0,1-1.43-.35,3.63,3.63,0,0,0,1.49-1.29,3.77,3.77,0,0,0,.58-2.82,3.18,3.18,0,0,0-3.13-2.59h0a4.17,4.17,0,0,0-3.46,3.32,9,9,0,0,0,4.38,9.43,11.51,11.51,0,0,0,6,1.49,26.88,26.88,0,0,0,7-1.11.37.37,0,0,0,.27-.26,7.88,7.88,0,0,0-.93-6.08,2.62,2.62,0,0,0-1.12-.93,3,3,0,0,1,1.91-.61,6,6,0,0,1,4.38,2.29.42.42,0,0,0,.31.15h0a.37.37,0,0,0,.31-.16A19.32,19.32,0,0,0,135.86,37a.38.38,0,0,0-.32-.2h0a.39.39,0,0,0-.32.16,3.57,3.57,0,0,1-.4.46,10.57,10.57,0,0,0-1.38-4.21ZM99.92,31a.43.43,0,0,0-.09.16l.58-.22.79-.31,1-.31a3.89,3.89,0,0,1,.61-.16l.66-.14.34-.08.36,0,.73-.09c.5-.06,1-.08,1.56-.11s1.07,0,1.6.07c.27,0,.54,0,.81.08l.79.12c.26,0,.52.1.78.15s.5.1.75.17l.72.18q.35.12.69.21c.44.13.86.29,1.24.42l1.09.43c2.61.14,3.8,2.31,4,4.34a.39.39,0,0,0,.39.35h0a4,4,0,0,0,2.93-2.59,2.77,2.77,0,0,1,.6,1.69c0,1-.32,3.16-3.29,5.69l0,0,.26-.09a13.9,13.9,0,0,0,1.39-.5,16,16,0,0,0,1.52-.64c.52-.25,1.07-.48,1.59-.78s1.07-.58,1.58-.91c.36-.22.72-.45,1.06-.68a2.34,2.34,0,0,1,2-3.49,2.31,2.31,0,0,1,1.55.59c.21-.21.41-.42.58-.62a11.5,11.5,0,0,0,.78-1c.22-.3.39-.58.53-.81a2.12,2.12,0,0,0,.12-.2,17.3,17.3,0,0,0-1.52-2,.37.37,0,0,0-.47-.08.38.38,0,0,0-.21.43,1,1,0,0,1-.21.88,6,6,0,0,0-3.6-4.41l-.1,0a.4.4,0,0,0-.4.45,1.09,1.09,0,0,1-.38.93,6.16,6.16,0,0,0-4.2-4.8l-.77-.12h0a.4.4,0,0,0-.33.18.38.38,0,0,0,0,.43,3.34,3.34,0,0,1,.42,3.27,15.93,15.93,0,0,0-8-2.24A17.43,17.43,0,0,0,102.4,28.6l-.05,0A23.83,23.83,0,0,0,99.92,31ZM89.64,19.66a1.8,1.8,0,0,1,1.24-.5,1.83,1.83,0,1,1,0,3.65,1.27,1.27,0,0,1-.28,0c-1.23,1.88-3.56,5.67-5,6.85a22.33,22.33,0,0,0,.66,2.5c.37.89.91,1,1.56.34a4.71,4.71,0,0,1-.18-4.39,5.63,5.63,0,0,0,2,3s-1.13-2.91.08-5.1a4,4,0,0,0,2,2.83,6.8,6.8,0,0,1,3-5.89,5,5,0,0,1-1.71-3.56,2.19,2.19,0,0,1-.5-1.39,2.14,2.14,0,0,1,.31-1.12,1.88,1.88,0,0,0-1.33-.23C90.27,16.81,90.09,18.34,89.64,19.66ZM88,33c-.34,1.4-1.19,1.78-1.56,3.14a3.62,3.62,0,0,1-.4.93C88.47,36.92,88.56,34.52,88,33ZM85.48,22.2a2.21,2.21,0,0,1,.57,4.11.75.75,0,0,0,1,.29c.64-.3,2.25-2.57,3.17-3.92A1.81,1.81,0,0,1,89.06,21a1.11,1.11,0,0,1,0-.19,1.93,1.93,0,0,1-1,.72,1.81,1.81,0,0,1-1.78-.44A2.09,2.09,0,0,1,85.48,22.2Zm-5.7.48C80.7,24,82.31,26.3,83,26.6a.75.75,0,0,0,1-.29,2.21,2.21,0,0,1,.57-4.11,2.09,2.09,0,0,1-.84-1.12,1.81,1.81,0,0,1-1.78.44,1.93,1.93,0,0,1-1-.72,1.11,1.11,0,0,1,0,.19A1.81,1.81,0,0,1,79.78,22.68Zm-4.43.24a6.8,6.8,0,0,1,3,5.89A3.93,3.93,0,0,0,80.3,26c1.22,2.19.09,5.1.09,5.1a5.63,5.63,0,0,0,2-3,4.71,4.71,0,0,1-.18,4.39c.65.68,1.19.55,1.56-.34a22.33,22.33,0,0,0,.66-2.5c-1.49-1.18-3.82-5-5-6.85a1.27,1.27,0,0,1-.28,0,1.83,1.83,0,1,1,0-3.65,1.8,1.8,0,0,1,1.24.5c-.45-1.32-.63-2.85-1.78-3a1.88,1.88,0,0,0-1.33.23A2.14,2.14,0,0,1,77.56,18a2.19,2.19,0,0,1-.5,1.39A5,5,0,0,1,75.35,22.92Zm8.19,13.26C83.17,34.82,82.32,34.44,82,33c-.54,1.48-.45,3.88,2,4.07A3.62,3.62,0,0,1,83.54,36.18ZM72.68,30.37l-.06,0a28.86,28.86,0,0,1,6.37,17c.25,8.57-4.37,16.78-11.53,21.68q3.26-.1,6.55-.16h0c3.36-.06,6.78-.09,10.18-.09h1.54c3.4,0,6.82,0,10.19.09,2.21,0,4.41.09,6.58.16C95.38,64.15,90.76,55.94,91,47.37a28.86,28.86,0,0,1,6.37-17l-.06,0a3.47,3.47,0,0,0-.81-5.27l-.1.07c-3,2.35-2,6-4.45,9.71-2.07,3.18-4.44,3.29-6.15,2.6a3.2,3.2,0,0,0-.62,1.43A3.41,3.41,0,0,1,85,45.73L86,47l-.91,1.22a2.71,2.71,0,0,1,0,5.42L86,54.87l-1,1.3-1-1.3.91-1.22a2.71,2.71,0,0,1,0-5.42L84,47l1-1.28a3.41,3.41,0,0,1-.18-6.82,3.2,3.2,0,0,0-.62-1.43c-1.71.69-4.08.58-6.15-2.6-2.43-3.72-1.46-7.36-4.45-9.71l-.1-.07A3.47,3.47,0,0,0,72.68,30.37ZM48.41,68.74c2.12,0,3.26-1.35,4.26-2.52a.41.41,0,0,0,0-.48.42.42,0,0,0-.34-.17h-.12a14.21,14.21,0,0,1-4.36.64,25.07,25.07,0,0,1-5.28-.64h-.09a.42.42,0,0,0-.34.19.41.41,0,0,0,0,.46A6.62,6.62,0,0,0,44,67.74a9.85,9.85,0,0,0,4.27,1Zm3.06,1.05c3.49-.23,7.1-.41,10.8-.56l.41-.18a.4.4,0,0,0,.23-.33.38.38,0,0,0-.18-.36c-.35-.23-.68-.49-1-.76A5.84,5.84,0,0,0,58,66a4.82,4.82,0,0,0-1,.12,8,8,0,0,0-3.51,2.15A14.57,14.57,0,0,1,51.47,69.79Zm6.91-9.14,0,0a10.12,10.12,0,0,1-1.57,2.09.42.42,0,0,0-.08.44.4.4,0,0,0,.37.24h.27A8.47,8.47,0,0,1,61.41,65a8.44,8.44,0,0,0,4.07,1.51A4.65,4.65,0,0,0,68,65.65l0,0a25,25,0,0,0,4.1-4.38.4.4,0,0,0,.07-.19c.52-4.43-.33-8.39-2.27-10.57a4.92,4.92,0,0,0-3.73-1.74A6.22,6.22,0,0,0,64,49.2,3.24,3.24,0,0,1,64.74,47a4,4,0,0,1,2.93-1.22,3.18,3.18,0,0,1,.62,0,9.43,9.43,0,0,1,5.17,3.79l-.06-.36c-.07-.3-.15-.61-.23-.93s-.22-.65-.33-1-.28-.67-.43-1a14.75,14.75,0,0,0-1-1.72,1.34,1.34,0,0,1-.45.09,1.23,1.23,0,0,1-1.23-1.23,1.15,1.15,0,0,1,.16-.58,5.47,5.47,0,0,0-.51-.45,11.94,11.94,0,0,0-1.94-1.34,1.91,1.91,0,0,1-3.55-1,1.84,1.84,0,0,1,.06-.47,16.15,16.15,0,0,0-1.77-.41c-.39-.07-.77-.13-1.15-.17a1.92,1.92,0,0,1-3.75-.08l-.7.07-.87.13c-.55.1-1,.22-1.4.32l-.48.15a4,4,0,0,0,.35.68c.34.53.76,1.1,1.21,1.71A22.76,22.76,0,0,1,60,51.51C61,56.31,59.71,58.82,58.38,60.65ZM60.7,35c.66-2.28,3-3.76,6.12-3.76a10.14,10.14,0,0,1,2.86.41h.11a.43.43,0,0,0,.28-.11l-.61-.27L68.69,31l-1-.33a4.61,4.61,0,0,0-.59-.15l-.65-.14-.33-.07-.35-.05L65,30.15a6.06,6.06,0,0,0-.75,0l-.77,0c-.51,0-1,0-1.56.11l-.78.1-.77.16a6.17,6.17,0,0,0-.74.19,5.46,5.46,0,0,0-.72.21l-.69.23-.64.26c-.42.17-.8.36-1.15.53s-.67.34-.95.51-.48.28-.67.4a7.71,7.71,0,0,0-1.27,2.82,6.74,6.74,0,0,0,.09,3.61l.51-.19a13.6,13.6,0,0,1,1.43-.38c.28-.07.58-.11.89-.17l.77-.09a1.91,1.91,0,0,1,3.79,0c.41,0,.82.09,1.24.16a17.77,17.77,0,0,1,2,.42,1.91,1.91,0,0,1,3.45,1.13,1.94,1.94,0,0,1,0,.24c.37.19.72.41,1.07.62a13.89,13.89,0,0,1,1.13.85,5.15,5.15,0,0,1,.61.53,1.13,1.13,0,0,1,.45-.09,1.22,1.22,0,0,1,1.22,1.22A1.14,1.14,0,0,1,72,44a13.35,13.35,0,0,1,1.17,1.9c.17.38.33.74.48,1.1s.25.71.35,1.06.17.67.25,1,.11.62.16.91c.08.5.12,1,.15,1.34a13.54,13.54,0,0,1,.74,1.58.4.4,0,0,0,.37.25h0a.41.41,0,0,0,.36-.3,21.37,21.37,0,0,0,.55-5.08.17.17,0,0,0,0-.07c-1.31-6.21-2.76-8.59-6.72-11.07a12.27,12.27,0,0,0-6.51-2A9.47,9.47,0,0,0,60.7,35ZM37.34,31.94a2.12,2.12,0,0,0,.12.2c.14.23.31.51.53.81a11.5,11.5,0,0,0,.78,1c.17.2.37.41.58.62A2.31,2.31,0,0,1,40.9,34a2.34,2.34,0,0,1,2,3.49c.34.23.7.46,1.06.68s1.06.62,1.58.91,1.07.53,1.59.78a16,16,0,0,0,1.52.64,13.9,13.9,0,0,0,1.39.5l.26.09,0,0c-3-2.53-3.34-4.65-3.29-5.69a2.77,2.77,0,0,1,.6-1.69,4,4,0,0,0,2.93,2.59h0a.39.39,0,0,0,.39-.35c.25-2,1.44-4.2,4.05-4.34l1.09-.43c.38-.13.8-.29,1.24-.42q.34-.09.69-.21l.72-.18c.25-.07.5-.12.75-.17S60,30,60.29,30l.79-.12c.27,0,.54-.06.81-.08.53-.07,1.07-.05,1.6-.07s1.06.05,1.56.11l.73.09.36,0,.34.08.66.14a3.89,3.89,0,0,1,.61.16l1,.31.79.31.58.22a.43.43,0,0,0-.09-.16,23.83,23.83,0,0,0-2.43-2.39l-.05,0a17.43,17.43,0,0,0-10.43-3.74,15.93,15.93,0,0,0-8,2.24,3.34,3.34,0,0,1,.42-3.27.38.38,0,0,0,0-.43.39.39,0,0,0-.33-.18h0l-.77.12a6.16,6.16,0,0,0-4.2,4.8,1.09,1.09,0,0,1-.38-.93.43.43,0,0,0-.14-.35.4.4,0,0,0-.26-.1l-.1,0a6,6,0,0,0-3.6,4.41,1,1,0,0,1-.21-.88.38.38,0,0,0-.21-.43.37.37,0,0,0-.47.08A17.3,17.3,0,0,0,37.34,31.94ZM34.14,37a19.32,19.32,0,0,0,1.58,21.32.37.37,0,0,0,.31.16h0a.42.42,0,0,0,.31-.15A6,6,0,0,1,40.73,56a3,3,0,0,1,1.91.61,2.62,2.62,0,0,0-1.12.93,7.88,7.88,0,0,0-.93,6.08.37.37,0,0,0,.27.26,26.88,26.88,0,0,0,7,1.11,11.51,11.51,0,0,0,6-1.49,9,9,0,0,0,4.38-9.43,4.17,4.17,0,0,0-3.46-3.32h0a3.18,3.18,0,0,0-3.13,2.59,3.77,3.77,0,0,0,.58,2.82,3.63,3.63,0,0,0,1.49,1.29,3.31,3.31,0,0,1-1.43.35A4,4,0,0,1,49,55.44a.39.39,0,0,0-.35-.21h0a.39.39,0,0,0-.33.3,2.23,2.23,0,0,1-2.1,1.68,1.73,1.73,0,0,1-.81-.2c1.12-1.1.85-2.36.63-3.39l0-.09s0,0,0,0A4.78,4.78,0,0,1,46,50.24a6.3,6.3,0,0,1,4.76-3.84.39.39,0,0,0,.29-.39.4.4,0,0,0-.32-.38,7,7,0,0,0-1.34-.14c-3.18,0-5,2.49-6.47,4.49-1,1.37-1.87,2.55-2.83,2.55a1.65,1.65,0,0,1-.31,0A1.9,1.9,0,0,1,38.59,51a4.24,4.24,0,0,1,1.69-4.12.4.4,0,0,0,.08-.51,1.93,1.93,0,0,1-.15-1.63,3.81,3.81,0,0,1,2.52-2.15,13.11,13.11,0,0,1,4.65-.79,15.19,15.19,0,0,1,3,.3h.14l-.78-.4c-.41-.21-.87-.42-1.33-.69l-.72-.4c-.24-.13-.49-.26-.74-.41-.5-.3-1-.59-1.53-.92s-1.05-.63-1.55-1l-1-.7a2.34,2.34,0,0,1-4.29-1.29,2.26,2.26,0,0,1,.49-1.42l-.7-.49-1.06-.73-.71-.46a10.57,10.57,0,0,0-1.38,4.21,3.57,3.57,0,0,1-.4-.46.39.39,0,0,0-.32-.16h0A.38.38,0,0,0,34.14,37Zm-.69-1.9a.47.47,0,0,0,0-.1,1.46,1.46,0,0,0,.08-1.15,1.2,1.2,0,0,0-.72-.74l0,0a7,7,0,0,0-1.6-.17c-.32,0-.66,0-1,0a.4.4,0,0,0-.28.16.36.36,0,0,0-.07.3,4.93,4.93,0,0,1-.1,2.34s0,.06,0,.09a9.6,9.6,0,0,1-1.4,3.27,5.76,5.76,0,0,0-1,2.9.22.22,0,0,0,0,.08,15.17,15.17,0,0,0,2.18,7,.4.4,0,0,0,.34.19.31.31,0,0,0,.13,0,.4.4,0,0,0,.26-.42A21.29,21.29,0,0,1,33.45,35.1ZM13,55.1a8.07,8.07,0,0,0,.51.63,5.84,5.84,0,0,0,.4.44l.06.06a.39.39,0,0,0,.28.11h0a6.08,6.08,0,0,1,.61,0c3.49,0,6.64,3.06,7.32,7.12a23.18,23.18,0,0,1,.14,6.48.4.4,0,0,0,.32.45,3.48,3.48,0,0,0,.55,0,2.45,2.45,0,0,0,2.51-2.61,12.78,12.78,0,0,0-.21-1.94,5.3,5.3,0,0,1,.16-3.47,1.38,1.38,0,0,1,1.15-.81.79.79,0,0,1,.64.29,1.09,1.09,0,0,1,.15.94l0,.27a.4.4,0,0,0,.23.45l.15,0a.4.4,0,0,0,.33-.18c.56-.84,1.18-1.36,1.62-1.36H30a.69.69,0,0,1,.42.35,2.93,2.93,0,0,1,0,2,7,7,0,0,1-1,1.55.4.4,0,0,0,0,.41.38.38,0,0,0,.34.22,3.08,3.08,0,0,1,2.09.9,1.78,1.78,0,0,1,.48,1.34,1.4,1.4,0,0,1-.05.34.13.13,0,0,0,0,.06A1.12,1.12,0,0,1,30,69.07a1.12,1.12,0,0,1,.65-1,.4.4,0,0,0,.22-.43.38.38,0,0,0-.36-.32h-.11a1.88,1.88,0,0,0-1.57,1.09,3.14,3.14,0,0,1-1.7,1.33.39.39,0,0,0-.13.66,3.08,3.08,0,0,1,.94,1.71c3.57-.51,7.47-1,11.64-1.36a3.65,3.65,0,0,1,.55-.08h.26c1.54-.15,3.11-.28,4.71-.41a10.64,10.64,0,0,1-2.82-1.36.4.4,0,0,0-.52.06,5.21,5.21,0,0,1-3.58,1.52,2,2,0,0,1-2-1.09A2.18,2.18,0,0,0,37.6,68c.52-1.41-.24-3.53-1.28-4.77l0-.06c-.83-.66-1.54-1.23-2.22-1.8S32.34,60,31.34,59.07s-2.07-1.85-3-2.68c-1.39-1.27-2.86-2.65-4.28-4l0,0-.07,0a8,8,0,0,0-4-1.15,5.54,5.54,0,0,0-2.27.44,1.7,1.7,0,0,1,.38-.84,3.11,3.11,0,0,1,2.29-.91.41.41,0,0,0,.37-.27.4.4,0,0,0-.12-.43l-.54-.47-.41-.3a6.5,6.5,0,0,0-.66-.47l-.15-.1c-.23-.14-.46-.27-.68-.38l-.17-.1-.24-.1a4.59,4.59,0,0,0-.68-.27,5.17,5.17,0,0,0-1.58-.28h-.17A4.18,4.18,0,0,0,12.38,48l-.13.13-.05.06-.17.21-.18.26a.1.1,0,0,0,0,0,.89.89,0,0,1-.08.17,1.19,1.19,0,0,0-.12.26l0,.08a2.54,2.54,0,0,0-.16.49,1.16,1.16,0,0,1,0,.18.2.2,0,0,0,0,.07l0,.19a2.74,2.74,0,0,0,0,.51,6.38,6.38,0,0,0,.57,2.56A9.43,9.43,0,0,0,13,55.1ZM27,72.22a1.73,1.73,0,0,0-1.8-1.3,4,4,0,0,0-1.69.42,6.12,6.12,0,0,0-1.91,1.75Q24.18,72.64,27,72.22Zm-17-6.53.59,1.12a29.84,29.84,0,0,0,2,3.53A13.85,13.85,0,0,0,15,73a9.58,9.58,0,0,0,1.69,1.13c1.07-.24,2.19-.47,3.37-.69,1.35-2.44,1.46-6.66.94-9.77-.59-3.55-3.18-6.13-6.15-6.13a3.64,3.64,0,0,0-.57,0A4.68,4.68,0,0,0,11,59.31a3.64,3.64,0,0,0-.39,3.61,2.56,2.56,0,0,0,2.22,1.45h0a.39.39,0,0,0,.36-.23.4.4,0,0,0-.08-.45,1.11,1.11,0,0,1-.33-.79,1.13,1.13,0,1,1,2.25,0,1.16,1.16,0,0,1-.06.34.09.09,0,0,0,0,0c-.4,1.93-2.4,2.08-3,2.08a4.48,4.48,0,0,1-1.44-.24.34.34,0,0,0-.14,0,.41.41,0,0,0-.3.14A.41.41,0,0,0,10.08,65.69Zm8.09,9,.4.12h.11a.43.43,0,0,0,.24-.08c.1-.08.2-.18.3-.27Zm-8.48-.28v0l0,.14a3,3,0,0,1-.13.58l-.07.19-.07.15a2.89,2.89,0,0,1-.63.85,41.86,41.86,0,0,1,4-1.32,2.53,2.53,0,0,1,.65-.29l.12,0-.11-.1A13.71,13.71,0,0,1,11,71.42a24.27,24.27,0,0,1-1.79-4,31.11,31.11,0,0,0-1.8-4,8.19,8.19,0,0,0-1.28-1.79,3.07,3.07,0,0,0-1.79-1,2.47,2.47,0,0,0-.39,0,3.69,3.69,0,0,0-.65.07,4.34,4.34,0,0,0-.48.14l-.06,0-.12,0-.08,0a1.86,1.86,0,0,0-.25.14A3.81,3.81,0,0,0,1,62.79,8.44,8.44,0,0,0,.53,65a11.78,11.78,0,0,0-.06,2.2,13.29,13.29,0,0,0,.88,4,9.59,9.59,0,0,0,.85,1.7,9,9,0,0,0,1.07,1.36,5.46,5.46,0,0,0,2.41,1.6,2.53,2.53,0,0,0,.71.1,1.86,1.86,0,0,0,1.14-.35A1.28,1.28,0,0,0,8,75l.05-.12a1.68,1.68,0,0,0-.15-1.48A1.06,1.06,0,0,0,7.3,73l0,0a1.5,1.5,0,0,1,1.09-.44,1.3,1.3,0,0,1,.8.26A1.89,1.89,0,0,1,9.69,74.42ZM9,80A.12.12,0,0,0,9,79.92a7.21,7.21,0,0,1-1.34-.6,5.75,5.75,0,0,0-.92-.44h0a.12.12,0,0,0-.09,0,.14.14,0,0,0,0,.14L7.7,80.68a.1.1,0,0,0,.1,0h.06c.32-.19.7-.38,1.12-.58A.1.1,0,0,0,9,80ZM12,76.43a.11.11,0,0,0,0-.11l-.08,0h0A29.79,29.79,0,0,0,7.48,78a.12.12,0,0,0-.07.1.12.12,0,0,0,.07.11l.6.31a3.77,3.77,0,0,0,1.78.62,2.28,2.28,0,0,0,.84-.16c1-.37,1.07-1,1.19-1.91Q11.92,76.75,12,76.43Zm.59,2.4c2-.6,4.42-1.18,7.21-1.74h-.61A8.24,8.24,0,0,1,17.92,77a8,8,0,0,1-1.44-.4,8.2,8.2,0,0,1-1.93-1l-1.22.32,0,0c-.31.23-.38.64-.46,1.27a3.91,3.91,0,0,1-.4,1.51.14.14,0,0,0,0,.14.13.13,0,0,0,.09,0Zm11-2.51a.11.11,0,0,0-.07-.12,6.76,6.76,0,0,1-1.33-.87,4.12,4.12,0,0,0-1.38-.82l-.07.11a.39.39,0,0,0,0,.39.42.42,0,0,0,.32.24H21l.1,1.59,2.32-.42A.11.11,0,0,0,23.52,76.32Zm3.77-2.38a1.42,1.42,0,0,1,.08-.18l-.23.2a1.4,1.4,0,0,1-.82.31,1.38,1.38,0,0,1-.78-.28.09.09,0,0,0-.05,0,.72.72,0,0,1-.38-.52c-1,.16-2,.32-2.95.49-.05,0-.08,0-.09.09a.11.11,0,0,0,0,.12c.21.14.4.29.59.44a3.53,3.53,0,0,0,2.25,1,3.26,3.26,0,0,0,.52,0C26.66,75.35,26.94,74.73,27.29,73.94Zm5.8,1a.12.12,0,0,0-.07-.12,5.31,5.31,0,0,1-1.24-1,2.23,2.23,0,0,0-1.7-.94l-.35,0c-1,.13-1.24.67-1.57,1.41a5,5,0,0,1-.74,1.25.12.12,0,0,0,0,.14.13.13,0,0,0,.1.06h0c1.73-.26,3.56-.5,5.46-.73A.14.14,0,0,0,33.09,75Zm4.26-2.39c.1-.17.21-.34.33-.52a.12.12,0,0,0,0-.13.13.13,0,0,0-.11,0h0c-1.92.19-3.78.4-5.54.62a.11.11,0,0,0-.1.08.13.13,0,0,0,0,.13c.18.15.34.31.5.47a2.76,2.76,0,0,0,2.14,1.09l.47,0A2.81,2.81,0,0,0,37.35,72.56Zm6.33,1.31a.12.12,0,0,0,0-.13,5.36,5.36,0,0,1-1.25-1.07,2.47,2.47,0,0,0-2-1.08h-.15l-.2,0c-1.06.12-1.42.7-1.89,1.44a5.38,5.38,0,0,1-1,1.3.12.12,0,0,0,0,.14.12.12,0,0,0,.11.07h0c2-.22,4.17-.42,6.36-.61A.11.11,0,0,0,43.68,73.87Zm4.37-2.09a6.48,6.48,0,0,1,.42-.66.13.13,0,0,0,0-.12.15.15,0,0,0-.11-.07h0l-5.64.44a.12.12,0,0,0-.1.08.11.11,0,0,0,0,.13l.43.44a2.87,2.87,0,0,0,2.37,1.22h.4A2.37,2.37,0,0,0,48.05,71.78Zm0,1.82c2.34-.17,4.74-.32,7.18-.46a13.43,13.43,0,0,1-4.54-2.24,2.16,2.16,0,0,0-1.86,1.36A4.52,4.52,0,0,1,48,73.39a.12.12,0,0,0,0,.14.11.11,0,0,0,.11.07Zm17.82-1a.13.13,0,0,0,0-.13,7.12,7.12,0,0,1-1.3-1.17l-.32-.35a25.78,25.78,0,0,1-4.55,1.75v.23q3-.14,6.1-.24A.12.12,0,0,0,65.91,72.58ZM68,72.1a3.58,3.58,0,0,0,2.82-1.5l.5-.5a.12.12,0,0,0,0-.13.11.11,0,0,0-.11-.08h0L65.89,70l-.77.44.14.15A3.42,3.42,0,0,0,68,72.1Zm9.68.22a.11.11,0,0,0,0-.14,7,7,0,0,1-1.22-1.07,3,3,0,0,0-2.33-1.27H74a3.34,3.34,0,0,0-2.51,1.41,8.54,8.54,0,0,1-1.15,1.07.12.12,0,0,0,.07.21h0c2.32,0,4.72-.1,7.14-.13A.11.11,0,0,0,77.7,72.32ZM80,71.84a3.22,3.22,0,0,0,2.73-1.6l.23-.3a.11.11,0,0,0,0-.12.12.12,0,0,0-.11-.07h0c-2,0-4.08,0-6.07,0a.11.11,0,0,0-.11.07.12.12,0,0,0,0,.13q.24.23.45.45a3.32,3.32,0,0,0,2.67,1.39Zm8,.44a.1.1,0,0,0,0-.13,5.7,5.7,0,0,1-1.32-1.33c-.52-.68-.85-1.07-1.55-1.07s-1,.39-1.55,1.07a5.51,5.51,0,0,1-1.32,1.33.1.1,0,0,0,0,.13.12.12,0,0,0,.11.09h5.62A.12.12,0,0,0,87.92,72.28Zm2.29-.44a3.35,3.35,0,0,0,2.67-1.39q.21-.23.45-.45a.12.12,0,0,0,0-.13.11.11,0,0,0-.11-.07c-2,0-4,0-6.07,0h0a.12.12,0,0,0-.11.07.11.11,0,0,0,0,.12l.23.3A3.22,3.22,0,0,0,90,71.84Zm9.41.47a7.9,7.9,0,0,1-1.15-1.06A3.34,3.34,0,0,0,96,69.84H95.9a2.94,2.94,0,0,0-2.32,1.25,6.59,6.59,0,0,1-1.23,1.09.12.12,0,0,0,0,.14.11.11,0,0,0,.11.08c2.34,0,4.74.07,7.13.13h0a.12.12,0,0,0,.11-.08A.12.12,0,0,0,99.62,72.31ZM102,72.1a3.42,3.42,0,0,0,2.76-1.47l.14-.15-.77-.44-5.36-.15h0a.11.11,0,0,0-.11.08.12.12,0,0,0,0,.13l.5.5A3.58,3.58,0,0,0,102,72.1Zm2.23.56c2.05.07,4.09.15,6.09.25v-.23a25.78,25.78,0,0,1-4.55-1.75l-.32.35a7,7,0,0,1-1.29,1.16.11.11,0,0,0-.05.14A.1.1,0,0,0,104.21,72.66Zm17.77.72a4.67,4.67,0,0,1-.85-1.12,2.16,2.16,0,0,0-1.86-1.36,13.44,13.44,0,0,1-4.51,2.23q3.64.21,7.13.46h0a.12.12,0,0,0,.08-.21Zm2.57-.14A2.89,2.89,0,0,0,126.92,72l.43-.45a.11.11,0,0,0,0-.13.12.12,0,0,0-.1-.08l-5.64-.44h0a.15.15,0,0,0-.11.07.13.13,0,0,0,0,.12,6.48,6.48,0,0,1,.42.66,2.37,2.37,0,0,0,2.2,1.45Zm8.3,1.1a5.25,5.25,0,0,1-1-1.28c-.47-.74-.83-1.32-1.89-1.44l-.18,0h-.17a2.47,2.47,0,0,0-2,1.08,5.41,5.41,0,0,1-1.23,1.06.12.12,0,0,0-.06.13.12.12,0,0,0,.11.09c2.16.19,4.29.39,6.32.6h0a.11.11,0,0,0,.11-.07A.12.12,0,0,0,132.85,74.34Zm2.55-.09a2.75,2.75,0,0,0,2.14-1.09c.16-.16.32-.32.5-.47a.13.13,0,0,0,0-.13.11.11,0,0,0-.1-.08c-1.76-.22-3.62-.43-5.54-.62h0a.12.12,0,0,0-.1,0,.12.12,0,0,0,0,.13c.12.18.23.35.33.52a2.81,2.81,0,0,0,2.28,1.66Zm7.17,1.31a4.24,4.24,0,0,1-.72-1.23c-.34-.74-.58-1.28-1.59-1.41l-.34,0a2.26,2.26,0,0,0-1.7.94,5.34,5.34,0,0,1-1.22,1,.12.12,0,0,0-.06.13.13.13,0,0,0,.1.1l.52.06c1.65.2,3.3.42,4.9.66h0a.12.12,0,0,0,.1-.07A.11.11,0,0,0,142.57,75.56Zm2.48,0a3.53,3.53,0,0,0,2.25-1c.19-.15.38-.3.59-.44a.11.11,0,0,0,0-.12s0-.09-.09-.09c-1-.17-1.94-.33-3-.49a.72.72,0,0,1-.38.52.09.09,0,0,0,0,0,1.38,1.38,0,0,1-.78.28,1.4,1.4,0,0,1-.82-.31l-.23-.2a1.42,1.42,0,0,1,.08.18c.36.79.63,1.41,1.82,1.6A3.26,3.26,0,0,0,145.05,75.59Zm1.57.82c.79.13,1.54.27,2.29.41l.09-1.57h.05a.42.42,0,0,0,.32-.24.39.39,0,0,0,0-.39.41.41,0,0,1-.07-.11,4.12,4.12,0,0,0-1.38.82,6.71,6.71,0,0,1-1.29.85.12.12,0,0,0,0,.23Zm10.93,2.23a4.2,4.2,0,0,1-.38-1.49c-.08-.63-.15-1-.46-1.27l0,0-1.22-.33a8.2,8.2,0,0,1-1.93,1,7.82,7.82,0,0,1-1.44.4,8.24,8.24,0,0,1-1.25.14h-.47c2.73.54,5.1,1.11,7,1.7h0a.18.18,0,0,0,.1,0A.12.12,0,0,0,157.55,78.64Zm2.59.46a3.77,3.77,0,0,0,1.78-.62l.6-.31a.12.12,0,0,0,.07-.11.12.12,0,0,0-.07-.1,29.79,29.79,0,0,0-4.35-1.67h0a.11.11,0,0,0-.07,0,.1.1,0,0,0,0,.11q.06.31.09.6c.12.94.24,1.54,1.19,1.91A2.28,2.28,0,0,0,160.14,79.1Zm3.29-.18a.12.12,0,0,0-.09,0h0a5.75,5.75,0,0,0-.92.44,7.11,7.11,0,0,1-1.33.6.12.12,0,0,0,0,.22,12.26,12.26,0,0,1,1.1.58h.06a.1.1,0,0,0,.1,0l1.14-1.62A.14.14,0,0,0,163.43,78.92Zm6-14a8.44,8.44,0,0,0-.51-2.17,3.81,3.81,0,0,0-1.25-1.74,1.86,1.86,0,0,0-.25-.14l-.08,0-.12,0-.06,0a4.34,4.34,0,0,0-.48-.14,3.69,3.69,0,0,0-.65-.07,2.47,2.47,0,0,0-.39,0,3,3,0,0,0-1.79,1,8.19,8.19,0,0,0-1.28,1.79,31.11,31.11,0,0,0-1.8,4,24.27,24.27,0,0,1-1.79,4,13.71,13.71,0,0,1-2.49,3.22l-.11.1.12,0a2.52,2.52,0,0,1,.62.27c1.55.44,2.9.88,4.07,1.34a2.89,2.89,0,0,1-.63-.85l-.07-.15-.07-.19a3,3,0,0,1-.13-.58l0-.14v0a1.89,1.89,0,0,1,.47-1.64,1.3,1.3,0,0,1,.8-.26,1.5,1.5,0,0,1,1.09.44l0,0a1.06,1.06,0,0,0-.61.39,1.68,1.68,0,0,0-.15,1.48L162,75a1.28,1.28,0,0,0,.48.62,1.86,1.86,0,0,0,1.14.35,2.53,2.53,0,0,0,.71-.1,5.46,5.46,0,0,0,2.41-1.6,9,9,0,0,0,1.07-1.36,9.59,9.59,0,0,0,.85-1.7,13.29,13.29,0,0,0,.88-4A11.78,11.78,0,0,0,169.47,65ZM101.22,54.24a1.92,1.92,0,1,0,1.91-1.91A1.92,1.92,0,0,0,101.22,54.24ZM103.81,58a.68.68,0,1,0-.68.68A.67.67,0,0,0,103.81,58Zm-.58,1.74a1.92,1.92,0,1,0,1.92,1.92A1.92,1.92,0,0,0,103.23,59.76Zm-63.59,53.9c-1.58.07-2.72.1-4.18.1-2.3,0-3.95,0-5.35-.1a.2.2,0,0,0-.2.17.78.78,0,0,0,0,.34.18.18,0,0,0,.16.14l1.1.19c2.29.37,2.58.53,2.58,3.32v1.28a4.55,4.55,0,0,1-.36,2.36c-.48.6-1.56.9-3.32.9a9.39,9.39,0,0,1-7-3.1,12.91,12.91,0,0,1-2.6-8.29c0-6.74,3.54-10.75,9.47-10.75,3.7,0,6.19,1.84,7,5.19a.19.19,0,0,0,.13.14.48.48,0,0,0,.21,0,.75.75,0,0,0,.29-.06.21.21,0,0,0,.13-.2c-.09-1.38-.2-2.52-.29-3.47-.06-.61-.12-1.19-.15-1.65a.19.19,0,0,0-.18-.18,17.37,17.37,0,0,1-1.95-.31,26.4,26.4,0,0,0-4.68-.53c-4.76,0-8.63,1.43-11.19,4.14a11.67,11.67,0,0,0-3.21,8.2,11.55,11.55,0,0,0,3.07,8c3.05,3.18,7.56,3.85,10.79,3.85a35,35,0,0,0,6.85-1,10.17,10.17,0,0,1,1.32-.26.19.19,0,0,0,.17-.14.19.19,0,0,0-.06-.21,3.3,3.3,0,0,1-.7-2.5v-2.06c0-2.24.26-2.66,1.7-2.86l.5-.08a.2.2,0,0,0,.15-.12.53.53,0,0,0,0-.25.48.48,0,0,0-.05-.17A.2.2,0,0,0,39.64,113.66Zm30.9,9.08a.21.21,0,0,1-.16.2,11.44,11.44,0,0,1-2.06.15c-3.18,0-5-1.16-7.26-4.6-.54-.83-1.08-1.8-1.61-2.74-.43-.77-.82-1.48-1.19-2.08a2.18,2.18,0,0,0-2.38-1.31c-1.1,0-1.3.08-1.3,1v4.54c0,3.87.38,4.06,2.17,4.29l.58.08a.19.19,0,0,1,.17.15,1,1,0,0,1,0,.34.2.2,0,0,1-.2.16c-3-.13-6-.14-9.17,0a.22.22,0,0,1-.2-.14.55.55,0,0,1,0-.25.37.37,0,0,1,0-.11.2.2,0,0,1,.17-.15l.62-.08c1.78-.23,2.16-.42,2.16-4.29v-13c0-3.32,0-4-1.88-4.21l-.74-.09a.2.2,0,0,1-.17-.14.65.65,0,0,1,0-.34.2.2,0,0,1,.17-.15c2.12-.19,5-.3,8-.3a14.74,14.74,0,0,1,6.65,1.18,5.39,5.39,0,0,1,3,5c0,3.25-2.59,4.8-4.13,5.43a.46.46,0,0,0-.25.28.84.84,0,0,0,.15.62l.13.2c2.82,4.77,4.53,7.65,6.2,9a4.8,4.8,0,0,0,2.36,1.12A.21.21,0,0,1,70.54,122.74ZM56.66,100.68c-1.92,0-2.08.14-2.08,1.94V110c0,1.3.14,1.4,1.91,1.4,3.5,0,5.28-1.77,5.28-5.28C61.77,103.42,60,100.68,56.66,100.68Zm41.28,21.69a.74.74,0,0,1,0,.35.19.19,0,0,1-.21.18c-1.45-.06-2.73-.09-4.38-.09-1.14,0-2.3,0-3.32.07l-.83,0h0a.2.2,0,0,1-.19-.14,1,1,0,0,1,0-.34.21.21,0,0,1,.17-.18l.57-.07c.55-.07,1-.14,1.23-.46s.09-.93-.14-1.68l-1.67-4.84c-.38-1-.56-1.1-1.65-1.1H82.81c-1,0-1.06.07-1.36,1L80,119.46c-.41,1.21-.56,1.8-.33,2.17s.68.4,1.23.47l.85.15a.19.19,0,0,1,.16.15,1,1,0,0,1,0,.35.19.19,0,0,1-.21.15c-.75,0-1.52-.05-2.34-.07l-1.23,0c-1.09,0-2.11,0-3.31.09a.18.18,0,0,1-.21-.16.69.69,0,0,1,0-.35.19.19,0,0,1,.16-.14l.87-.15c1.1-.15,1.55-.52,2.1-1.74.37-.8.84-2,1.44-3.55l.31-.8,4.87-12.65a7.51,7.51,0,0,0,.7-2.37.22.22,0,0,1,.14-.18,6,6,0,0,0,2.09-1.51l0,0a.19.19,0,0,1,.19,0,.45.45,0,0,1,.21.12.2.2,0,0,1,0,.08c.27.76.52,1.56.77,2.33s.52,1.65.81,2.46l5.11,14.88c.83,2.42,1,2.75,3,3.08l.39.08A.21.21,0,0,1,97.94,122.37Zm-9.83-10.65-1.55-4.46a14.48,14.48,0,0,0-1-2.66.19.19,0,0,0-.16-.09h-.07a.22.22,0,0,0-.18.1,11.27,11.27,0,0,0-.42,1.09l-.65,1.75-1.5,4.16c-.23.6-.3.88-.15,1.08s.38.22.91.22h3.69c.57,0,.92,0,1.1-.26S88.26,112.15,88.11,111.72Zm38,5.22a.2.2,0,0,0-.09.09c-1.55,3.53-4.09,5.33-7.56,5.33-4.58,0-9.51-3.59-9.51-11.47,0-7.37,4.65-10.67,9.26-10.67,3.64,0,6.07,1.79,7,5.18a.2.2,0,0,0,.14.14,1,1,0,0,0,.48,0,.19.19,0,0,0,.13-.22c-.24-1.89-.34-3.52-.4-4.49l0-.51a.2.2,0,0,0-.16-.19h0l-.67-.15a27.1,27.1,0,0,0-6.09-.78,16.32,16.32,0,0,0-9.68,3,11.38,11.38,0,0,0-4.4,9.26,11.05,11.05,0,0,0,4.95,9.6,16,16,0,0,0,9,2.35,21.22,21.22,0,0,0,5.49-.85l.31-.09c.26-.07.52-.15.78-.2a.21.21,0,0,0,.13-.09,14.24,14.24,0,0,0,1.56-5,.19.19,0,0,0-.1-.19A.54.54,0,0,0,126.13,116.94Zm27.73,1a.76.76,0,0,0-.57-.08.22.22,0,0,0-.12.11c-1.22,2.79-2.07,3.84-6.24,3.84h-.43c-2.94,0-3.66-.26-4.16-.85s-.65-1.78-.65-3.83V112.6c0-.95.09-1.16,1.05-1.16h1.7c2.89,0,3.86,0,4.14,1.73l.22,1.22a.21.21,0,0,0,.14.16,1.48,1.48,0,0,0,.46,0,.2.2,0,0,0,.16-.21c0-.26,0-.53,0-.8,0-.86-.06-1.75-.06-2.7s0-2,.07-2.84l0-.51a.19.19,0,0,0-.15-.2,1,1,0,0,0-.48,0,.17.17,0,0,0-.13.14l-.22,1c-.28,1.73-1.1,1.73-4.14,1.73h-1.7c-1,0-1.05-.19-1.05-1.16v-6c0-2.1,0-2.3,1.72-2.3h2.38a10.15,10.15,0,0,1,2.89.33c1.29.32,1.82,1.37,2.34,3.19a.19.19,0,0,0,.15.14,1.2,1.2,0,0,0,.46,0,.2.2,0,0,0,.15-.23c-.09-.68-.17-1.54-.26-2.38s-.15-1.5-.21-2a.19.19,0,0,0-.21-.17c-.76,0-2.42.07-4.45.07h-6.79c-1.54,0-3.14,0-4.4-.09a.2.2,0,0,0-.2.15.91.91,0,0,0,0,.33.18.18,0,0,0,.17.16l.38,0c1.88.28,2.16.57,2.16,4.32v13.21c0,3.75-.3,4-2.17,4.25l-1.12.12a.2.2,0,0,0-.17.16.86.86,0,0,0,0,.32.2.2,0,0,0,.2.17h0c1.64-.07,3.77-.1,5.16-.1h4c4,0,6.92,0,8.52.09a.19.19,0,0,0,.19-.11,24.92,24.92,0,0,0,1.33-4.67A.2.2,0,0,0,153.86,117.92ZM11,141.9A2.55,2.55,0,0,1,10,144a5.35,5.35,0,0,1-3.58.89c-.37,0-.72,0-1.06,0h0l-.89,0c-.71,0-1.44,0-2.11.05,0,0,0,0,0,0a.23.23,0,0,1-.05-.11.35.35,0,0,1,0-.23l0,0,.31,0c.78-.1.92-.17.92-1.86v-5.83c0-1.48,0-1.74-.79-1.83l-.38,0s0,0,0,0a.29.29,0,0,1,0-.21.2.2,0,0,1,.07-.15h0c1.1-.09,2.31-.13,3.58-.13a6.34,6.34,0,0,1,3.1.53,2.15,2.15,0,0,1,1.1,2,2.2,2.2,0,0,1-1.78,2,.15.15,0,0,0-.12.12c0,.07.08.11.15.13A2.79,2.79,0,0,1,11,141.9Zm-2,.24c0-1.63-1.12-2.65-2.92-2.65-.69,0-.77.09-.77.45v2.29c0,1.44.15,2.07,1.58,2.07A2,2,0,0,0,9,142.14Zm-.75-5.24a1.91,1.91,0,0,0-2.06-2c-.79,0-.88,0-.88.71v2.87c0,.44.09.47.72.47C7.6,139,8.28,138.33,8.28,136.9Zm10.82,6.4v0a2.84,2.84,0,0,1-2.65,1.7,3,3,0,0,1-3-3.14,3.35,3.35,0,0,1,3.32-3.5,2.2,2.2,0,0,1,2.35,2.11.65.65,0,0,1-.08.35c-.1.16-.63.19-1.06.19H15.2c-.31,0-.37,0-.37.24a2.48,2.48,0,0,0,2.44,2.62,1.7,1.7,0,0,0,1.53-.78s0,0,.05,0A.29.29,0,0,1,19.1,143.3Zm-4.14-3c0,.1.07.15.25.15h1.45a1.75,1.75,0,0,0,.8-.12.43.43,0,0,0,.18-.37,1,1,0,0,0-1.09-1.06A1.64,1.64,0,0,0,15,140.34Zm13.18,3.8a.34.34,0,0,1,0,.23h0a2.15,2.15,0,0,1-1.55.66,1.5,1.5,0,0,1-1.12-.43l-.05-.05c-.09-.1-.15-.15-.23-.15a.75.75,0,0,0-.32.15l-.13.07a2.46,2.46,0,0,1-1.33.41,1.46,1.46,0,0,1-1.59-1.5c0-.52.16-1,1.3-1.45.62-.21,1.29-.46,1.75-.64s.39-.28.39-.44v-.42a1.71,1.71,0,0,0-.33-1.28.87.87,0,0,0-.67-.26.81.81,0,0,0-.88.73.63.63,0,0,1-.29.54,2.1,2.1,0,0,1-1,.29c-.17,0-.27-.08-.27-.22s.1-.52.61-1a4.38,4.38,0,0,1,2.42-1,2,2,0,0,1,1.51.51,1.89,1.89,0,0,1,.43,1.44l-.11,2.48a1.66,1.66,0,0,0,.27,1.24.72.72,0,0,0,.53.2,1.09,1.09,0,0,0,.47-.14h0l.06,0s0,0,.05,0ZM25.08,142a3,3,0,0,0-.72.19c-.53.19-.88.45-.88,1.1a.93.93,0,0,0,.93,1,.74.74,0,0,0,.8-.8l0-1.14C25.24,142.1,25.18,142,25.08,142Zm12.38,2.15a2.28,2.28,0,0,1-.64.1c-.43,0-.43-.88-.43-1.72v-2.66c0-.6,0-1.06,0-1.32a0,0,0,0,0,0,0,.14.14,0,0,0-.09-.11h0a9.23,9.23,0,0,1-2.44.27h0a.24.24,0,0,0-.08.16.61.61,0,0,0,0,.15h0s0,0,0,.06l.25.08c.6.17.73.24.73,1.3v2.41c0,.57,0,.73-.2.91a1.64,1.64,0,0,1-1.08.41c-1.19,0-1.34-1-1.34-1.85v-2.45a10.12,10.12,0,0,1,0-1.32v0a.16.16,0,0,0-.1-.11h0a8.25,8.25,0,0,1-2.16.27h0a.14.14,0,0,0-.07.12.66.66,0,0,0,0,.13h0v0a.06.06,0,0,0,0,.06l.23.07c.41.13.48.24.48,1.38V143c0,1.46.56,2.08,1.86,2.08a4.16,4.16,0,0,0,2.14-.76h0c.08,0,.17,0,.2.21a2.58,2.58,0,0,1,0,.56v0a.14.14,0,0,0,.07.11h.06a9.94,9.94,0,0,1,2.54-.58h0a.32.32,0,0,0,.13-.26.39.39,0,0,0,0-.17A.06.06,0,0,0,37.46,144.14Zm6.48-.21a0,0,0,0,0,0,0,1.24,1.24,0,0,1-.75.27c-.63,0-1.2-.24-1.2-1.93v-2.45c0-.51,0-.58.34-.58h1.51a.45.45,0,0,0,.17-.36.82.82,0,0,0,0-.27.05.05,0,0,0-.05,0H42.29c-.32,0-.33-.07-.33-.34v-.92a.05.05,0,0,0,0,0,.28.28,0,0,0-.22-.09h-.08a.07.07,0,0,0-.06,0,3,3,0,0,1-.89,1,5,5,0,0,1-1.26.67.17.17,0,0,0-.07.17.3.3,0,0,0,0,.16.05.05,0,0,0,.05,0H40c.28,0,.32,0,.32.61v3.23c0,1,.21,1.95,1.75,1.95a2.5,2.5,0,0,0,2-.82s0,0,0,0a.26.26,0,0,0,0-.2A.16.16,0,0,0,43.94,143.93Zm10-5.26s0,0,0,0a0,0,0,0,0,0,0,.05.05,0,0,0,0,0c-.43,0-.86,0-1.28,0l-1.48,0,0,0a.26.26,0,0,0-.06.13.4.4,0,0,0,0,.22.05.05,0,0,0,0,0l.51.11c.19,0,.33.11.33.3a9.67,9.67,0,0,1-.58,1.56L50.85,142c-.4.9-.48,1-.53,1h0s-.15-.12-.56-1.23L49,140c-.16-.41-.23-.62-.17-.74s.16-.12.31-.15l.44-.09a.05.05,0,0,0,0,0,.35.35,0,0,0,0-.23.17.17,0,0,0,0-.12l0,0c-.52,0-1.1,0-1.66,0s-1.29,0-1.73-.06h0a.17.17,0,0,0-.11.13.3.3,0,0,0,.05.24.05.05,0,0,0,0,0l.29.06c.62.13.73.37,1.12,1.37l1.29,3.35a3,3,0,0,1,.27,1.18,4,4,0,0,1-.79,2,.86.86,0,0,1-.69.34h-.35c-.5,0-.78.24-.78.68a.76.76,0,0,0,.84.81,1.23,1.23,0,0,0,1.18-.84c.64-1.41,2-4.23,2.62-5.38l.81-1.62a6.08,6.08,0,0,1,1-1.61,1.66,1.66,0,0,1,.81-.34l.08,0,0,0a.38.38,0,0,0,0-.26Zm19.69,5.8-.32,0c-.77-.1-.92-.17-.92-1.86v-5.92c0-1.69.15-1.77.92-1.87l.25,0h0a.24.24,0,0,0,.05-.21.25.25,0,0,0-.05-.16l0,0c-.63,0-1.32,0-2,0s-1.38,0-2.11,0h0l0,0a.25.25,0,0,0,0,.16.33.33,0,0,0,0,.1h0a0,0,0,0,0,0,0,.08.08,0,0,0,0,.07l.35,0c.77.1.92.18.92,1.87v1.92c0,.5-.1.52-.89.52H66c-.79,0-.89,0-.89-.52v-1.92c0-1.69.14-1.77.92-1.87l.23,0h0s.07-.11.06-.21a.28.28,0,0,0,0-.16l0,0c-.59,0-1.3,0-2,0s-1.43,0-2.12,0l0,0a.3.3,0,0,0-.06.16v.1h0s0,0,0,0a.07.07,0,0,0,.06.07l.34,0c.78.1.93.18.93,1.87v5.92c0,1.69-.15,1.76-.92,1.88l-.19,0,0,0a.34.34,0,0,0,0,.23.28.28,0,0,0,0,.11.05.05,0,0,0,0,0h0c.58,0,1.28-.05,2-.05s1.46,0,2.2.06h0a.21.21,0,0,0,.08-.15.34.34,0,0,0,0-.22l0,0-.44-.06c-.78-.08-.92-.15-.92-1.84v-2.34c0-.48.1-.5.89-.5h3.73c.79,0,.89,0,.89.5v2.34c0,1.69-.15,1.76-.92,1.86l-.31,0-.05,0a.43.43,0,0,0,0,.23s0,0,0,.05h0v0a.06.06,0,0,0,.06.06h0c1.35-.06,2.84-.07,4.23,0,0,0,0,0,0,0s0-.07.05-.12a.32.32,0,0,0,0-.22Zm7.62-1.17s0,0,0,0a2.84,2.84,0,0,1-2.64,1.7,3,3,0,0,1-3-3.14,3.35,3.35,0,0,1,3.32-3.5,2.2,2.2,0,0,1,2.35,2.11.75.75,0,0,1-.07.35c-.11.16-.64.19-1.07.19H77.33c-.31,0-.37,0-.37.24a2.48,2.48,0,0,0,2.44,2.62,1.7,1.7,0,0,0,1.53-.78s0,0,0,0A.29.29,0,0,1,81.23,143.3Zm-4.14-3c0,.1.07.15.25.15h1.45a1.75,1.75,0,0,0,.8-.12.43.43,0,0,0,.18-.37,1,1,0,0,0-1.09-1.06A1.64,1.64,0,0,0,77.09,140.34Zm13,3.8a.29.29,0,0,1,0,.23h0a2.15,2.15,0,0,1-1.55.66,1.51,1.51,0,0,1-1.12-.43l0-.05c-.1-.1-.16-.15-.24-.15a.75.75,0,0,0-.32.15l-.12.07a2.53,2.53,0,0,1-1.34.41,1.46,1.46,0,0,1-1.58-1.5c0-.52.15-1,1.29-1.45.62-.21,1.3-.46,1.75-.64s.39-.28.39-.44l0-.42a1.71,1.71,0,0,0-.34-1.28.87.87,0,0,0-.67-.26.81.81,0,0,0-.88.73.63.63,0,0,1-.28.54,2.14,2.14,0,0,1-1,.29c-.17,0-.27-.08-.27-.22s.11-.52.61-1a4.38,4.38,0,0,1,2.42-1,2,2,0,0,1,1.51.51,1.85,1.85,0,0,1,.43,1.44l-.11,2.48a1.7,1.7,0,0,0,.27,1.24.72.72,0,0,0,.53.2,1,1,0,0,0,.47-.14l.07,0s0,0,0,0ZM87.05,142a2.8,2.8,0,0,0-.71.19,1.1,1.1,0,0,0-.89,1.1.93.93,0,0,0,.93,1,.74.74,0,0,0,.8-.8l0-1.14C87.21,142.1,87.16,142,87.05,142Zm8.48,2.48-.31,0c-.56-.08-.63-.26-.63-1.47v-7c0-.71,0-1.69,0-2.27v0a.24.24,0,0,0-.15-.11h0l-.1,0c-.62.24-1.39.55-2,.72h0s-.05.07-.05.13,0,.14.06.16l.18.11c.42.25.43.38.43,1.45V143c0,1.21-.08,1.39-.64,1.47l-.29,0,0,0a.43.43,0,0,0,0,.23.28.28,0,0,0,0,.11s0,0,0,0c.65,0,1.17-.05,1.68-.05s1.09,0,1.75.05h0a.05.05,0,0,0,0,0s0-.07,0-.11a.43.43,0,0,0,0-.23Zm6.93-.54a0,0,0,0,0,0,0,1.27,1.27,0,0,1-.75.27c-.63,0-1.2-.24-1.2-1.93v-2.45c0-.51,0-.58.34-.58h1.51a.48.48,0,0,0,.17-.36.82.82,0,0,0,0-.27.05.05,0,0,0,0,0h-1.58c-.32,0-.34-.07-.34-.34v-.92s0,0,0,0a.28.28,0,0,0-.22-.09h-.08a.07.07,0,0,0-.06,0,3,3,0,0,1-.89,1,5,5,0,0,1-1.26.67.17.17,0,0,0-.07.17.3.3,0,0,0,.05.16.05.05,0,0,0,0,0h.56c.28,0,.32,0,.32.61v3.23c0,1,.21,1.95,1.75,1.95a2.51,2.51,0,0,0,2-.82s0,0,0,0a.26.26,0,0,0,0-.2A.16.16,0,0,0,102.46,143.93Zm10.09.54-.34,0c-.55-.08-.63-.26-.63-1.47v-2.37c0-1.41-.71-2.19-2-2.19a3.37,3.37,0,0,0-2,.76h0c-.15,0-.18-.12-.18-.31v-2.94c0-.7,0-1.67.06-2.27a0,0,0,0,0,0,0,.2.2,0,0,0-.15-.11h0l-.35.14c-.57.22-1.22.48-1.73.62h0a.17.17,0,0,0-.05.13c0,.08,0,.15.06.17l.22.15c.37.21.39.34.39,1.41V143c0,1.21-.08,1.39-.64,1.47l-.31,0,0,0a.35.35,0,0,0,0,.23.23.23,0,0,0,.05.11s0,0,0,0c.67,0,1.19-.05,1.69-.05s1.1,0,1.65.05c0,0,0,0,0,0a.23.23,0,0,0,0-.11.35.35,0,0,0,0-.23l0,0-.2,0c-.56-.1-.64-.28-.64-1.49v-2.13c0-.62,0-.87.21-1.07a1.5,1.5,0,0,1,1.1-.47,1.25,1.25,0,0,1,1.31,1.43V143c0,1.21-.08,1.39-.64,1.49l-.2,0,0,0a.43.43,0,0,0,0,.23s0,.09.05.11a0,0,0,0,0,0,0c.54,0,1.07-.05,1.59-.05s1.08,0,1.77.05h0a.18.18,0,0,0,.07-.15.28.28,0,0,0,0-.22Zm18.82-2.41a.32.32,0,0,0-.14,0l0,0a3.45,3.45,0,0,1-3.36,2.39c-2,0-4.2-1.59-4.2-5.08,0-3.26,2.06-4.73,4.09-4.73a3,3,0,0,1,3.11,2.32l0,0a.42.42,0,0,0,.39,0,0,0,0,0,0,0-.06c-.11-.86-.16-1.61-.19-2.07a2.33,2.33,0,0,0,0-.29.07.07,0,0,0,0-.05l-.08,0-.3-.06a11.94,11.94,0,0,0-2.74-.35,7.39,7.39,0,0,0-4.37,1.34,5.17,5.17,0,0,0-2,4.19,5,5,0,0,0,2.24,4.34,7.14,7.14,0,0,0,4,1.06,9.54,9.54,0,0,0,2.48-.38l.14,0c.13,0,.25-.07.38-.09l0,0a6.33,6.33,0,0,0,.72-2.33s0,0,0,0A.32.32,0,0,0,131.37,142.06Zm6.33,2.41-.31,0c-.56-.08-.64-.26-.64-1.47v-7c0-.71,0-1.69.06-2.27,0,0,0,0,0,0a.2.2,0,0,0-.15-.11s0,0,0,0l-.11,0a20.71,20.71,0,0,1-2,.72h0a.17.17,0,0,0,0,.14c0,.06,0,.14.06.16l.17.11c.42.25.43.38.43,1.45V143c0,1.21-.07,1.39-.63,1.47l-.3,0,0,0a.35.35,0,0,0,0,.23.18.18,0,0,0,0,.11s0,0,.05,0c.66,0,1.18-.05,1.69-.05s1.09,0,1.75.05h0s0,0,0,0a.28.28,0,0,0,.05-.11.35.35,0,0,0,0-.23Zm4.34-8.24a1,1,0,1,0-1-1A.93.93,0,0,0,142,136.23Zm1.69,8.24-.25,0c-.56-.08-.64-.26-.64-1.47v-2.75c0-.68,0-1.42,0-1.91a.06.06,0,0,0,0,0,.23.23,0,0,0-.14-.07h-.05a9.63,9.63,0,0,1-2,.84s0,0,0,0a.52.52,0,0,0,0,.18v0h0s0,0,0,.07l.19.11c.42.25.42.46.42,1.17V143c0,1.21-.08,1.39-.64,1.47l-.25,0s0,0,0,0a.35.35,0,0,0,0,.23.13.13,0,0,0,.05.11s0,0,0,0h0c.59,0,1.13-.05,1.64-.05s1.1,0,1.69.05l0,0a.28.28,0,0,0,.05-.11.41.41,0,0,0,0-.23S143.75,144.47,143.73,144.47Zm10.23,0-.33,0c-.56-.08-.64-.26-.64-1.47V140.5c0-1.33-.67-2.1-1.85-2.1a3.16,3.16,0,0,0-1.8.58l0,0-.34.19h0c-.09,0-.17,0-.17-.2a7,7,0,0,1,0-.7s0,0,0,0a.18.18,0,0,0-.13-.08h0a10.77,10.77,0,0,1-2,.84s0,0,0,0a.63.63,0,0,0,0,.19v0a.06.06,0,0,0,0,.07l.2.11c.41.25.41.46.41,1.17V143c0,1.21-.08,1.39-.63,1.47l-.32,0,0,0a.35.35,0,0,0,0,.23.16.16,0,0,0,.05.11s0,0,0,0h0c.67,0,1.19-.05,1.69-.05s1.1,0,1.65.05c0,0,0,0,0,0s0-.07.05-.12a.4.4,0,0,0,0-.22l0,0-.2,0c-.55-.1-.63-.28-.63-1.49v-2.13c0-.6,0-.74.23-1a1.34,1.34,0,0,1,1.08-.5c.85,0,1.31.51,1.31,1.48V143c0,1.21-.08,1.39-.64,1.49l-.2,0,0,0a.34.34,0,0,0,0,.23.28.28,0,0,0,.05.11.05.05,0,0,0,.05,0c.54,0,1.08-.05,1.59-.05s1.08,0,1.77.05l0,0a.19.19,0,0,0,.05-.13.33.33,0,0,0,0-.22Zm5.54,0-.25,0c-.56-.08-.64-.26-.64-1.47v-2.75c0-.68,0-1.42,0-1.91a.08.08,0,0,0,0,0,.19.19,0,0,0-.14-.07h0a9.5,9.5,0,0,1-2,.84s0,0,0,0a1,1,0,0,0,0,.19v0s0,0,0,.07l.19.11c.41.25.41.46.41,1.17V143c0,1.21-.07,1.39-.63,1.47l-.25,0s0,0,0,0a.34.34,0,0,0,0,.23.28.28,0,0,0,0,.11.05.05,0,0,0,.05,0h0c.59,0,1.13-.05,1.64-.05s1.1,0,1.69.05a.05.05,0,0,0,0,0s0-.07,0-.11a.35.35,0,0,0,0-.23A.05.05,0,0,0,159.5,144.47Zm-1.69-8.24a1,1,0,1,0-1-1A.93.93,0,0,0,157.81,136.23Zm9.69,6.87s0,0-.06,0a1.79,1.79,0,0,1-1.71.82,2.36,2.36,0,0,1-2.31-2.55c0-1.52,1-2.42,1.88-2.42a2,2,0,0,1,1.47,1c.11.14.18.16.28.16s.36-.21.36-.71a1,1,0,0,0-.27-.76l0,0a4.15,4.15,0,0,0-1.35-.22,3.55,3.55,0,0,0-3.88,3.53,3.13,3.13,0,0,0,.91,2.26A3.17,3.17,0,0,0,165,145a3,3,0,0,0,2.76-1.66v0A.27.27,0,0,0,167.5,143.1Z"/></g></g></svg>