<svg xmlns="http://www.w3.org/2000/svg" width="62" height="74" viewBox="0 0 62 74"><defs><style>.cls-1 { fill: #fff; fill-rule: evenodd; }</style></defs><path id="シェイプ_8" class="cls-1" d="M388.384 448.357h-56.768v-62.228h20.615v1.858a13.218 13.218 0 0 0-2.846 1.935 11.42 11.42 0 0 0-2.231 2.709 11.655 11.655 0 0 0-1.692 3.019 18.833 18.833 0 0 0-.923 3.327h30.922a15.457 15.457 0 0 0-1-3.327 18.74 18.74 0 0 0-1.615-3.019 17.215 17.215 0 0 0-2.308-2.709 11.607 11.607 0 0 0-2.769-1.935v-1.858h20.615v62.228zm-20.769-64.857a6.257 6.257 0 0 0-.846-2.554 8.489 8.489 0 0 0-1.769-2.09 7.659 7.659 0 0 0-2.308-1.393 7.784 7.784 0 0 0-2.769-.464 7.977 7.977 0 0 0-2.692.464 5.859 5.859 0 0 0-2.231 1.391 8.489 8.489 0 0 0-1.769 2.09 6.257 6.257 0 0 0-.846 2.554h-23.385v67.49h62v-67.488h-23.385zm-23.076 49.379h20.615v-2.631h-20.615v2.631zm0-10.37h30.922v-2.632h-30.922v2.632zm0-10.527h30.922v-2.482h-30.922v2.477z" transform="translate(-329 -377)"/></svg>