<svg xmlns="http://www.w3.org/2000/svg" width="67" height="46.969" viewBox="0 0 67 46.969"><defs><style>.cls-1 { fill: #fff; fill-rule: evenodd; }</style></defs><path id="icon-menu" class="cls-1" d="M88.018 432.2a5.46 5.46 0 0 0-.745 1.1 2.785 2.785 0 0 0-.273 1.258 2.974 2.974 0 0 0 .275 1.338 3.943 3.943 0 0 0 .745 1.023 3.8 3.8 0 0 0 1.059.787 3.667 3.667 0 0 0 2.589 0 3.8 3.8 0 0 0 1.059-.787 3.945 3.945 0 0 0 .745-1.023 2.974 2.974 0 0 0 .274-1.338 2.785 2.785 0 0 0-.274-1.259 5.464 5.464 0 0 0-.745-1.1 3.405 3.405 0 0 0-4.709.001zm0-20.148a5.46 5.46 0 0 0-.745 1.1 2.785 2.785 0 0 0-.273 1.258 2.974 2.974 0 0 0 .275 1.338 3.947 3.947 0 0 0 .745 1.024 3.792 3.792 0 0 0 1.059.786 3.653 3.653 0 0 0 2.589 0 3.792 3.792 0 0 0 1.059-.786 3.949 3.949 0 0 0 .745-1.024 2.974 2.974 0 0 0 .274-1.338 2.785 2.785 0 0 0-.274-1.259 5.464 5.464 0 0 0-.745-1.1 3.405 3.405 0 0 0-4.709-.002zm0-20.147a5.455 5.455 0 0 0-.745 1.1 2.785 2.785 0 0 0-.273 1.257 2.974 2.974 0 0 0 .275 1.338 3.91 3.91 0 0 0 .745 1.023 3.8 3.8 0 0 0 1.059.788 3.667 3.667 0 0 0 2.589 0 3.8 3.8 0 0 0 1.059-.788 3.912 3.912 0 0 0 .745-1.023 2.974 2.974 0 0 0 .274-1.338 2.785 2.785 0 0 0-.276-1.262 5.459 5.459 0 0 0-.745-1.1 3.4 3.4 0 0 0-4.707 0zm62.6 39.351h-43.538a3.105 3.105 0 0 0-3.3 3.305 3.356 3.356 0 0 0 .9 2.479 3.227 3.227 0 0 0 2.393.905h43.537a3.363 3.363 0 0 0 2.432-.905 3.277 3.277 0 0 0 .941-2.479 3.18 3.18 0 0 0-.941-2.4 3.366 3.366 0 0 0-2.425-.908zm0-20.148h-43.538a3.107 3.107 0 0 0-3.3 3.305 3.358 3.358 0 0 0 .9 2.479 3.228 3.228 0 0 0 2.393.906h43.537a3.364 3.364 0 0 0 2.432-.906 3.279 3.279 0 0 0 .941-2.479 3.177 3.177 0 0 0-.941-2.4 3.363 3.363 0 0 0-2.425-.908zm-43.538-13.461h43.537a3.367 3.367 0 0 0 2.432-.9 3.281 3.281 0 0 0 .941-2.48 3.177 3.177 0 0 0-.941-2.4 3.367 3.367 0 0 0-2.432-.905h-43.537a3.107 3.107 0 0 0-3.3 3.305 3.36 3.36 0 0 0 .9 2.48 3.231 3.231 0 0 0 2.4.9z" transform="translate(-87 -390.969)"/></svg>