<svg xmlns="http://www.w3.org/2000/svg" width="62" height="62" viewBox="0 0 62 62"><defs><style>.cls-1 { fill: #fff; fill-rule: evenodd; }</style></defs><path id="シェイプ_9" class="cls-1" d="M580.625 388.813q0-1.938 3.875-1.938a12.156 12.156 0 0 1 8.719 3.633l-.061.121-.06.121h-8.6q-3.872 0-3.873-1.937zm38.75 0q0 1.937-3.875 1.937h-8.84v-.121a12.1 12.1 0 0 1 8.84-3.754q3.874 0 3.875 1.938zm-19.375 5.812h15.5q3.874 0 5.813-1.635a5.473 5.473 0 0 0 0-8.355q-1.938-1.635-5.813-1.635a16.119 16.119 0 0 0-11.625 4.844 8.048 8.048 0 0 0-4-1.09 7.839 7.839 0 0 0-3.875 1.09 15.717 15.717 0 0 0-11.5-4.844q-3.874 0-5.813 1.635a5.473 5.473 0 0 0 0 8.355q1.938 1.635 5.813 1.635h15.5zm27.125 15.5h-23.125v-7.75h23.129v7.75zm-3.875 31h-19.25v-27.125h19.25v27.125zm-46.5 0v-27.125h19.375v27.125h-19.375zm-3.875-38.75h23.25v7.75h-23.25v-7.75zm54.25-3.875h-54.25a3.929 3.929 0 0 0-3.875 3.875v11.625h3.875v27.125a3.928 3.928 0 0 0 3.875 3.875h46.5a3.928 3.928 0 0 0 3.875-3.875v-27.125h3.875v-11.625a3.929 3.929 0 0 0-3.875-3.875z" transform="translate(-569 -383)"/></svg>