<svg xmlns="http://www.w3.org/2000/svg" width="40" height="74" viewBox="0 0 40 74"><defs><style>.cls-1 { fill: #fff; fill-rule: evenodd; }</style></defs><path id="シェイプ_1" class="cls-1" d="M854.9 377h-29.715a5.273 5.273 0 0 0-5.14 5.385v63.215a5.266 5.266 0 0 0 5.14 5.386h29.715a5.266 5.266 0 0 0 5.14-5.386v-63.212a5.273 5.273 0 0 0-5.14-5.388zm-22.186 3.279h14.66a1.579 1.579 0 0 1 0 2.6h-14.66a1.593 1.593 0 0 1 0-2.6zm7.336 65.387a3.44 3.44 0 1 1 3.265-3.435 3.374 3.374 0 0 1-3.265 3.435zm16.13-11.782h-32.28v-47.784h32.276v47.785zm0 0" transform="translate(-820.031 -377)"/></svg>