<svg xmlns="http://www.w3.org/2000/svg" width="12" height="22" viewBox="0 0 12 22"><defs><style>.cls-1 { fill: #262624; fill-rule: evenodd; }</style></defs><path id="シェイプ_1" class="cls-1" d="M1440.47 38h-8.91a1.576 1.576 0 0 0-1.55 1.6v18.8a1.573 1.573 0 0 0 1.55 1.6h8.91a1.571 1.571 0 0 0 1.54-1.6v-18.8a1.574 1.574 0 0 0-1.54-1.6zm-6.66.975h4.4a.472.472 0 0 1 0 .771h-4.4a.472.472 0 0 1 0-.771zm2.2 19.439a1.022 1.022 0 1 1 .98-1.021 1 1 0 0 1-.98 1.021zm4.84-3.5h-9.68v-14.208h9.68v14.206zm0 0" transform="translate(-1430 -38)"/></svg>