<svg xmlns="http://www.w3.org/2000/svg" width="50" height="36" viewBox="0 0 50 36">
  <defs>
    <style>
      .cls-1 {
        fill: #fff;
        fill-rule: evenodd;
      }
    </style>
  </defs>
  <path id="s__icon-envelope" class="cls-1" d="M469.065,383.59h0.009a1.818,1.818,0,0,0,1.05-.331l0.083-.057c0.017-.014.034-0.022,0.056-0.038l0.951-.85,22.733-20.2a0.256,0.256,0,0,0-.213-0.115H444.265a0.253,0.253,0,0,0-.165.064l23.787,21.108a1.776,1.776,0,0,0,1.178.421h0ZM444,364.858V394.8l17.04-14.824Zm32.981,15.225L494,394.813V364.955Zm-5.411,4.807a3.829,3.829,0,0,1-5,.006l-3.9-3.466L444,397.666v0.052a0.28,0.28,0,0,0,.269.284h49.469a0.279,0.279,0,0,0,.261-0.284v-0.047l-18.651-16.138Zm0,0" transform="translate(-444 -362)"/>
</svg>
