<svg xmlns="http://www.w3.org/2000/svg" width="37" height="56" viewBox="0 0 37 56">
  <defs>
    <style>
      .cls-1 {
        fill: #fff;
        fill-rule: evenodd;
      }
    </style>
  </defs>
  <path id="s__icon-tel" class="cls-1" d="M579.345,239.621c3.1,1.087,4.646-.3,5.214-1.27s1.051-2.29.566-2.949a4.645,4.645,0,0,0-2.447-1.7,4.088,4.088,0,0,0-1.949-.27,1.156,1.156,0,0,0-1,.85c-0.178.453-.569,1.258-0.941,1.1a15.41,15.41,0,0,1-3.9-3.969,14.944,14.944,0,0,1-2.593-4.865c-0.031-.39.876-0.434,1.378-0.45a1.176,1.176,0,0,0,1.158-.632,3.891,3.891,0,0,0,.385-1.914,4.4,4.4,0,0,0-.858-2.8c-0.485-.658-1.932-0.655-3.065-0.454s-3,1.15-2.959,4.343,2.039,6.9,3.491,8.872S576.239,238.534,579.345,239.621ZM588.286,202H564.714a6.62,6.62,0,0,0-6.728,6.5v39.079A10.591,10.591,0,0,0,568.751,258h15.5a10.591,10.591,0,0,0,10.765-10.408V208.509A6.62,6.62,0,0,0,588.286,202ZM576.5,254.631a1.607,1.607,0,1,1,1.661-1.606A1.634,1.634,0,0,1,576.5,254.631Zm-4.273-50.179h8.545a0.842,0.842,0,1,1,0,1.684h-8.545A0.842,0.842,0,1,1,572.227,204.452Zm-10.444,43.136V209.806h29.434v37.781a6.56,6.56,0,0,1-.122,1.23h-29.19A6.558,6.558,0,0,1,561.783,247.588Z" transform="translate(-558 -202)"/>
</svg>
