<svg xmlns="http://www.w3.org/2000/svg" viewBox="0 0 527.77 279.58"><defs><style>.cls-1{fill:#bc9a64;}</style></defs><title>アセット 1</title><g id="レイヤー_1-2"><path class="cls-1" d="M76.77 57.54c-8.59 0-15.74-.14-19.73-.39a2 2 0 0 0-.13 1 1.19 1.19 0 0 0 .17.52l5.91.67c9.43 1.1 10.01 2.66 10.01 14.66v5.62c0 4-.58 7.16-1.56 8.53-1.92 3-7.84 4.66-16.26 4.66-26.6-.04-43.11-18.81-43.11-49.16 0-19.1 10.52-41.4 40.14-41.4 16.49 0 25.91 6.46 29.63 20.32a2.5 2.5 0 0 0 1.9-.08 166.9 166.9 0 0 1-2-19.08 48.42 48.42 0 0 1-7.25-1.18l-.71-.15a82.1 82.1 0 0 0-17.64-2.08c-19.08 0-33.4 5.27-43.77 16.11-7.98 8.49-12.37 20.06-12.37 32.59a43.1 43.1 0 0 0 12.63 31.17c6.37 6.46 14.72 10.94 24.58 13.31-9.42.11-17.4.46-24.18 1.08a1.12 1.12 0 0 0-.27.69 1.44 1.44 0 0 0 .22 1l4.25.4c7.3.81 7.91 4.3 7.91 14.88v54.4c0 15.07-.24 17.61-8.71 18.88l-2.16.36a2.15 2.15 0 0 0-.1.75 2.4 2.4 0 0 0 .19.91l4.54-.16c3.55-.13 7.21-.26 11.54-.26 3.3 0 6.94.13 10.15.24a54.5 54.5 0 0 0-20.9 9.85c-10.99 8.48-17.29 21.8-17.29 36.36 0 15.72 6.92 29.15 19.49 37.79 9.26 6.21 20.51 9.23 34.4 9.23 8.74 0 18.72-2 21.84-3.17a31 31 0 0 1 4.7-1.37c1.94-2.76 5.22-11 6.25-18a2.25 2.25 0 0 0-1.16-.29 1.94 1.94 0 0 0-.67.11c-3.11 7.76-11.1 20.35-30.12 20.35-25.51 0-42.66-18.78-42.66-46.73 0-13.86 4.19-25.24 12.11-32.93 7.22-7 17.1-10.72 28.59-10.72 16.46 0 26.43 7 29.64 20.87a2.12 2.12 0 0 0 .88.18 2.08 2.08 0 0 0 1-.23c-1-7.5-1.64-15.39-1.85-19.25a14.1 14.1 0 0 1-2.91-.53l-.36-.09a107 107 0 0 0-18.28-3c13.78-3.53 21.41-12.22 21.41-25a22.8 22.8 0 0 0-18.37-22.92c-1.06-.19-3.54-.64-3.54-3.13v-.73l.58-.27c9.83-4.58 14-10.18 14-18.7 0-9.89-5.61-14.7-10.33-17a29.66 29.66 0 0 0-6-2.2 118.3 118.3 0 0 0 18.59-3.3 35.82 35.82 0 0 1 6.49-1.27c-3.12-1.58-3.59-6.26-3.59-10.68v-7.86c0-6.93 0-11.94 6.89-12.76l1.88-.24a1.73 1.73 0 0 0 .17-1 1.58 1.58 0 0 0-.18-.61c-4.62.31-9.29.43-14.52.43zm-3.1 105.46c0 13.37-8.56 21-23.48 21-3.63 0-8.84-.45-12.06-4.36-2.88-3.33-3.25-10.44-3.25-16.25v-21.14c0-4.1 2.09-4.72 9.3-4.72 8.87 0 29.49 2.47 29.49 25.47zm-6.87-47.1c0 9.1-2.79 18.51-23.44 19.32-1.26.05-2.31.08-3.18.08-4.87 0-5.3-1.32-5.3-5.09v-29.05c0-2.82.69-4 2.65-4.66a18.76 18.76 0 0 1 6.94-.92c10.79 0 22.33 5.34 22.33 20.33zM527.48 93.17c-5 .28-8.86.4-13 .4s-8.18-.12-13.45-.41a1.16 1.16 0 0 0-.23.55 1.65 1.65 0 0 0 .18 1.06l2.17.25c2.07.26 6.89 1.09 6.89 3.28 0 1.75-3.48 8.34-8.79 18.19l-.63 1.17c-3.63 7-7.91 14.72-13.48 24.23l-.88 1.51-.85-1.52c-4.14-7.31-8.15-15.48-12-23.38-1.4-2.84-2.79-5.67-4.18-8.44 0-.09-4.54-9.53-4.54-11.47 0-2.16 2.19-2.77 6.86-3.57l1.45-.22a2 2 0 0 0 .12-1.23 1 1 0 0 0-.19-.41c-3.58.28-8.66.41-15.11.41h-6.78a138.09 138.09 0 0 0 5.34-17.07 1.83 1.83 0 0 0-1.31-.53 1.3 1.3 0 0 0-.46.08c-3.62 7.17-7.51 12.41-10.47 14-3.41 1.71-8 2.25-18.77 2.25-12 0-15.82-1.37-18.05-3.6-2.52-2.68-3-7.54-3-15.58v-20.18c0-3.95.53-4.87 5.73-4.87h8.3c5.35 0 9.1.13 11.27.75 3.56.89 4.63 3.77 5.17 6.18l1.21 5.26a2.32 2.32 0 0 0 .93.18 2.16 2.16 0 0 0 .89-.17c0-1.3-.12-2.93-.23-4.79-.16-2.64-.34-5.63-.34-8.56s.18-6.15.34-8.88c.11-2 .21-3.75.23-5.17a2 2 0 0 0-.89-.18 2.14 2.14 0 0 0-.92.18l-1.07 5.52c-.8 4-2.06 5.08-4.1 5.76-2.26.75-8 .91-12.49.91h-8.35c-4.54 0-5.73-.2-5.73-5v-28.64c0-5.66.17-6.73 5.3-6.73h10.31c6.41 0 11 .15 14.13.89 7.67 1.92 9.28 7 11.32 13.43l.18.56a1.59 1.59 0 0 0 .62.1 2.53 2.53 0 0 0 1.05-.22l-.13-1.4c-.47-5.33-1.17-13.11-1.85-16.1-2.66.28-9.05.31-18.6.31h-26.87c-5.4 0-10.06-.12-16.49-.41a3 3 0 0 0-.18 1.61l1.9.24c9.62 1.14 9.62 4.57 9.62 19v51.57c0 15.07-.79 18.1-9.79 18.89l-4.24.38h-14.2c-4.69 0-6.6 0-7.84-3 1.94-2.78 5.21-11 6.24-18a2.3 2.3 0 0 0-1.17-.29 1.91 1.91 0 0 0-.66.1c-3.12 7.76-11.1 20.36-30.12 20.36-25.52.06-42.67-18.71-42.67-46.71 0-13.86 4.19-25.25 12.1-32.93 7.22-7 17.11-10.72 28.6-10.72 16.46 0 26.43 7 29.64 20.87a2.37 2.37 0 0 0 1.88-.05c-1-7.49-1.64-15.38-1.86-19.25a14 14 0 0 1-2.89-.54l-.37-.09a107.16 107.16 0 0 0-24.58-3.29c-14.57 0-27.47 4.05-37.29 11.72-11 8.54-17.3 21.81-17.3 36.42 0 15.72 6.92 29.14 19.49 37.78a53.81 53.81 0 0 0 22.51 8.4c1.22.29 2.37.61 3.25.84 1.53.4 4 1.24 5.12 3.22 1.89 3.33 2.84 13.47 2.84 30.13v16.49c0 25.2-10.52 39.08-29.63 39.08-20.22 0-30.06-12.83-30.06-39.22v-30.96c0-14.35 0-18.21 9.51-19l3-.25a2.67 2.67 0 0 0-.13-1.46c-4.73.19-8.52.32-12.43.38l-3.43-.38c-6.71-.78-8.77-3.3-13-15.85l-20.4-59.85c-1.91-5.6-3.89-11.39-5.54-17a.86.86 0 0 0-.75-.53 17.08 17.08 0 0 1-6.78 5.1c.15 2.29-.71 5-2.6 9.82l-14.6 38.65c-4.16 11.12-7.42 19.13-9.8 25-1.08 2.66-2 4.94-2.8 7-1.35 3.48-3.29 5.69-6 6.81a12.92 12.92 0 0 1-1.24-1c-10.11-8.47-18-20.67-29-38.31-.52-.84-1.92-3.07-.63-4.61l.16-.19.23-.1c4.05-1.62 17.27-8.06 17.27-23 0-10.94-6.17-16.46-11.36-19.16-6.77-3.68-15.64-4.17-23.43-4.17-12.83.03-22.83.38-31.51 1.2a1.3 1.3 0 0 0-.23.68 1.76 1.76 0 0 0 .19 1l4.24.53c6.9.84 7.18 4.37 7.18 17.74v51.4c0 14.93-.29 17.78-9.47 18.88l-2.82.34c-2.86-.06-5.84-.17-9.34-.33a3.29 3.29 0 0 0-.18 1.62l1.9.24c9.62 1.14 9.62 4.57 9.62 19v51.53c0 15.08-.79 18.1-9.79 18.89l-.88.08-3.74-.18a3.2 3.2 0 0 0-.18 1.6h.58a2.35 2.35 0 0 0 .13.4l3.37-.11c9 .92 9.3 4.4 9.3 18.95v51.54c0 15.07-.29 17.94-9.49 18.89l-3.82.38a2 2 0 0 0-.09.71 2.65 2.65 0 0 0 .18.91c7.94-.29 12.39-.42 18.23-.42h13.17c15.22 0 27.91.15 35 .41 2-4.45 5.39-16.94 5.62-18.86a2.81 2.81 0 0 0-1.37-.34 2 2 0 0 0-.41 0c-2.75 6.89-6.46 12.35-9.74 14.33-2.5 1.4-5.55 2-18 2-11.74 0-14.58-1.85-16.33-3.6-2.79-2.94-3.28-6.79-3.28-16.15v-49.75c0-15 .32-18.24 9.65-19l2.55-.21c11.6 0 23.39.15 35.09.4l.19-.44a2.18 2.18 0 0 0 .16.44l2.54-.11 5.25-.2 1.48.12c9.33.79 9.65 4.05 9.65 19.32v51c0 15.18-.29 18.07-9.61 19.18l-3.12.37a2 2 0 0 0-.1.72 2.4 2.4 0 0 0 .19.91c6.76-.27 11.63-.42 17.65-.42 5.78 0 10.6.15 17.36.42a3.17 3.17 0 0 0 .17-1.62l-3.19-.38c-9.32-1.11-9.61-4-9.61-19.18v-51c0-15.27.32-18.53 9.65-19.32l3.18-.31a3.22 3.22 0 0 0-.13-1.61c-5.36.22-9.5.35-13.86.4l-3.77-.35c-3-.25-5.07-1-5.07-3.85 0-1.75 1.05-5.74 3.2-12.2l5-15c1.19-3.55 2.57-4.11 6.39-4.11h21.62c4.64 0 5.66.64 6.82 4.27l6.27 19.45c1.36 4.07 1.92 6.36 1.92 7.9 0 1.37-1 3.11-5.91 3.57l-3 .31c-2.82-.05-6-.15-8.86-.35a1.09 1.09 0 0 0-.18.5 2 2 0 0 0 .14 1.12l2 .23c4.35.55 7.53 1.8 9.49 3.76 3.18 3.47 3.41 6.6 3.41 11v42.67c0 7.63 0 23.52-2 28.6-.87 1.93-3.34 3.12-7.1 3.45l-3.42.38a1.84 1.84 0 0 0-.11.83 1.79 1.79 0 0 0 .24.78c4.58-.26 8.5-.41 14.49-.41 4.94 0 9.71.12 16.37.41a1.34 1.34 0 0 0 .21-.56 1.89 1.89 0 0 0-.14-1.05l-3.92-.38c-4.22-.34-6.94-1.41-8.1-3.25-2.5-4.68-2.7-24.22-2.7-30.1v-31.23c0-5.2.22-8 .77-9.62l.23-.68h1.43l.3.31c1.93 2 6.59 7.53 10.71 12.39 2.34 2.78 4.52 5.35 5.92 7l33.34 37.76c12.18 13.85 16.24 18.74 18.07 21.24a1.52 1.52 0 0 0 1.21-.69c-.27-2.8-.41-11.17-.41-24.9v-36.14c0-8.06-.07-23.08 2.26-28 1-2 3.46-3 5.75-4l4.49-2.18v-.06a27 27 0 0 0 7.08-5.41c6.56-7 9.75-18 9.75-33.53v-17.6c0-8.8 0-23.54 2.08-28.14.84-2.18 3.68-3.41 6.18-4.22 1.39-.45 2.54-.8 3.31-1a60 60 0 0 0 6.09-1.39 146.65 146.65 0 0 1-4.53 17 2.08 2.08 0 0 0 1.37.55 1.3 1.3 0 0 0 .45-.08c1.44-3.28 3-6.65 6.55-9.92s10.89-3.87 18.22-3.87h7.88c5 0 5.29.7 5.29 5.58v64c0 15.08-.78 17.58-9.79 18.37l-9 .49c-6.7.26-15.07.4-20.73.4-6 0-10.88-.15-17.64-.41a3.15 3.15 0 0 0-.18 1.59l3.16.26c9.32.79 9.65 4.05 9.65 19.32v51c0 15.18-.3 18.07-9.61 19.18l-3.12.37a1.81 1.81 0 0 0-.1.72 2.65 2.65 0 0 0 .18.91c6.77-.27 11.64-.42 17.66-.42 5.78 0 10.6.15 17.35.42a3.08 3.08 0 0 0 .18-1.62l-3.19-.38c-9.32-1.11-9.61-4-9.61-19.18v-51c0-15.27.32-18.53 9.65-19.32l6.45-.24c9.27-.29 18.06-.51 23.59-.51s10.17.13 18.35.42a3.14 3.14 0 0 0 .19-1.61l-4.18-.39c-9.2-1-9.49-3.3-9.49-18.37v-64.14c0-2.48 0-3.72.85-4.57s2.19-.87 4.29-.87h10.17c8.13 0 13.76 1.24 17.19 3.77 2.32 1.7 3.42 6.68 3.93 10.73a2.14 2.14 0 0 0 .81.14 1.89 1.89 0 0 0 .94-.21 88 88 0 0 1 1-15.52l5.58.09 2.48.44c4.89.82 7.19 2 12 11.41l16.9 32.94c4.17 8 4.7 10.08 4.7 18.21v7.3c0 15.31-.29 18.22-9.5 19.17l-3.95.39a2 2 0 0 0-.1.71 2.34 2.34 0 0 0 .19.9c7-.26 12.29-.41 18.37-.41 5.53 0 10.11.12 19.08.41a2.24 2.24 0 0 0 .19-.9 2 2 0 0 0-.09-.7l-4.94-.4c-8.69-.64-9.51-4-9.51-19.17v-7.45c0-11 .22-12.62 6.86-23.69l9-15.61c.87-1.49 1.69-2.93 2.48-4.32 5.87-10.28 10.11-17.7 17.1-18.78l3.68-.65a1.4 1.4 0 0 0 .17-.84 1.36 1.36 0 0 0-.25-.79zm-317.77-43.72l9-24.92a87.35 87.35 0 0 1 3.52-8.61l.29-.49h1.48l.28.55a94.76 94.76 0 0 1 3.35 9.16l7.73 23.33c.67 2 1.08 3.52.31 4.59s-2 1.16-4.41 1.16h-17.6c-2.25 0-3.61 0-4.3-1s-.23-2.09.35-3.77zm-82.27-39.6c0-5.14 1.69-5.58 10.31-5.58 17.64 0 23.9 12.41 23.9 23 0 8.53-2.47 14.59-7.55 18.55-4.59 3.48-10.61 3.92-15.35 3.92-8.89 0-10-.41-10.59-1v-.11c-.63-.84-.63-2.34-.63-5.32zm62.22 135c-4.16 11.11-7.42 19.12-9.8 25-1.08 2.66-2 4.94-2.8 7-1.88 4.84-4.88 7.27-9.43 7.64l-3.76.35a137.08 137.08 0 0 0 5.33-17 1.83 1.83 0 0 0-1.31-.53 1.59 1.59 0 0 0-.46.07c-3.62 7.18-7.51 12.41-10.47 14.06-3.41 1.7-8 2.25-18.77 2.25-12 0-15.81-1.37-18-3.61-2.52-2.67-3-7.53-3-15.57v-20.26c0-3.94.53-4.86 5.72-4.86h8.3c5.49 0 9.1.12 11.27.74 3.56.89 4.64 3.78 5.17 6.19l1.21 5.25a2.19 2.19 0 0 0 .93.18 2 2 0 0 0 .89-.17c0-1.29-.11-2.93-.23-4.79-.15-2.64-.34-5.63-.34-8.55s.18-6.16.34-8.89c.12-2 .22-3.74.23-5.17a2.16 2.16 0 0 0-.89-.17 2.32 2.32 0 0 0-.91.17l-1.08 5.52c-.79 4-2 5.08-4.1 5.77-2.26.75-8 .91-12.49.91h-8.3c-4.54 0-5.72-.2-5.72-5v-28.64c0-5.66.16-6.73 5.29-6.73h10.31c6.42 0 11 .15 14.13.89 7.67 1.92 9.28 7 11.32 13.43l.18.56a1.63 1.63 0 0 0 .62.1 2.5 2.5 0 0 0 1.05-.22l-.12-1.38c-.48-5.33-1.18-13.13-1.85-16.12-2.66.28-9.05.3-18.59.3l-2.58-.37c-9.19-1.26-9.45-3.8-9.45-18.88v-18c0-4.15 1.64-4.15 7.73-4.15 5.59 0 8.46 1.31 11 5 2.22 3.22 4.78 7.28 7.26 11.21s4.9 7.76 6.76 10.4c9.42 13.42 16.15 17.54 28.75 17.54a22.39 22.39 0 0 0 5.74-.6 90 90 0 0 1 9.34-.55c1.11 0 2.39.22 2.77 1.24.16 2.3-.7 5-2.59 9.83zm31.25-.52c-.71 1-2 1.17-4.41 1.17h-17.61c-2.26 0-3.61 0-4.3-1s-.23-2.13.35-3.82l9-24.91a85.35 85.35 0 0 1 3.52-8.62l.29-.48h1.47l.28.55a95.81 95.81 0 0 1 3.34 9.15l7.73 23.34c.69 2.09 1.11 3.59.34 4.66zm81 106c0 3.81 0 5.69-.79 6.63l-.3.38h-1.19l-.3-.3c-6.6-6.75-13.68-14.51-23.65-26l-13.89-15.61-2.08-2.38c-5.83-6.65-17.29-19.73-21.45-27.12h1.74c5.91 0 10.82.11 16.83.4a2.94 2.94 0 0 0 .14-1.11 1.58 1.58 0 0 0-.12-.49l-3.5-.39c-6.71-.78-8.77-3.3-13-15.84l-20.42-59.7c-1.92-5.59-3.89-11.38-5.54-17a.84.84 0 0 0-.76-.53 10.22 10.22 0 0 1-5.91 2c-2.39 0-5.74-.11-5.74-.11-3-.25-5.07-1-5.07-3.86 0-1.75 1.05-5.74 3.2-12.2l5-15c1.19-3.55 2.57-4.12 6.39-4.12h21.62c4.64 0 5.66.64 6.82 4.27l6.3 19.46c1.35 4.08 1.91 6.37 1.91 7.91 0 1.37-1 3.1-5.91 3.57l-3.78.39a1.51 1.51 0 0 0-.14.82 1.49 1.49 0 0 0 .27.79l2.46-.09c2.81-.12 6.16-.25 10-.3l1.26.1c9.18.79 9.5 4 9.5 19v33.79c0 16.63 3.34 26.81 10.82 33 4.17 3.58 9.79 5.91 16.75 7h.26a60.91 60.91 0 0 0 6.3.57c1.49.17 2.4.47 3 1.31 2 3.16 3 13.31 3 30.17zM463.26 256.84c-3.12 7.76-11.1 20.35-30.12 20.35-25.52 0-42.66-18.78-42.66-46.73 0-13.86 4.18-25.24 12.1-32.93 7.22-7 17.11-10.72 28.6-10.72 16.46 0 26.43 7 29.64 20.87a2.27 2.27 0 0 0 1.88-.05c-1-7.49-1.64-15.39-1.86-19.25a14.13 14.13 0 0 1-2.9-.53l-.36-.09a107.17 107.17 0 0 0-24.58-3.34c-14.57 0-27.47 4.06-37.29 11.73-11 8.53-17.3 21.81-17.3 36.41 0 15.72 6.92 29.15 19.49 37.79 9.26 6.21 20.51 9.23 34.4 9.23 8.74 0 18.72-2 21.84-3.17a31.19 31.19 0 0 1 4.69-1.37c1.95-2.76 5.23-11 6.26-18a2.28 2.28 0 0 0-1.16-.29 1.94 1.94 0 0 0-.67.09z"/></g></svg>