<svg xmlns="http://www.w3.org/2000/svg" width="219" height="8.281" viewBox="0 0 219 8.281"><defs><style>.cls-1 { fill: #9a702e; fill-rule: evenodd; }</style></defs><path id="シェイプ_8" class="cls-1" d="M1333.63 734.963l-1.35-1.335 1.35-1.337 1.35 1.334zm-24.07 0l-1.35-1.335 1.35-1.337 1.34 1.334zm20.61-1.338a.828.828 0 0 1-.83.827.827.827 0 1 1 0-1.653.827.827 0 0 1 .83.826zm-3.93 0a.828.828 0 0 1-.83.827.827.827 0 1 1 0-1.653.827.827 0 0 1 .83.826zm-3.93 0a.837.837 0 0 1-.84.827.827.827 0 1 1 .84-.827zm-3.93 0a.837.837 0 0 1-.84.827.827.827 0 1 1 .84-.827zm-3.94 0a.828.828 0 0 1-.83.827.827.827 0 1 1 0-1.653.827.827 0 0 1 .83.826zm-28.96 1.338l-1.35-1.335 1.35-1.337 1.35 1.334zm20.62-1.338a.835.835 0 1 1-.84-.826.83.83 0 0 1 .84.826zm-3.93 0a.837.837 0 0 1-.84.827.827.827 0 1 1 .84-.827zm-3.94 0a.83.83 0 1 1-.83-.826.828.828 0 0 1 .83.826zm-3.93 0a.835.835 0 1 1-.84-.826.83.83 0 0 1 .84.826zm-3.93 0a.837.837 0 0 1-.84.827.827.827 0 1 1 .84-.827zm-28.96 1.338l-1.36-1.335 1.36-1.337 1.34 1.334zm20.61-1.338a.83.83 0 1 1-.83-.826.828.828 0 0 1 .83.826zm-3.93 0a.828.828 0 0 1-.83.827.827.827 0 1 1 0-1.653.827.827 0 0 1 .83.826zm-3.93 0a.835.835 0 1 1-.84-.826.83.83 0 0 1 .84.826zm-3.94 0a.83.83 0 1 1-.83-.826.828.828 0 0 1 .83.826zm-3.93 0a.828.828 0 0 1-.83.827.827.827 0 1 1 0-1.653.827.827 0 0 1 .83.826zm-21.36-.038v.255c0 2.325 4.79 2 5.86.673a8.756 8.756 0 0 1-.57 1.261 1.639 1.639 0 0 1-1.31.464c-1.02-.048-1.52 1.374-.28 1.538 1.45.194 2.3-1.007 2.68-2.409v-1.782h-6.38zm0 .1v-.257c0-2.322 4.79-1.99 5.86-.673a8.6 8.6 0 0 0-.57-1.26 1.634 1.634 0 0 0-1.31-.462c-1.02.048-1.52-1.374-.28-1.535 1.45-.2 2.3 1 2.68 2.407v1.778h-6.38zm-2.16-1.791a1.745 1.745 0 1 0 1.77 1.744 1.756 1.756 0 0 0-1.77-1.746zm13.64 3.069l-1.36-1.335 1.36-1.337 1.34 1.334zm110.96 0l1.35-1.335-1.35-1.337-1.35 1.334zm24.07 0l1.35-1.335-1.35-1.337-1.34 1.334zm-20.61-1.338a.828.828 0 0 0 .83.827.827.827 0 1 0 0-1.653.827.827 0 0 0-.83.824zm3.93 0a.828.828 0 0 0 .83.827.827.827 0 1 0 0-1.653.827.827 0 0 0-.83.824zm3.93 0a.837.837 0 0 0 .84.827.827.827 0 1 0-.84-.829zm3.93 0a.837.837 0 0 0 .84.827.827.827 0 1 0-.84-.829zm3.94 0a.828.828 0 0 0 .83.827.827.827 0 1 0 0-1.653.827.827 0 0 0-.83.824zm28.96 1.338l1.35-1.335-1.35-1.337-1.35 1.334zm-20.62-1.338a.835.835 0 1 0 .84-.826.83.83 0 0 0-.84.824zm3.93 0a.837.837 0 0 0 .84.827.827.827 0 1 0-.84-.829zm3.94 0a.83.83 0 1 0 .83-.826.828.828 0 0 0-.83.824zm3.93 0a.835.835 0 1 0 .84-.826.83.83 0 0 0-.84.824zm3.93 0a.837.837 0 0 0 .84.827.827.827 0 1 0-.84-.829zm28.96 1.338l1.36-1.335-1.36-1.337-1.34 1.334zm-20.61-1.338a.83.83 0 1 0 .83-.826.828.828 0 0 0-.83.824zm3.93 0a.828.828 0 0 0 .83.827.827.827 0 1 0 0-1.653.827.827 0 0 0-.83.824zm3.93 0a.835.835 0 1 0 .84-.826.83.83 0 0 0-.84.824zm3.94 0a.83.83 0 1 0 .83-.826.828.828 0 0 0-.83.824zm3.93 0a.828.828 0 0 0 .83.827.827.827 0 1 0 0-1.653.827.827 0 0 0-.83.824zm21.36-.038v.255c0 2.325-4.79 2-5.86.673a8.756 8.756 0 0 0 .57 1.261 1.639 1.639 0 0 0 1.31.464c1.02-.048 1.52 1.374.28 1.538-1.45.194-2.3-1.007-2.68-2.409v-1.782h6.38zm0 .1v-.259c0-2.322-4.79-1.99-5.86-.673a8.6 8.6 0 0 1 .57-1.26 1.634 1.634 0 0 1 1.31-.462c1.02.048 1.52-1.374.28-1.535-1.45-.2-2.3 1-2.68 2.407v1.778h6.38zm2.16-1.791a1.745 1.745 0 1 1-1.77 1.744 1.756 1.756 0 0 1 1.77-1.748zm-13.64 3.069l1.36-1.335-1.36-1.337-1.34 1.334zm-90.42-1.338a.828.828 0 0 1-.83.827.827.827 0 1 1 0-1.653.827.827 0 0 1 .83.822zm-3.93 0a.828.828 0 0 1-.83.827.827.827 0 1 1 0-1.653.827.827 0 0 1 .83.822zm-3.93 0a.837.837 0 0 1-.84.827.827.827 0 1 1 .84-.831zm-3.93 0a.837.837 0 0 1-.84.827.827.827 0 1 1 .84-.831zm-3.94 0a.828.828 0 0 1-.83.827.827.827 0 1 1 0-1.653.827.827 0 0 1 .83.822zm25.73 0a.828.828 0 0 1-.83.827.827.827 0 1 1 0-1.653.827.827 0 0 1 .83.822zm-3.93 0a.828.828 0 0 1-.83.827.827.827 0 1 1 0-1.653.827.827 0 0 1 .83.822zm-3 0a.828.828 0 0 1-.83.827.827.827 0 1 1 0-1.653.827.827 0 0 1 .83.822z" transform="translate(-1241 -729.5)"/></svg>