<svg
 xmlns="http://www.w3.org/2000/svg"
 xmlns:xlink="http://www.w3.org/1999/xlink"
 width="11px" height="120px">
<path fill-rule="evenodd"  fill="rgb(188, 154, 100)"
 d="M7.849,57.422 C8.686,58.137 9.563,58.814 10.443,59.470 L10.694,59.657 L10.443,59.844 C9.582,60.485 8.723,61.147 7.903,61.845 C9.556,63.830 11.009,66.192 11.009,68.563 C11.009,69.564 10.837,70.500 10.511,71.268 C10.197,72.007 9.732,72.640 9.170,73.155 C8.939,76.407 7.211,77.860 6.132,78.449 C6.470,78.528 6.726,78.551 6.730,78.551 L6.999,78.574 L6.960,78.824 C6.951,78.883 6.294,83.131 5.937,87.407 L5.937,119.312 L5.062,119.312 L5.062,88.570 C4.741,83.937 3.961,78.888 3.952,78.824 L3.913,78.575 L4.182,78.551 C4.186,78.551 4.441,78.528 4.780,78.449 C3.695,77.857 1.955,76.392 1.738,73.106 C0.489,71.856 0.000,70.053 0.000,68.563 C0.000,66.211 1.431,63.868 3.066,61.896 C2.227,61.179 1.349,60.501 0.468,59.844 L0.217,59.657 L0.468,59.470 C1.369,58.799 2.265,58.106 3.119,57.372 C1.462,55.386 0.000,53.019 0.000,50.642 C0.000,49.622 0.166,48.719 0.492,47.960 C0.796,47.256 1.227,46.648 1.742,46.147 C1.976,42.903 3.701,41.454 4.780,40.864 C4.441,40.786 4.186,40.762 4.182,40.762 L3.913,40.740 L3.952,40.490 C3.961,40.426 4.741,35.377 5.062,30.744 L5.062,0.000 L5.937,0.000 L5.937,31.907 C6.294,36.183 6.951,40.431 6.960,40.490 C6.960,40.490 6.999,40.739 6.998,40.739 L6.730,40.762 C6.726,40.762 6.470,40.786 6.132,40.864 C7.193,41.445 8.885,42.858 9.160,45.999 C10.489,47.251 11.009,49.106 11.009,50.642 C11.009,53.037 9.525,55.424 7.849,57.422 ZM9.875,59.657 C9.079,59.060 8.288,58.445 7.530,57.798 C6.962,58.450 6.381,59.058 5.837,59.602 C6.399,60.165 6.999,60.792 7.585,61.468 C8.327,60.839 9.098,60.239 9.875,59.657 ZM7.154,57.471 C6.561,56.949 5.990,56.404 5.455,55.830 C4.939,56.386 4.386,56.915 3.813,57.423 C4.379,58.077 4.960,58.687 5.506,59.234 C6.037,58.701 6.602,58.107 7.154,57.471 ZM3.759,61.845 C4.351,62.367 4.922,62.910 5.455,63.484 C6.005,62.892 6.596,62.332 7.210,61.794 C6.640,61.135 6.054,60.522 5.506,59.970 C4.943,60.535 4.342,61.166 3.759,61.845 ZM9.125,71.060 C9.178,71.545 9.195,71.993 9.195,72.421 C9.535,72.032 9.823,71.590 10.034,71.092 C10.337,70.379 10.498,69.504 10.498,68.563 C10.498,66.335 9.114,64.082 7.527,62.172 C6.917,62.707 6.333,63.265 5.790,63.855 C7.519,65.817 8.807,68.124 9.125,71.060 ZM6.416,78.994 C6.289,78.974 6.122,78.942 5.937,78.896 L5.937,82.526 C6.147,80.839 6.339,79.511 6.416,78.994 ZM4.494,78.994 C4.583,79.584 4.820,81.218 5.062,83.254 L5.062,78.873 C4.843,78.931 4.642,78.971 4.494,78.994 ZM5.455,78.238 C6.271,77.900 8.222,76.768 8.618,73.601 C7.296,74.527 5.582,74.862 3.930,74.386 C3.295,74.204 2.755,73.922 2.290,73.577 C2.680,76.761 4.638,77.899 5.455,78.238 ZM2.232,72.887 C2.724,73.346 3.331,73.713 4.080,73.929 C5.726,74.403 7.440,73.983 8.676,72.936 C8.703,72.383 8.688,71.776 8.616,71.107 C8.313,68.327 7.098,66.120 5.455,64.233 C3.813,66.120 2.597,68.327 2.295,71.107 C2.225,71.756 2.208,72.347 2.232,72.887 ZM0.512,68.563 C0.512,69.776 0.860,71.210 1.716,72.322 C1.720,71.923 1.737,71.508 1.786,71.060 C2.104,68.124 3.391,65.817 5.121,63.855 C4.595,63.284 4.031,62.741 3.443,62.221 C1.874,64.120 0.512,66.353 0.512,68.563 ZM1.036,59.657 C1.833,60.254 2.624,60.870 3.383,61.518 C3.983,60.822 4.598,60.177 5.172,59.602 C4.616,59.044 4.020,58.420 3.438,57.749 C2.662,58.414 1.852,59.045 1.036,59.657 ZM1.786,48.254 C1.734,47.774 1.716,47.331 1.716,46.906 C1.418,47.271 1.164,47.683 0.968,48.139 C0.666,48.840 0.512,49.683 0.512,50.642 C0.512,52.875 1.904,55.134 3.495,57.046 C4.065,56.541 4.611,56.014 5.121,55.460 C3.391,53.497 2.104,51.190 1.786,48.254 ZM5.062,36.060 C4.820,38.096 4.583,39.730 4.494,40.320 C4.642,40.343 4.843,40.383 5.062,40.442 L5.062,36.060 ZM6.416,40.320 C6.339,39.803 6.147,38.475 5.937,36.788 L5.937,40.418 C6.122,40.373 6.289,40.340 6.416,40.320 ZM5.455,41.076 C4.644,41.413 2.708,42.536 2.299,45.669 C3.610,44.698 5.320,44.338 7.004,44.799 C7.614,44.967 8.138,45.224 8.593,45.541 C8.149,42.506 6.256,41.408 5.455,41.076 ZM8.665,46.219 C8.178,45.795 7.584,45.457 6.859,45.258 C5.175,44.796 3.461,45.250 2.237,46.359 C2.208,46.918 2.222,47.530 2.295,48.206 C2.597,50.987 3.813,53.194 5.455,55.081 C7.098,53.194 8.313,50.987 8.616,48.206 C8.695,47.474 8.705,46.815 8.665,46.219 ZM9.196,46.759 C9.202,47.225 9.183,47.719 9.125,48.254 C8.807,51.190 7.519,53.497 5.790,55.460 C6.317,56.032 6.883,56.575 7.473,57.096 C9.083,55.172 10.498,52.894 10.498,50.642 C10.498,49.380 10.127,47.885 9.196,46.759 Z"/>
</svg>
