<?xml version="1.0" standalone="no"?>
<!DOCTYPE svg PUBLIC "-//W3C//DTD SVG 20010904//EN"
 "http://www.w3.org/TR/2001/REC-SVG-20010904/DTD/svg10.dtd">
<svg version="1.0" xmlns="http://www.w3.org/2000/svg"
 width="206.000000pt" height="206.000000pt" viewBox="0 0 206.000000 206.000000"
 preserveAspectRatio="xMidYMid meet">
<metadata>
Created by potrace 1.11, written by Peter Selinger 2001-2013
</metadata>
<g transform="translate(0.000000,206.000000) scale(0.100000,-0.100000)"
fill="#000000" stroke="none">
<path d="M997 1512 c-21 -23 -22 -61 -1 -69 8 -3 13 -12 10 -19 -3 -7 1 -25 8
-38 l13 -26 13 24 c7 13 10 30 8 37 -2 7 4 21 14 31 21 21 22 29 6 50 -21 26
-53 30 -71 10z"/>
<path d="M943 1399 c-16 -16 -5 -39 18 -39 26 0 60 -36 53 -55 -10 -25 -32
-17 -36 13 -4 33 -35 41 -72 16 -30 -19 -32 -27 -11 -48 24 -23 18 -27 -28
-22 -23 3 -49 1 -57 -4 -12 -8 -11 -10 6 -10 11 0 28 -6 38 -13 15 -11 16 -15
4 -25 -11 -9 -22 -6 -51 13 -51 35 -148 59 -206 50 -65 -10 -103 -27 -171 -80
-33 -25 -64 -44 -69 -41 -10 7 -31 -46 -31 -79 0 -30 -10 -37 -27 -20 -17 17
-58 21 -48 4 4 -5 18 -14 30 -19 17 -6 28 -22 36 -52 6 -24 20 -60 30 -80 11
-21 16 -38 12 -38 -5 0 -33 23 -63 50 -65 59 -103 73 -142 53 -34 -17 -45 -55
-29 -100 11 -29 10 -37 -3 -52 -9 -10 -16 -23 -16 -29 0 -15 -17 -16 -25 -2
-12 19 -54 10 -71 -15 -21 -32 -13 -109 16 -145 11 -14 28 -40 37 -57 19 -38
17 -38 73 -18 24 8 57 18 74 21 17 3 49 9 71 14 130 29 399 45 745 45 438 0
698 -23 869 -76 35 -11 65 -19 66 -17 2 2 20 28 41 58 41 60 56 139 35 179
-13 23 -59 29 -79 9 -8 -8 -14 -5 -21 14 -5 15 -15 29 -20 33 -8 4 -8 12 0 26
37 69 -2 126 -82 120 -9 0 -45 -26 -79 -57 -34 -30 -64 -53 -67 -51 -2 3 5 23
15 44 11 21 23 56 27 76 6 30 14 40 41 52 42 17 44 29 4 23 -34 -5 -41 7 -10
17 23 7 28 34 5 31 -8 -1 -23 -10 -35 -21 -20 -18 -20 -18 -20 3 0 30 -10 52
-25 52 -7 0 -42 23 -78 51 -78 60 -133 79 -215 74 -60 -4 -141 -32 -172 -60
-13 -11 -18 -11 -34 0 -18 14 -18 15 8 25 15 5 32 10 37 10 6 0 8 4 5 9 -3 5
-27 7 -53 5 -48 -3 -83 -29 -83 -60 0 -19 -16 -18 -24 1 -8 21 3 45 20 45 8 0
14 5 14 12 0 6 3 9 6 5 3 -3 15 3 26 13 20 18 22 54 3 56 -29 2 -45 17 -39 36
4 13 1 24 -7 29 -23 14 -29 11 -40 -21 -6 -16 -14 -30 -17 -31 -4 0 -15 -2
-25 -4 -13 -2 -25 8 -39 31 -22 37 -28 40 -45 23z m151 -47 c-6 -4 -14 -19
-18 -34 -7 -31 -23 -37 -33 -13 -7 19 24 55 46 55 10 0 12 -3 5 -8z m-130 -40
c2 -4 -4 -13 -14 -19 -15 -10 -17 -9 -13 8 5 20 18 25 27 11z m153 -7 c0 -8
-6 -15 -14 -15 -14 0 -17 12 -6 23 11 11 20 8 20 -8z m-114 -64 c-3 -14 -10
-37 -14 -51 l-7 -25 -1 25 c-1 18 -4 21 -13 12 -9 -9 -16 -5 -30 18 -10 17
-18 33 -18 35 0 13 24 2 45 -21 14 -15 25 -23 25 -17 0 5 -5 14 -11 20 -14 14
-5 30 15 30 12 0 14 -7 9 -26z m77 8 c0 -9 -7 -23 -17 -30 -14 -12 -16 -12
-11 1 3 8 2 22 -3 30 -5 12 -2 16 12 16 11 0 19 -7 19 -17z m-488 -31 c-4 -19
-2 -20 19 -13 52 17 111 17 154 1 55 -21 75 -43 49 -52 -87 -28 -105 -50 -43
-51 89 -2 157 -90 150 -193 -3 -28 -4 -26 -32 48 -6 19 -28 51 -48 71 -31 32
-42 37 -69 33 -20 -2 -32 0 -32 7 0 6 -11 11 -25 11 -14 0 -25 -4 -25 -10 0
-5 -9 -10 -21 -10 -16 0 -20 5 -17 27 4 33 40 60 98 73 l45 9 -47 -4 c-64 -6
-119 -30 -125 -55 -6 -24 -11 -25 -35 -3 -17 15 -18 15 -18 -6 0 -12 5 -32 11
-43 6 -11 7 -19 2 -16 -53 26 -63 33 -59 44 6 17 -18 36 -36 29 -9 -4 -18 1
-22 10 -7 19 1 38 14 30 5 -3 11 4 15 15 3 11 11 21 16 21 5 1 13 2 19 3 5 0
17 11 25 24 21 29 45 29 37 0z m907 -4 c11 -14 25 -23 30 -20 6 4 18 -5 27
-19 9 -13 20 -23 24 -20 5 3 12 1 15 -5 8 -13 -13 -41 -29 -39 -27 3 -36 -2
-36 -21 0 -12 -12 -26 -30 -35 -34 -17 -34 -17 -20 20 13 34 3 52 -17 28 -9
-11 -16 -14 -19 -7 -13 29 -33 45 -76 58 -27 8 -48 10 -48 5 0 -5 8 -9 18 -9
27 -1 61 -32 66 -62 5 -31 -10 -37 -44 -16 -15 9 -24 9 -44 -1 -13 -8 -34 -11
-45 -8 -13 3 -27 -4 -40 -19 -12 -13 -25 -24 -30 -24 -11 0 -51 -84 -51 -106
0 -8 -5 -14 -11 -14 -14 0 -9 68 9 105 30 62 76 95 137 97 19 1 35 5 35 9 0
12 -40 36 -74 43 l-29 7 39 26 c48 33 128 42 173 20 30 -15 31 -15 31 9 0 31
13 31 39 -2z m-579 -61 c0 -34 61 -95 87 -86 15 5 14 2 -5 -19 -23 -25 -22
-54 2 -70 15 -10 14 -30 -1 -46 -17 -17 -16 -27 2 -46 8 -8 15 -19 15 -25 0
-21 15 -10 29 20 12 28 12 35 -2 58 -15 25 -14 28 4 39 23 14 26 60 4 68 -22
9 -18 19 7 21 32 3 55 31 75 93 10 30 23 54 28 53 21 -5 15 -42 -14 -88 -78
-123 -63 -289 35 -390 18 -19 30 -36 26 -36 -14 -3 -162 -4 -162 -1 0 16 27
38 44 35 11 -2 30 3 41 12 17 14 17 16 2 11 -20 -6 -57 26 -57 49 0 14 -29 35
-50 35 -6 0 -8 -5 -4 -12 6 -10 5 -10 -7 -1 -18 15 -32 6 -50 -32 -8 -16 -25
-32 -38 -35 -21 -5 -22 -7 -8 -18 9 -8 29 -11 46 -9 20 3 30 1 28 -6 -1 -7 5
-11 13 -9 10 2 12 0 5 -7 -10 -10 -161 -22 -169 -13 -3 2 15 28 39 57 48 60
66 105 70 177 4 65 -16 136 -54 199 -22 35 -30 57 -25 72 l7 21 18 -23 c11
-13 19 -34 19 -48z m158 30 c0 -21 -2 -23 -10 -9 -5 9 -6 21 -3 26 10 16 13
12 13 -17z m-65 -16 c3 -8 1 -20 -4 -28 -6 -10 -9 -7 -9 14 0 29 5 35 13 14z
m39 -12 c3 -13 1 -22 -3 -19 -9 5 -13 44 -5 44 2 0 6 -11 8 -25z m-650 -39 c3
-5 -2 -25 -13 -45 -10 -20 -20 -56 -23 -79 -5 -56 -12 -62 -22 -20 -9 40 -7
60 12 96 7 15 14 35 14 45 0 17 20 19 32 3z m1288 -13 c0 -8 7 -30 16 -49 11
-23 14 -46 10 -69 -9 -47 -26 -54 -26 -11 0 20 -9 59 -20 87 -10 29 -17 56
-14 60 7 13 34 -1 34 -18z m-1218 -16 c2 -16 10 -22 28 -23 14 -1 41 -11 60
-23 l35 -21 -33 0 c-40 0 -72 -15 -72 -34 0 -8 -7 -27 -15 -42 -13 -25 -13
-30 1 -44 13 -13 18 -11 47 22 18 20 44 41 60 47 34 13 36 -2 2 -17 -27 -12
-27 -14 -30 -79 -2 -44 3 -51 22 -32 8 8 18 6 35 -5 29 -19 42 -12 26 14 -22
35 19 77 48 48 39 -38 12 -118 -49 -142 -33 -14 -86 -15 -124 -2 -27 9 -31 47
-7 70 14 15 14 17 -2 23 -10 3 -30 -1 -45 -9 l-27 -16 -21 49 c-33 76 -28 165
10 202 11 10 19 24 19 32 0 23 28 6 32 -18z m1148 12 c0 -6 7 -17 15 -25 21
-21 36 -85 30 -130 -9 -77 -50 -137 -70 -104 -8 13 -55 13 -55 1 0 -6 5 -13
10 -16 15 -9 12 -65 -4 -71 -15 -6 -74 -9 -113 -6 -35 3 -83 58 -83 97 0 52
42 83 69 51 12 -14 5 -46 -13 -58 -6 -4 1 -8 16 -8 15 0 30 5 33 10 4 7 13 7
26 0 18 -10 19 -7 19 38 0 49 -13 71 -50 85 -9 3 -4 6 12 6 19 1 36 -10 62
-40 23 -27 40 -39 51 -36 17 7 20 38 6 53 -5 5 -11 20 -13 34 -2 20 -11 27
-45 34 -24 6 -43 13 -43 16 0 12 54 33 78 31 13 -1 24 4 27 13 3 9 7 23 10 32
5 16 25 10 25 -7z m-616 -5 c3 -8 2 -12 -4 -9 -6 3 -10 10 -10 16 0 14 7 11
14 -7z m66 12 c0 -2 -8 -10 -17 -17 -16 -13 -17 -12 -4 4 13 16 21 21 21 13z
m668 -61 c-3 -3 -9 2 -12 12 -6 14 -5 15 5 6 7 -7 10 -15 7 -18z m-1033 -5 c3
-6 15 -5 31 2 20 10 27 8 38 -7 7 -10 20 -16 28 -12 10 3 27 -8 47 -30 35 -40
35 -53 -1 -29 -19 12 -28 13 -47 3 -31 -15 -42 -42 -14 -33 26 8 68 -25 79
-61 13 -48 6 -84 -21 -113 -36 -38 -52 -40 -107 -15 l-46 21 20 32 c34 54 22
137 -32 212 -11 15 -20 31 -20 34 0 10 38 7 45 -4z m623 -2 c9 -9 15 -9 24 0
7 7 21 12 31 12 18 0 18 -1 3 -22 -62 -86 -77 -162 -47 -222 12 -22 20 -40 18
-41 -1 0 -19 -8 -40 -18 -55 -25 -81 -22 -111 14 -28 33 -31 55 -15 111 10 38
50 70 77 61 20 -7 14 25 -7 37 -22 11 -46 5 -75 -19 -16 -13 -18 -13 -11 -1
29 50 51 70 76 70 15 0 29 7 33 15 7 18 28 19 44 3z m-1102 -94 c13 -11 15
-17 7 -20 -7 -3 -13 -10 -13 -15 0 -6 4 -8 10 -4 16 10 73 -22 125 -70 28 -26
62 -58 77 -71 19 -17 25 -31 22 -47 -3 -12 -6 -27 -6 -33 -2 -15 -98 -28 -110
-16 -5 5 0 17 13 27 13 12 19 14 17 6 -2 -7 3 -16 10 -18 7 -3 12 4 12 16 0
12 -6 21 -15 21 -11 0 -13 7 -9 28 5 27 3 29 -25 30 -22 0 -31 -4 -32 -16 0
-9 -2 -30 -2 -47 -1 -18 -7 -30 -16 -30 -10 0 -15 14 -17 48 -3 68 -27 99 -97
121 -9 3 -22 17 -29 30 -9 20 -8 30 6 51 19 29 44 32 72 9z m1672 4 c30 -30 7
-93 -37 -103 -47 -10 -74 -47 -79 -110 -3 -38 -9 -55 -18 -55 -15 0 -16 3 -18
60 -1 32 -4 35 -31 34 -25 0 -30 -4 -29 -24 1 -14 -5 -30 -14 -36 -8 -6 -12
-16 -8 -22 11 -18 29 -14 22 3 -4 13 -2 14 14 5 11 -6 20 -18 20 -26 0 -13 -8
-15 -42 -10 -24 3 -52 5 -63 6 -15 0 -17 2 -6 9 9 6 10 11 2 15 -18 12 -12 46
12 69 69 66 145 130 164 138 13 5 31 6 40 2 16 -6 16 -4 -1 15 -19 21 -18 22
5 31 33 13 53 13 67 -1z m-1668 -143 c22 -23 27 -58 21 -141 -2 -34 -45 -37
-74 -5 -21 23 -47 63 -47 73 0 2 10 4 22 5 22 2 40 21 32 35 -9 14 -24 9 -24
-8 0 -14 -3 -14 -15 -4 -19 16 -19 35 1 54 23 23 57 20 84 -9z m1680 5 c17
-17 18 -24 9 -42 -10 -19 -12 -19 -21 -5 -11 21 -28 22 -28 2 0 -17 30 -34 48
-28 20 7 -13 -54 -44 -82 -45 -42 -75 -16 -76 63 -1 89 63 141 112 92z m-887
-20 c3 -11 0 -18 -7 -17 -6 1 -10 -4 -8 -11 1 -8 -2 -11 -8 -7 -11 7 -14 38
-3 48 11 12 21 8 26 -13z m37 -7 c-1 -27 -1 -27 -15 -9 -19 25 -19 36 0 36 10
0 15 -10 15 -27z m-991 -2 c8 -5 30 -43 50 -85 33 -67 35 -75 19 -79 -13 -4
-18 1 -18 14 0 10 -7 19 -15 19 -8 0 -12 -6 -9 -14 9 -22 -13 -28 -40 -11 -30
20 -49 72 -43 114 8 50 24 62 56 42z m1965 -7 c15 -38 6 -98 -20 -131 -28 -37
-54 -43 -54 -13 0 26 -14 26 -26 0 -5 -11 -14 -16 -21 -12 -8 5 -1 29 24 82
20 41 41 78 47 82 19 13 44 9 50 -8z m-1404 -55 c0 -21 -69 -25 -96 -5 -17 13
-13 14 38 13 32 -1 58 -5 58 -8z m118 -13 c15 -15 11 -16 -48 -16 l-65 0 24
19 c29 22 66 21 89 -3z m647 2 l26 -23 -63 4 -63 3 24 19 c30 25 44 24 76 -3z
m130 6 c-24 -18 -79 -18 -93 -1 -9 10 1 13 50 14 54 0 59 -1 43 -13z m-1005
-28 c0 -2 -7 -7 -16 -10 -8 -3 -12 -2 -9 4 6 10 25 14 25 6z m470 -13 c0 -14
-36 -18 -44 -4 -8 12 0 17 24 17 11 0 20 -6 20 -13z m565 7 c3 -6 -1 -7 -9 -4
-18 7 -21 14 -7 14 6 0 13 -4 16 -10z m-700 -10 c-3 -5 -17 -10 -31 -10 -13 0
-24 5 -24 10 0 6 14 10 31 10 17 0 28 -4 24 -10z m63 -8 c2 -8 -6 -12 -27 -10
-24 2 -28 5 -19 16 13 15 40 12 46 -6z m132 -2 c0 -4 -11 -7 -25 -7 -20 0 -23
2 -14 13 10 13 39 9 39 -6z m65 10 c-3 -5 -15 -10 -25 -10 -10 0 -22 5 -25 10
-4 6 7 10 25 10 18 0 29 -4 25 -10z m59 4 c24 -9 19 -21 -9 -21 -15 0 -25 5
-25 13 0 15 10 17 34 8z m81 -4 c-3 -5 -15 -10 -25 -10 -10 0 -22 5 -25 10 -4
6 7 10 25 10 18 0 29 -4 25 -10z m-940 -10 c3 -6 -4 -10 -17 -10 -18 0 -20 2
-8 10 19 12 18 12 25 0z m265 0 c0 -9 -20 -14 -47 -11 -6 1 -14 -3 -18 -9 -3
-5 -17 -10 -30 -10 -18 0 -23 4 -18 16 4 10 13 14 29 10 12 -3 25 -3 28 2 7
11 56 13 56 2z m44 -18 c-31 -4 -44 6 -25 18 9 5 22 3 33 -3 17 -11 17 -12 -8
-15z m836 13 c11 -13 8 -15 -21 -15 -32 1 -33 1 -15 15 24 18 21 18 36 0z m70
5 c0 -11 -22 -18 -37 -12 -21 7 -15 17 12 18 14 1 25 -2 25 -6z m250 -6 c0 -2
-9 -4 -20 -4 -11 0 -20 4 -20 9 0 5 9 7 20 4 11 -3 20 -7 20 -9z m-1344 -16
c-9 -5 -21 -6 -28 -2 -8 5 -5 10 8 14 25 10 41 0 20 -12z m347 15 c-7 -2 -19
-2 -25 0 -7 3 -2 5 12 5 14 0 19 -2 13 -5z m520 0 c-7 -2 -21 -2 -30 0 -10 3
-4 5 12 5 17 0 24 -2 18 -5z m287 -8 c11 -13 9 -15 -19 -13 -31 2 -37 8 -24
21 11 12 30 8 43 -8z m61 -8 c-11 -11 -41 -3 -41 11 0 5 12 7 26 4 17 -3 22
-8 15 -15z m-1336 -7 c3 -5 -3 -10 -15 -10 -12 0 -18 5 -15 10 3 6 10 10 15
10 5 0 12 -4 15 -10z m73 1 c10 -6 7 -10 -12 -13 -26 -5 -41 3 -29 16 9 8 25
7 41 -3z m1322 -5 c0 -9 -8 -12 -26 -8 -19 3 -22 7 -12 13 20 13 38 11 38 -5z
m60 6 c0 -15 -11 -21 -27 -15 -12 5 -12 7 -1 14 17 11 28 11 28 1z m-1495 -22
c3 -5 1 -10 -4 -10 -6 0 -11 5 -11 10 0 6 2 10 4 10 3 0 8 -4 11 -10z m1525 0
c0 -5 -5 -10 -11 -10 -5 0 -7 5 -4 10 3 6 8 10 11 10 2 0 4 -4 4 -10z m-1600
-10 c9 -6 10 -10 3 -10 -6 0 -18 -3 -27 -6 -11 -4 -16 -1 -16 10 0 18 17 21
40 6z m1694 -6 c5 -13 2 -15 -16 -10 -13 3 -27 6 -33 6 -14 0 17 20 31 20 7 0
15 -7 18 -16z m-1754 -2 c0 -15 -11 -21 -27 -15 -12 5 -12 7 -1 14 17 11 28
11 28 1z m1798 -1 c11 -7 11 -9 -1 -14 -16 -6 -27 0 -27 15 0 10 11 10 28 -1z"/>
<path d="M1278 1163 c6 -2 18 -2 25 0 6 3 1 5 -13 5 -14 0 -19 -2 -12 -5z"/>
<path d="M793 893 c-14 -30 -2 -56 23 -46 16 6 19 43 3 43 -6 0 -9 7 -5 15 10
26 -8 16 -21 -12z"/>
<path d="M795 796 c-21 -15 -12 -36 16 -36 12 0 19 7 19 19 0 27 -13 33 -35
17z"/>
<path d="M1243 908 c4 -12 1 -18 -9 -18 -24 0 -12 -35 14 -38 27 -4 30 23 5
53 -13 16 -15 17 -10 3z"/>
<path d="M1230 795 c-15 -18 -5 -35 21 -35 12 0 19 7 19 19 0 24 -25 34 -40
16z"/>
<path d="M256 1201 c-22 -24 -13 -59 17 -70 30 -11 57 8 57 39 0 49 -42 66
-74 31z"/>
<path d="M1736 1205 c-33 -33 -13 -75 36 -75 22 0 29 6 34 27 13 49 -35 82
-70 48z"/>
<path d="M260 1110 c0 -5 14 -19 31 -31 l31 -22 -4 24 c-2 15 -12 25 -30 30
-16 4 -28 3 -28 -1z"/>
</g>
</svg>
